999
"DXF R12 Output" (www.mydxf.blogspot.com)
 0 
SECTION
 2 
HEADER
 9 
$ACADVER
 1 
AC1009
 9 
$EXTMIN
 10 
 0 
 20 
 0 
 9 
$EXTMAX
 10 
 8.5 
 20 
 11 
 0 
ENDSEC
 0 
SECTION
 2 
ENTITIES
0
LINE
8
Layer 1
10
158.750000
20
41.275000
11
158.750000
21
34.925000
0
LINE
8
Layer 1
10
158.750000
20
34.925000
11
152.400000
21
34.925000
0
LINE
8
Layer 1
10
152.400000
20
34.925000
11
152.400000
21
22.225000
0
LINE
8
Layer 1
10
152.400000
20
22.225000
11
158.750000
21
22.225000
0
LINE
8
Layer 1
10
158.750000
20
22.225000
11
158.750000
21
15.875000
0
LINE
8
Layer 1
10
158.750000
20
15.875000
11
250.825010
21
15.875000
0
LINE
8
Layer 1
10
250.825010
20
15.875000
11
250.825010
21
22.225000
0
LINE
8
Layer 1
10
250.825010
20
22.225000
11
257.175010
21
22.225000
0
LINE
8
Layer 1
10
257.175010
20
22.225000
11
257.175010
21
15.875000
0
LINE
8
Layer 1
10
257.175010
20
15.875000
11
352.425010
21
15.875000
0
LINE
8
Layer 1
10
352.425010
20
15.875000
11
352.425010
21
22.225000
0
LINE
8
Layer 1
10
352.425010
20
22.225000
11
358.775010
21
22.225000
0
LINE
8
Layer 1
10
358.775010
20
22.225000
11
358.775010
21
15.875000
0
LINE
8
Layer 1
10
358.775010
20
15.875000
11
450.850010
21
15.875000
0
LINE
8
Layer 1
10
450.850010
20
15.875000
11
450.850010
21
22.225000
0
LINE
8
Layer 1
10
450.850010
20
22.225000
11
457.200010
21
22.225000
0
LINE
8
Layer 1
10
457.200010
20
22.225000
11
457.200010
21
34.925000
0
LINE
8
Layer 1
10
457.200010
20
34.925000
11
450.850010
21
34.925000
0
LINE
8
Layer 1
10
450.850010
20
34.925000
11
450.850010
21
41.275000
0
LINE
8
Layer 1
10
450.850010
20
41.275000
11
358.775010
21
41.275000
0
LINE
8
Layer 1
10
358.775010
20
41.275000
11
358.775010
21
34.925000
0
LINE
8
Layer 1
10
358.775010
20
34.925000
11
352.425010
21
34.925000
0
LINE
8
Layer 1
10
352.425010
20
34.925000
11
352.425010
21
41.275000
0
LINE
8
Layer 1
10
352.425010
20
41.275000
11
257.175010
21
41.275000
0
LINE
8
Layer 1
10
257.175010
20
41.275000
11
257.175010
21
34.925000
0
LINE
8
Layer 1
10
257.175010
20
34.925000
11
250.825010
21
34.925000
0
LINE
8
Layer 1
10
250.825010
20
34.925000
11
250.825010
21
41.275000
0
LINE
8
Layer 1
10
250.825010
20
41.275000
11
158.750000
21
41.275000
0
LINE
8
Layer 1
10
158.750000
20
120.650000
11
158.750000
21
114.300000
0
LINE
8
Layer 1
10
158.750000
20
114.300000
11
152.400000
21
114.300000
0
LINE
8
Layer 1
10
152.400000
20
114.300000
11
152.400000
21
101.600000
0
LINE
8
Layer 1
10
152.400000
20
101.600000
11
158.750000
21
101.600000
0
LINE
8
Layer 1
10
158.750000
20
101.600000
11
158.750000
21
95.250000
0
LINE
8
Layer 1
10
158.750000
20
95.250000
11
250.825010
21
95.250000
0
LINE
8
Layer 1
10
250.825010
20
95.250000
11
250.825010
21
101.600000
0
LINE
8
Layer 1
10
250.825010
20
101.600000
11
257.175010
21
101.600000
0
LINE
8
Layer 1
10
257.175010
20
101.600000
11
257.175010
21
95.250000
0
LINE
8
Layer 1
10
257.175010
20
95.250000
11
352.425010
21
95.250000
0
LINE
8
Layer 1
10
352.425010
20
95.250000
11
352.425010
21
101.600000
0
LINE
8
Layer 1
10
352.425010
20
101.600000
11
358.775010
21
101.600000
0
LINE
8
Layer 1
10
358.775010
20
101.600000
11
358.775010
21
95.250000
0
LINE
8
Layer 1
10
358.775010
20
95.250000
11
450.850010
21
95.250000
0
LINE
8
Layer 1
10
450.850010
20
95.250000
11
450.850010
21
101.600000
0
LINE
8
Layer 1
10
450.850010
20
101.600000
11
457.200010
21
101.600000
0
LINE
8
Layer 1
10
457.200010
20
101.600000
11
457.200010
21
114.300000
0
LINE
8
Layer 1
10
457.200010
20
114.300000
11
450.850010
21
114.300000
0
LINE
8
Layer 1
10
450.850010
20
114.300000
11
450.850010
21
120.650000
0
LINE
8
Layer 1
10
450.850010
20
120.650000
11
358.775010
21
120.650000
0
LINE
8
Layer 1
10
358.775010
20
120.650000
11
358.775010
21
114.300000
0
LINE
8
Layer 1
10
358.775010
20
114.300000
11
352.425010
21
114.300000
0
LINE
8
Layer 1
10
352.425010
20
114.300000
11
352.425010
21
120.650000
0
LINE
8
Layer 1
10
352.425010
20
120.650000
11
257.175010
21
120.650000
0
LINE
8
Layer 1
10
257.175010
20
120.650000
11
257.175010
21
114.300000
0
LINE
8
Layer 1
10
257.175010
20
114.300000
11
250.825010
21
114.300000
0
LINE
8
Layer 1
10
250.825010
20
114.300000
11
250.825010
21
120.650000
0
LINE
8
Layer 1
10
250.825010
20
120.650000
11
158.750000
21
120.650000
0
LINE
8
Layer 1
10
415.925000
20
298.450000
11
415.925000
21
292.100000
0
LINE
8
Layer 1
10
415.925000
20
292.100000
11
409.575000
21
292.100000
0
LINE
8
Layer 1
10
409.575000
20
292.100000
11
409.575000
21
285.750000
0
LINE
8
Layer 1
10
409.575000
20
285.750000
11
415.925000
21
285.750000
0
LINE
8
Layer 1
10
415.925000
20
285.750000
11
415.925000
21
279.400000
0
LINE
8
Layer 1
10
415.925000
20
279.400000
11
561.975000
21
279.400000
0
LINE
8
Layer 1
10
561.975000
20
279.400000
11
561.975000
21
285.750000
0
LINE
8
Layer 1
10
561.975000
20
285.750000
11
555.625000
21
285.750000
0
LINE
8
Layer 1
10
555.625000
20
285.750000
11
555.625000
21
292.100000
0
LINE
8
Layer 1
10
555.625000
20
292.100000
11
561.975000
21
292.100000
0
LINE
8
Layer 1
10
561.975000
20
292.100000
11
561.975000
21
298.450000
0
LINE
8
Layer 1
10
561.975000
20
298.450000
11
492.125000
21
298.450000
0
LINE
8
Layer 1
10
492.125000
20
298.450000
11
492.125000
21
292.100000
0
LINE
8
Layer 1
10
492.125000
20
292.100000
11
479.425000
21
292.100000
0
LINE
8
Layer 1
10
479.425000
20
292.100000
11
479.425000
21
298.450000
0
LINE
8
Layer 1
10
479.425000
20
298.450000
11
415.925000
21
298.450000
0
LINE
8
Layer 1
10
441.325000
20
292.100000
11
466.725000
21
292.100000
0
LINE
8
Layer 1
10
466.725000
20
292.100000
11
466.725000
21
285.750000
0
LINE
8
Layer 1
10
466.725000
20
285.750000
11
441.325000
21
285.750000
0
LINE
8
Layer 1
10
441.325000
20
285.750000
11
441.325000
21
292.100000
0
LINE
8
Layer 1
10
504.825000
20
292.100000
11
530.225000
21
292.100000
0
LINE
8
Layer 1
10
530.225000
20
292.100000
11
530.225000
21
285.750000
0
LINE
8
Layer 1
10
530.225000
20
285.750000
11
504.825000
21
285.750000
0
LINE
8
Layer 1
10
504.825000
20
285.750000
11
504.825000
21
292.100000
0
LINE
8
Layer 1
10
415.925000
20
260.350000
11
415.925000
21
266.700000
0
LINE
8
Layer 1
10
415.925000
20
266.700000
11
409.575000
21
266.700000
0
LINE
8
Layer 1
10
409.575000
20
266.700000
11
409.575000
21
273.050000
0
LINE
8
Layer 1
10
409.575000
20
273.050000
11
415.925000
21
273.050000
0
LINE
8
Layer 1
10
415.925000
20
273.050000
11
415.925000
21
279.400000
0
LINE
8
Layer 1
10
415.925000
20
279.400000
11
561.975000
21
279.400000
0
LINE
8
Layer 1
10
561.975000
20
279.400000
11
561.975000
21
273.050000
0
LINE
8
Layer 1
10
561.975000
20
273.050000
11
555.625000
21
273.050000
0
LINE
8
Layer 1
10
555.625000
20
273.050000
11
555.625000
21
266.700000
0
LINE
8
Layer 1
10
555.625000
20
266.700000
11
561.975000
21
266.700000
0
LINE
8
Layer 1
10
561.975000
20
266.700000
11
561.975000
21
260.350000
0
LINE
8
Layer 1
10
561.975000
20
260.350000
11
492.125000
21
260.350000
0
LINE
8
Layer 1
10
492.125000
20
260.350000
11
492.125000
21
266.700000
0
LINE
8
Layer 1
10
492.125000
20
266.700000
11
479.425000
21
266.700000
0
LINE
8
Layer 1
10
479.425000
20
266.700000
11
479.425000
21
260.350000
0
LINE
8
Layer 1
10
479.425000
20
260.350000
11
415.925000
21
260.350000
0
LINE
8
Layer 1
10
441.325000
20
266.700000
11
466.725000
21
266.700000
0
LINE
8
Layer 1
10
466.725000
20
266.700000
11
466.725000
21
273.050000
0
LINE
8
Layer 1
10
466.725000
20
273.050000
11
441.325000
21
273.050000
0
LINE
8
Layer 1
10
441.325000
20
273.050000
11
441.325000
21
266.700000
0
LINE
8
Layer 1
10
504.825000
20
266.700000
11
530.225000
21
266.700000
0
LINE
8
Layer 1
10
530.225000
20
266.700000
11
530.225000
21
273.050000
0
LINE
8
Layer 1
10
530.225000
20
273.050000
11
504.825000
21
273.050000
0
LINE
8
Layer 1
10
504.825000
20
273.050000
11
504.825000
21
266.700000
0
LINE
8
Layer 1
10
561.975000
20
260.350000
11
561.975000
21
254.000000
0
LINE
8
Layer 1
10
561.975000
20
254.000000
11
568.325000
21
254.000000
0
LINE
8
Layer 1
10
568.325000
20
254.000000
11
568.325000
21
247.650000
0
LINE
8
Layer 1
10
568.325000
20
247.650000
11
561.975000
21
247.650000
0
LINE
8
Layer 1
10
561.975000
20
247.650000
11
561.975000
21
241.300000
0
LINE
8
Layer 1
10
561.975000
20
241.300000
11
415.925000
21
241.300000
0
LINE
8
Layer 1
10
415.925000
20
241.300000
11
415.925000
21
247.650000
0
LINE
8
Layer 1
10
415.925000
20
247.650000
11
422.275000
21
247.650000
0
LINE
8
Layer 1
10
422.275000
20
247.650000
11
422.275000
21
254.000000
0
LINE
8
Layer 1
10
422.275000
20
254.000000
11
415.925000
21
254.000000
0
LINE
8
Layer 1
10
415.925000
20
254.000000
11
415.925000
21
260.350000
0
LINE
8
Layer 1
10
415.925000
20
260.350000
11
485.775000
21
260.350000
0
LINE
8
Layer 1
10
485.775000
20
260.350000
11
485.775000
21
254.000000
0
LINE
8
Layer 1
10
485.775000
20
254.000000
11
498.475000
21
254.000000
0
LINE
8
Layer 1
10
498.475000
20
254.000000
11
498.475000
21
260.350000
0
LINE
8
Layer 1
10
498.475000
20
260.350000
11
561.975000
21
260.350000
0
LINE
8
Layer 1
10
536.575000
20
254.000000
11
511.175000
21
254.000000
0
LINE
8
Layer 1
10
511.175000
20
254.000000
11
511.175000
21
247.650000
0
LINE
8
Layer 1
10
511.175000
20
247.650000
11
536.575000
21
247.650000
0
LINE
8
Layer 1
10
536.575000
20
247.650000
11
536.575000
21
254.000000
0
LINE
8
Layer 1
10
473.075000
20
254.000000
11
447.675000
21
254.000000
0
LINE
8
Layer 1
10
447.675000
20
254.000000
11
447.675000
21
247.650000
0
LINE
8
Layer 1
10
447.675000
20
247.650000
11
473.075000
21
247.650000
0
LINE
8
Layer 1
10
473.075000
20
247.650000
11
473.075000
21
254.000000
0
LINE
8
Layer 1
10
571.500000
20
260.350000
11
577.850000
21
260.350000
0
LINE
8
Layer 1
10
577.850000
20
260.350000
11
577.850000
21
266.700000
0
LINE
8
Layer 1
10
577.850000
20
266.700000
11
584.200000
21
266.700000
0
LINE
8
Layer 1
10
584.200000
20
266.700000
11
584.200000
21
260.350000
0
LINE
8
Layer 1
10
584.200000
20
260.350000
11
590.550000
21
260.350000
0
LINE
8
Layer 1
10
590.550000
20
260.350000
11
590.550000
21
114.300000
0
LINE
8
Layer 1
10
590.550000
20
114.300000
11
584.200000
21
114.300000
0
LINE
8
Layer 1
10
584.200000
20
114.300000
11
584.200000
21
120.650000
0
LINE
8
Layer 1
10
584.200000
20
120.650000
11
577.850000
21
120.650000
0
LINE
8
Layer 1
10
577.850000
20
120.650000
11
577.850000
21
114.300000
0
LINE
8
Layer 1
10
577.850000
20
114.300000
11
571.500000
21
114.300000
0
LINE
8
Layer 1
10
571.500000
20
114.300000
11
571.500000
21
184.150000
0
LINE
8
Layer 1
10
571.500000
20
184.150000
11
577.850000
21
184.150000
0
LINE
8
Layer 1
10
577.850000
20
184.150000
11
577.850000
21
196.850000
0
LINE
8
Layer 1
10
577.850000
20
196.850000
11
571.500000
21
196.850000
0
LINE
8
Layer 1
10
571.500000
20
196.850000
11
571.500000
21
260.350000
0
LINE
8
Layer 1
10
577.850000
20
234.950000
11
577.850000
21
209.550000
0
LINE
8
Layer 1
10
577.850000
20
209.550000
11
584.200000
21
209.550000
0
LINE
8
Layer 1
10
584.200000
20
209.550000
11
584.200000
21
234.950000
0
LINE
8
Layer 1
10
584.200000
20
234.950000
11
577.850000
21
234.950000
0
LINE
8
Layer 1
10
577.850000
20
171.450000
11
577.850000
21
146.050000
0
LINE
8
Layer 1
10
577.850000
20
146.050000
11
584.200000
21
146.050000
0
LINE
8
Layer 1
10
584.200000
20
146.050000
11
584.200000
21
171.450000
0
LINE
8
Layer 1
10
584.200000
20
171.450000
11
577.850000
21
171.450000
0
LINE
8
Layer 1
10
158.750000
20
139.700000
11
158.750000
21
146.050000
0
LINE
8
Layer 1
10
158.750000
20
146.050000
11
152.400000
21
146.050000
0
LINE
8
Layer 1
10
152.400000
20
146.050000
11
152.400000
21
152.400000
0
LINE
8
Layer 1
10
152.400000
20
152.400000
11
158.750000
21
152.400000
0
LINE
8
Layer 1
10
158.750000
20
152.400000
11
158.750000
21
158.750000
0
LINE
8
Layer 1
10
158.750000
20
158.750000
11
304.800000
21
158.750000
0
LINE
8
Layer 1
10
304.800000
20
158.750000
11
304.800000
21
152.400000
0
LINE
8
Layer 1
10
304.800000
20
152.400000
11
298.450000
21
152.400000
0
LINE
8
Layer 1
10
298.450000
20
152.400000
11
298.450000
21
146.050000
0
LINE
8
Layer 1
10
298.450000
20
146.050000
11
304.800000
21
146.050000
0
LINE
8
Layer 1
10
304.800000
20
146.050000
11
304.800000
21
139.700000
0
LINE
8
Layer 1
10
304.800000
20
139.700000
11
234.950000
21
139.700000
0
LINE
8
Layer 1
10
234.950000
20
139.700000
11
234.950000
21
146.050000
0
LINE
8
Layer 1
10
234.950000
20
146.050000
11
222.250000
21
146.050000
0
LINE
8
Layer 1
10
222.250000
20
146.050000
11
222.250000
21
139.700000
0
LINE
8
Layer 1
10
222.250000
20
139.700000
11
158.750000
21
139.700000
0
LINE
8
Layer 1
10
184.150000
20
146.050000
11
209.550000
21
146.050000
0
LINE
8
Layer 1
10
209.550000
20
146.050000
11
209.550000
21
152.400000
0
LINE
8
Layer 1
10
209.550000
20
152.400000
11
184.150000
21
152.400000
0
LINE
8
Layer 1
10
184.150000
20
152.400000
11
184.150000
21
146.050000
0
LINE
8
Layer 1
10
247.650000
20
146.050000
11
273.050000
21
146.050000
0
LINE
8
Layer 1
10
273.050000
20
146.050000
11
273.050000
21
152.400000
0
LINE
8
Layer 1
10
273.050000
20
152.400000
11
247.650000
21
152.400000
0
LINE
8
Layer 1
10
247.650000
20
152.400000
11
247.650000
21
146.050000
0
LINE
8
Layer 1
10
12.700000
20
139.700000
11
12.700000
21
146.050000
0
LINE
8
Layer 1
10
12.700000
20
146.050000
11
6.350000
21
146.050000
0
LINE
8
Layer 1
10
6.350000
20
146.050000
11
6.350000
21
152.400000
0
LINE
8
Layer 1
10
6.350000
20
152.400000
11
12.700000
21
152.400000
0
LINE
8
Layer 1
10
12.700000
20
152.400000
11
12.700000
21
158.750000
0
LINE
8
Layer 1
10
12.700000
20
158.750000
11
158.750000
21
158.750000
0
LINE
8
Layer 1
10
158.750000
20
158.750000
11
158.750000
21
152.400000
0
LINE
8
Layer 1
10
158.750000
20
152.400000
11
152.400000
21
152.400000
0
LINE
8
Layer 1
10
152.400000
20
152.400000
11
152.400000
21
146.050000
0
LINE
8
Layer 1
10
152.400000
20
146.050000
11
158.750000
21
146.050000
0
LINE
8
Layer 1
10
158.750000
20
146.050000
11
158.750000
21
139.700000
0
LINE
8
Layer 1
10
158.750000
20
139.700000
11
88.900000
21
139.700000
0
LINE
8
Layer 1
10
88.900000
20
139.700000
11
88.900000
21
146.050000
0
LINE
8
Layer 1
10
88.900000
20
146.050000
11
76.200000
21
146.050000
0
LINE
8
Layer 1
10
76.200000
20
146.050000
11
76.200000
21
139.700000
0
LINE
8
Layer 1
10
76.200000
20
139.700000
11
12.700000
21
139.700000
0
LINE
8
Layer 1
10
38.100000
20
146.050000
11
63.500000
21
146.050000
0
LINE
8
Layer 1
10
63.500000
20
146.050000
11
63.500000
21
152.400000
0
LINE
8
Layer 1
10
63.500000
20
152.400000
11
38.100000
21
152.400000
0
LINE
8
Layer 1
10
38.100000
20
152.400000
11
38.100000
21
146.050000
0
LINE
8
Layer 1
10
101.600000
20
146.050000
11
127.000000
21
146.050000
0
LINE
8
Layer 1
10
127.000000
20
146.050000
11
127.000000
21
152.400000
0
LINE
8
Layer 1
10
127.000000
20
152.400000
11
101.600000
21
152.400000
0
LINE
8
Layer 1
10
101.600000
20
152.400000
11
101.600000
21
146.050000
0
LINE
8
Layer 1
10
158.750000
20
139.700000
11
158.750000
21
133.350000
0
LINE
8
Layer 1
10
158.750000
20
133.350000
11
152.400000
21
133.350000
0
LINE
8
Layer 1
10
152.400000
20
133.350000
11
152.400000
21
127.000000
0
LINE
8
Layer 1
10
152.400000
20
127.000000
11
158.750000
21
127.000000
0
LINE
8
Layer 1
10
158.750000
20
127.000000
11
158.750000
21
120.650000
0
LINE
8
Layer 1
10
158.750000
20
120.650000
11
304.800000
21
120.650000
0
LINE
8
Layer 1
10
304.800000
20
120.650000
11
304.800000
21
127.000000
0
LINE
8
Layer 1
10
304.800000
20
127.000000
11
298.450000
21
127.000000
0
LINE
8
Layer 1
10
298.450000
20
127.000000
11
298.450000
21
133.350000
0
LINE
8
Layer 1
10
298.450000
20
133.350000
11
304.800000
21
133.350000
0
LINE
8
Layer 1
10
304.800000
20
133.350000
11
304.800000
21
139.700000
0
LINE
8
Layer 1
10
304.800000
20
139.700000
11
234.950000
21
139.700000
0
LINE
8
Layer 1
10
234.950000
20
139.700000
11
234.950000
21
133.350000
0
LINE
8
Layer 1
10
234.950000
20
133.350000
11
222.250000
21
133.350000
0
LINE
8
Layer 1
10
222.250000
20
133.350000
11
222.250000
21
139.700000
0
LINE
8
Layer 1
10
222.250000
20
139.700000
11
158.750000
21
139.700000
0
LINE
8
Layer 1
10
184.150000
20
133.350000
11
209.550000
21
133.350000
0
LINE
8
Layer 1
10
209.550000
20
133.350000
11
209.550000
21
127.000000
0
LINE
8
Layer 1
10
209.550000
20
127.000000
11
184.150000
21
127.000000
0
LINE
8
Layer 1
10
184.150000
20
127.000000
11
184.150000
21
133.350000
0
LINE
8
Layer 1
10
247.650000
20
133.350000
11
273.050000
21
133.350000
0
LINE
8
Layer 1
10
273.050000
20
133.350000
11
273.050000
21
127.000000
0
LINE
8
Layer 1
10
273.050000
20
127.000000
11
247.650000
21
127.000000
0
LINE
8
Layer 1
10
247.650000
20
127.000000
11
247.650000
21
133.350000
0
LINE
8
Layer 1
10
12.700000
20
139.700000
11
12.700000
21
133.350000
0
LINE
8
Layer 1
10
12.700000
20
133.350000
11
6.350000
21
133.350000
0
LINE
8
Layer 1
10
6.350000
20
133.350000
11
6.350000
21
127.000000
0
LINE
8
Layer 1
10
6.350000
20
127.000000
11
12.700000
21
127.000000
0
LINE
8
Layer 1
10
12.700000
20
127.000000
11
12.700000
21
120.650000
0
LINE
8
Layer 1
10
12.700000
20
120.650000
11
158.750000
21
120.650000
0
LINE
8
Layer 1
10
158.750000
20
120.650000
11
158.750000
21
127.000000
0
LINE
8
Layer 1
10
158.750000
20
127.000000
11
152.400000
21
127.000000
0
LINE
8
Layer 1
10
152.400000
20
127.000000
11
152.400000
21
133.350000
0
LINE
8
Layer 1
10
152.400000
20
133.350000
11
158.750000
21
133.350000
0
LINE
8
Layer 1
10
158.750000
20
133.350000
11
158.750000
21
139.700000
0
LINE
8
Layer 1
10
158.750000
20
139.700000
11
88.900000
21
139.700000
0
LINE
8
Layer 1
10
88.900000
20
139.700000
11
88.900000
21
133.350000
0
LINE
8
Layer 1
10
88.900000
20
133.350000
11
76.200000
21
133.350000
0
LINE
8
Layer 1
10
76.200000
20
133.350000
11
76.200000
21
139.700000
0
LINE
8
Layer 1
10
76.200000
20
139.700000
11
12.700000
21
139.700000
0
LINE
8
Layer 1
10
38.100000
20
133.350000
11
63.500000
21
133.350000
0
LINE
8
Layer 1
10
63.500000
20
133.350000
11
63.500000
21
127.000000
0
LINE
8
Layer 1
10
63.500000
20
127.000000
11
38.100000
21
127.000000
0
LINE
8
Layer 1
10
38.100000
20
127.000000
11
38.100000
21
133.350000
0
LINE
8
Layer 1
10
101.600000
20
133.350000
11
127.000000
21
133.350000
0
LINE
8
Layer 1
10
127.000000
20
133.350000
11
127.000000
21
127.000000
0
LINE
8
Layer 1
10
127.000000
20
127.000000
11
101.600000
21
127.000000
0
LINE
8
Layer 1
10
101.600000
20
127.000000
11
101.600000
21
133.350000
0
LINE
8
Layer 1
10
311.149550
20
177.800000
11
317.499550
21
177.800000
0
LINE
8
Layer 1
10
317.499550
20
177.800000
11
317.499550
21
152.400000
0
LINE
8
Layer 1
10
317.499550
20
152.400000
11
330.199550
21
152.400000
0
LINE
8
Layer 1
10
330.199550
20
152.400000
11
330.199550
21
146.050000
0
LINE
8
Layer 1
10
330.199550
20
146.050000
11
349.249550
21
146.050000
0
LINE
8
Layer 1
10
349.249550
20
146.050000
11
349.249550
21
152.400000
0
LINE
8
Layer 1
10
349.249550
20
152.400000
11
377.824550
21
152.400000
0
LINE
8
Layer 1
10
377.824550
20
152.400000
11
377.824550
21
146.050000
0
LINE
8
Layer 1
10
377.824550
20
146.050000
11
396.874550
21
146.050000
0
LINE
8
Layer 1
10
396.874550
20
146.050000
11
396.874550
21
152.400000
0
LINE
8
Layer 1
10
396.874550
20
152.400000
11
409.574550
21
152.400000
0
LINE
8
Layer 1
10
409.574550
20
152.400000
11
409.574550
21
177.800000
0
LINE
8
Layer 1
10
409.574550
20
177.800000
11
415.924550
21
177.800000
0
LINE
8
Layer 1
10
415.924550
20
177.800000
11
415.924550
21
203.200000
0
LINE
8
Layer 1
10
415.924550
20
203.200000
11
409.574550
21
203.200000
0
LINE
8
Layer 1
10
409.574550
20
203.200000
11
409.574550
21
241.300000
0
LINE
8
Layer 1
10
409.574550
20
241.300000
11
415.924550
21
241.300000
0
LINE
8
Layer 1
10
415.924550
20
241.300000
11
415.924550
21
266.700000
0
LINE
8
Layer 1
10
415.924550
20
266.700000
11
409.574550
21
266.700000
0
LINE
8
Layer 1
10
409.574550
20
266.700000
11
409.574550
21
292.100000
0
LINE
8
Layer 1
10
409.574550
20
292.100000
11
396.874550
21
292.100000
0
LINE
8
Layer 1
10
396.874550
20
292.100000
11
396.874550
21
298.450000
0
LINE
8
Layer 1
10
396.874550
20
298.450000
11
377.824550
21
298.450000
0
LINE
8
Layer 1
10
377.824550
20
298.450000
11
377.824550
21
292.100000
0
LINE
8
Layer 1
10
377.824550
20
292.100000
11
349.249550
21
292.100000
0
LINE
8
Layer 1
10
349.249550
20
292.100000
11
349.249550
21
298.450000
0
LINE
8
Layer 1
10
349.249550
20
298.450000
11
330.199550
21
298.450000
0
LINE
8
Layer 1
10
330.199550
20
298.450000
11
330.199550
21
292.100000
0
LINE
8
Layer 1
10
330.199550
20
292.100000
11
317.499550
21
292.100000
0
LINE
8
Layer 1
10
317.499550
20
292.100000
11
317.499550
21
266.700000
0
LINE
8
Layer 1
10
317.499550
20
266.700000
11
311.149550
21
266.700000
0
LINE
8
Layer 1
10
311.149550
20
266.700000
11
311.149550
21
241.300000
0
LINE
8
Layer 1
10
311.149550
20
241.300000
11
317.499550
21
241.300000
0
LINE
8
Layer 1
10
317.499550
20
241.300000
11
317.499550
21
203.200000
0
LINE
8
Layer 1
10
317.499550
20
203.200000
11
311.149550
21
203.200000
0
LINE
8
Layer 1
10
311.149550
20
203.200000
11
311.149550
21
177.800000
0
LINE
8
Layer 1
10
387.349740
20
266.700010
11
388.245858
21
266.611349
0
LINE
8
Layer 1
10
388.245858
20
266.611349
11
389.099369
21
266.351987
0
LINE
8
Layer 1
10
389.099369
20
266.351987
11
389.886288
21
265.931860
0
LINE
8
Layer 1
10
389.886288
20
265.931860
11
390.582632
21
265.360902
0
LINE
8
Layer 1
10
390.582632
20
265.360902
11
391.153590
21
264.664558
0
LINE
8
Layer 1
10
391.153590
20
264.664558
11
391.573717
21
263.877639
0
LINE
8
Layer 1
10
391.573717
20
263.877639
11
391.833079
21
263.024128
0
LINE
8
Layer 1
10
391.833079
20
263.024128
11
391.921740
21
262.128010
0
LINE
8
Layer 1
10
391.921740
20
262.128010
11
391.833079
21
261.231892
0
LINE
8
Layer 1
10
391.833079
20
261.231892
11
391.573717
21
260.378381
0
LINE
8
Layer 1
10
391.573717
20
260.378381
11
391.153590
21
259.591462
0
LINE
8
Layer 1
10
391.153590
20
259.591462
11
390.582632
21
258.895118
0
LINE
8
Layer 1
10
390.582632
20
258.895118
11
389.886288
21
258.324160
0
LINE
8
Layer 1
10
389.886288
20
258.324160
11
389.099369
21
257.904033
0
LINE
8
Layer 1
10
389.099369
20
257.904033
11
388.245858
21
257.644671
0
LINE
8
Layer 1
10
388.245858
20
257.644671
11
387.349740
21
257.556010
0
LINE
8
Layer 1
10
387.349740
20
257.556010
11
386.453622
21
257.644671
0
LINE
8
Layer 1
10
386.453622
20
257.644671
11
385.600111
21
257.904033
0
LINE
8
Layer 1
10
385.600111
20
257.904033
11
384.813192
21
258.324160
0
LINE
8
Layer 1
10
384.813192
20
258.324160
11
384.116848
21
258.895118
0
LINE
8
Layer 1
10
384.116848
20
258.895118
11
383.545890
21
259.591462
0
LINE
8
Layer 1
10
383.545890
20
259.591462
11
383.125763
21
260.378381
0
LINE
8
Layer 1
10
383.125763
20
260.378381
11
382.866401
21
261.231892
0
LINE
8
Layer 1
10
382.866401
20
261.231892
11
382.777740
21
262.128010
0
LINE
8
Layer 1
10
382.777740
20
262.128010
11
382.866401
21
263.024128
0
LINE
8
Layer 1
10
382.866401
20
263.024128
11
383.125763
21
263.877639
0
LINE
8
Layer 1
10
383.125763
20
263.877639
11
383.545890
21
264.664558
0
LINE
8
Layer 1
10
383.545890
20
264.664558
11
384.116848
21
265.360902
0
LINE
8
Layer 1
10
384.116848
20
265.360902
11
384.813192
21
265.931860
0
LINE
8
Layer 1
10
384.813192
20
265.931860
11
385.600111
21
266.351987
0
LINE
8
Layer 1
10
385.600111
20
266.351987
11
386.453622
21
266.611349
0
LINE
8
Layer 1
10
386.453622
20
266.611349
11
387.349740
21
266.700010
0
LINE
8
Layer 1
10
387.349740
20
266.700010
11
387.349740
21
266.700010
0
LINE
8
Layer 1
10
387.349740
20
186.943997
11
388.245858
21
186.855336
0
LINE
8
Layer 1
10
388.245858
20
186.855336
11
389.099369
21
186.595974
0
LINE
8
Layer 1
10
389.099369
20
186.595974
11
389.886288
21
186.175847
0
LINE
8
Layer 1
10
389.886288
20
186.175847
11
390.582632
21
185.604889
0
LINE
8
Layer 1
10
390.582632
20
185.604889
11
391.153590
21
184.908545
0
LINE
8
Layer 1
10
391.153590
20
184.908545
11
391.573717
21
184.121626
0
LINE
8
Layer 1
10
391.573717
20
184.121626
11
391.833079
21
183.268115
0
LINE
8
Layer 1
10
391.833079
20
183.268115
11
391.921740
21
182.371997
0
LINE
8
Layer 1
10
391.921740
20
182.371997
11
391.833079
21
181.475879
0
LINE
8
Layer 1
10
391.833079
20
181.475879
11
391.573717
21
180.622368
0
LINE
8
Layer 1
10
391.573717
20
180.622368
11
391.153590
21
179.835449
0
LINE
8
Layer 1
10
391.153590
20
179.835449
11
390.582632
21
179.139105
0
LINE
8
Layer 1
10
390.582632
20
179.139105
11
389.886288
21
178.568147
0
LINE
8
Layer 1
10
389.886288
20
178.568147
11
389.099369
21
178.148020
0
LINE
8
Layer 1
10
389.099369
20
178.148020
11
388.245858
21
177.888658
0
LINE
8
Layer 1
10
388.245858
20
177.888658
11
387.349740
21
177.799997
0
LINE
8
Layer 1
10
387.349740
20
177.799997
11
386.453622
21
177.888658
0
LINE
8
Layer 1
10
386.453622
20
177.888658
11
385.600111
21
178.148020
0
LINE
8
Layer 1
10
385.600111
20
178.148020
11
384.813192
21
178.568147
0
LINE
8
Layer 1
10
384.813192
20
178.568147
11
384.116848
21
179.139105
0
LINE
8
Layer 1
10
384.116848
20
179.139105
11
383.545890
21
179.835449
0
LINE
8
Layer 1
10
383.545890
20
179.835449
11
383.125763
21
180.622368
0
LINE
8
Layer 1
10
383.125763
20
180.622368
11
382.866401
21
181.475879
0
LINE
8
Layer 1
10
382.866401
20
181.475879
11
382.777740
21
182.371997
0
LINE
8
Layer 1
10
382.777740
20
182.371997
11
382.866401
21
183.268115
0
LINE
8
Layer 1
10
382.866401
20
183.268115
11
383.125763
21
184.121626
0
LINE
8
Layer 1
10
383.125763
20
184.121626
11
383.545890
21
184.908545
0
LINE
8
Layer 1
10
383.545890
20
184.908545
11
384.116848
21
185.604889
0
LINE
8
Layer 1
10
384.116848
20
185.604889
11
384.813192
21
186.175847
0
LINE
8
Layer 1
10
384.813192
20
186.175847
11
385.600111
21
186.595974
0
LINE
8
Layer 1
10
385.600111
20
186.595974
11
386.453622
21
186.855336
0
LINE
8
Layer 1
10
386.453622
20
186.855336
11
387.349740
21
186.943997
0
LINE
8
Layer 1
10
387.349740
20
186.943997
11
387.349740
21
186.943997
0
LINE
8
Layer 1
10
339.724720
20
266.700000
11
338.828602
21
266.611339
0
LINE
8
Layer 1
10
338.828602
20
266.611339
11
337.975091
21
266.351977
0
LINE
8
Layer 1
10
337.975091
20
266.351977
11
337.188172
21
265.931850
0
LINE
8
Layer 1
10
337.188172
20
265.931850
11
336.491828
21
265.360892
0
LINE
8
Layer 1
10
336.491828
20
265.360892
11
335.920870
21
264.664548
0
LINE
8
Layer 1
10
335.920870
20
264.664548
11
335.500743
21
263.877629
0
LINE
8
Layer 1
10
335.500743
20
263.877629
11
335.241381
21
263.024118
0
LINE
8
Layer 1
10
335.241381
20
263.024118
11
335.152720
21
262.128000
0
LINE
8
Layer 1
10
335.152720
20
262.128000
11
335.241381
21
261.231882
0
LINE
8
Layer 1
10
335.241381
20
261.231882
11
335.500743
21
260.378371
0
LINE
8
Layer 1
10
335.500743
20
260.378371
11
335.920870
21
259.591452
0
LINE
8
Layer 1
10
335.920870
20
259.591452
11
336.491828
21
258.895108
0
LINE
8
Layer 1
10
336.491828
20
258.895108
11
337.188172
21
258.324150
0
LINE
8
Layer 1
10
337.188172
20
258.324150
11
337.975091
21
257.904023
0
LINE
8
Layer 1
10
337.975091
20
257.904023
11
338.828602
21
257.644661
0
LINE
8
Layer 1
10
338.828602
20
257.644661
11
339.724720
21
257.556000
0
LINE
8
Layer 1
10
339.724720
20
257.556000
11
340.620838
21
257.644661
0
LINE
8
Layer 1
10
340.620838
20
257.644661
11
341.474349
21
257.904023
0
LINE
8
Layer 1
10
341.474349
20
257.904023
11
342.261268
21
258.324150
0
LINE
8
Layer 1
10
342.261268
20
258.324150
11
342.957612
21
258.895108
0
LINE
8
Layer 1
10
342.957612
20
258.895108
11
343.528570
21
259.591452
0
LINE
8
Layer 1
10
343.528570
20
259.591452
11
343.948697
21
260.378371
0
LINE
8
Layer 1
10
343.948697
20
260.378371
11
344.208059
21
261.231882
0
LINE
8
Layer 1
10
344.208059
20
261.231882
11
344.296720
21
262.128000
0
LINE
8
Layer 1
10
344.296720
20
262.128000
11
344.208059
21
263.024118
0
LINE
8
Layer 1
10
344.208059
20
263.024118
11
343.948697
21
263.877629
0
LINE
8
Layer 1
10
343.948697
20
263.877629
11
343.528570
21
264.664548
0
LINE
8
Layer 1
10
343.528570
20
264.664548
11
342.957612
21
265.360892
0
LINE
8
Layer 1
10
342.957612
20
265.360892
11
342.261268
21
265.931850
0
LINE
8
Layer 1
10
342.261268
20
265.931850
11
341.474349
21
266.351977
0
LINE
8
Layer 1
10
341.474349
20
266.351977
11
340.620838
21
266.611339
0
LINE
8
Layer 1
10
340.620838
20
266.611339
11
339.724720
21
266.700000
0
LINE
8
Layer 1
10
339.724720
20
266.700000
11
339.724720
21
266.700000
0
LINE
8
Layer 1
10
339.724720
20
186.943998
11
338.828602
21
186.855337
0
LINE
8
Layer 1
10
338.828602
20
186.855337
11
337.975091
21
186.595975
0
LINE
8
Layer 1
10
337.975091
20
186.595975
11
337.188172
21
186.175848
0
LINE
8
Layer 1
10
337.188172
20
186.175848
11
336.491828
21
185.604890
0
LINE
8
Layer 1
10
336.491828
20
185.604890
11
335.920870
21
184.908546
0
LINE
8
Layer 1
10
335.920870
20
184.908546
11
335.500743
21
184.121627
0
LINE
8
Layer 1
10
335.500743
20
184.121627
11
335.241381
21
183.268116
0
LINE
8
Layer 1
10
335.241381
20
183.268116
11
335.152720
21
182.371998
0
LINE
8
Layer 1
10
335.152720
20
182.371998
11
335.241381
21
181.475880
0
LINE
8
Layer 1
10
335.241381
20
181.475880
11
335.500742
21
180.622369
0
LINE
8
Layer 1
10
335.500742
20
180.622369
11
335.920869
21
179.835450
0
LINE
8
Layer 1
10
335.920869
20
179.835450
11
336.491827
21
179.139105
0
LINE
8
Layer 1
10
336.491827
20
179.139105
11
337.188172
21
178.568147
0
LINE
8
Layer 1
10
337.188172
20
178.568147
11
337.975091
21
178.148020
0
LINE
8
Layer 1
10
337.975091
20
178.148020
11
338.828602
21
177.888658
0
LINE
8
Layer 1
10
338.828602
20
177.888658
11
339.724720
21
177.799997
0
LINE
8
Layer 1
10
339.724720
20
177.799997
11
340.620838
21
177.888658
0
LINE
8
Layer 1
10
340.620838
20
177.888658
11
341.474349
21
178.148020
0
LINE
8
Layer 1
10
341.474349
20
178.148020
11
342.261268
21
178.568147
0
LINE
8
Layer 1
10
342.261268
20
178.568147
11
342.957613
21
179.139105
0
LINE
8
Layer 1
10
342.957613
20
179.139105
11
343.528571
21
179.835450
0
LINE
8
Layer 1
10
343.528571
20
179.835450
11
343.948698
21
180.622369
0
LINE
8
Layer 1
10
343.948698
20
180.622369
11
344.208059
21
181.475880
0
LINE
8
Layer 1
10
344.208059
20
181.475880
11
344.296720
21
182.371998
0
LINE
8
Layer 1
10
344.296720
20
182.371998
11
344.208059
21
183.268116
0
LINE
8
Layer 1
10
344.208059
20
183.268116
11
343.948697
21
184.121627
0
LINE
8
Layer 1
10
343.948697
20
184.121627
11
343.528570
21
184.908546
0
LINE
8
Layer 1
10
343.528570
20
184.908546
11
342.957612
21
185.604890
0
LINE
8
Layer 1
10
342.957612
20
185.604890
11
342.261268
21
186.175848
0
LINE
8
Layer 1
10
342.261268
20
186.175848
11
341.474349
21
186.595975
0
LINE
8
Layer 1
10
341.474349
20
186.595975
11
340.620838
21
186.855337
0
LINE
8
Layer 1
10
340.620838
20
186.855337
11
339.724720
21
186.943998
0
LINE
8
Layer 1
10
339.724720
20
186.943998
11
339.724720
21
186.943998
0
LINE
8
Layer 1
10
482.600000
20
120.650450
11
482.600000
21
114.300450
0
LINE
8
Layer 1
10
482.600000
20
114.300450
11
457.200000
21
114.300450
0
LINE
8
Layer 1
10
457.200000
20
114.300450
11
457.200000
21
101.600450
0
LINE
8
Layer 1
10
457.200000
20
101.600450
11
450.850000
21
101.600450
0
LINE
8
Layer 1
10
450.850000
20
101.600450
11
450.850000
21
82.550450
0
LINE
8
Layer 1
10
450.850000
20
82.550450
11
457.200000
21
82.550450
0
LINE
8
Layer 1
10
457.200000
20
82.550450
11
457.200000
21
53.975450
0
LINE
8
Layer 1
10
457.200000
20
53.975450
11
450.850000
21
53.975450
0
LINE
8
Layer 1
10
450.850000
20
53.975450
11
450.850000
21
34.925450
0
LINE
8
Layer 1
10
450.850000
20
34.925450
11
457.200000
21
34.925450
0
LINE
8
Layer 1
10
457.200000
20
34.925450
11
457.200000
21
22.225450
0
LINE
8
Layer 1
10
457.200000
20
22.225450
11
482.600000
21
22.225450
0
LINE
8
Layer 1
10
482.600000
20
22.225450
11
482.600000
21
15.875450
0
LINE
8
Layer 1
10
482.600000
20
15.875450
11
508.000000
21
15.875450
0
LINE
8
Layer 1
10
508.000000
20
15.875450
11
508.000000
21
22.225450
0
LINE
8
Layer 1
10
508.000000
20
22.225450
11
546.100000
21
22.225450
0
LINE
8
Layer 1
10
546.100000
20
22.225450
11
546.100000
21
15.875450
0
LINE
8
Layer 1
10
546.100000
20
15.875450
11
571.500000
21
15.875450
0
LINE
8
Layer 1
10
571.500000
20
15.875450
11
571.500000
21
22.225450
0
LINE
8
Layer 1
10
571.500000
20
22.225450
11
596.900000
21
22.225450
0
LINE
8
Layer 1
10
596.900000
20
22.225450
11
596.900000
21
34.925450
0
LINE
8
Layer 1
10
596.900000
20
34.925450
11
603.250000
21
34.925450
0
LINE
8
Layer 1
10
603.250000
20
34.925450
11
603.250000
21
53.975450
0
LINE
8
Layer 1
10
603.250000
20
53.975450
11
596.900000
21
53.975450
0
LINE
8
Layer 1
10
596.900000
20
53.975450
11
596.900000
21
82.550450
0
LINE
8
Layer 1
10
596.900000
20
82.550450
11
603.250000
21
82.550450
0
LINE
8
Layer 1
10
603.250000
20
82.550450
11
603.250000
21
101.600450
0
LINE
8
Layer 1
10
603.250000
20
101.600450
11
596.900000
21
101.600450
0
LINE
8
Layer 1
10
596.900000
20
101.600450
11
596.900000
21
114.300450
0
LINE
8
Layer 1
10
596.900000
20
114.300450
11
571.500000
21
114.300450
0
LINE
8
Layer 1
10
571.500000
20
114.300450
11
571.500000
21
120.650450
0
LINE
8
Layer 1
10
571.500000
20
120.650450
11
546.100000
21
120.650450
0
LINE
8
Layer 1
10
546.100000
20
120.650450
11
546.100000
21
114.300450
0
LINE
8
Layer 1
10
546.100000
20
114.300450
11
508.000000
21
114.300450
0
LINE
8
Layer 1
10
508.000000
20
114.300450
11
508.000000
21
120.650450
0
LINE
8
Layer 1
10
508.000000
20
120.650450
11
482.600000
21
120.650450
0
LINE
8
Layer 1
10
571.500010
20
44.450260
11
571.411349
21
43.554142
0
LINE
8
Layer 1
10
571.411349
20
43.554142
11
571.151987
21
42.700631
0
LINE
8
Layer 1
10
571.151987
20
42.700631
11
570.731860
21
41.913712
0
LINE
8
Layer 1
10
570.731860
20
41.913712
11
570.160902
21
41.217368
0
LINE
8
Layer 1
10
570.160902
20
41.217368
11
569.464558
21
40.646410
0
LINE
8
Layer 1
10
569.464558
20
40.646410
11
568.677639
21
40.226283
0
LINE
8
Layer 1
10
568.677639
20
40.226283
11
567.824128
21
39.966921
0
LINE
8
Layer 1
10
567.824128
20
39.966921
11
566.928010
21
39.878260
0
LINE
8
Layer 1
10
566.928010
20
39.878260
11
566.031892
21
39.966921
0
LINE
8
Layer 1
10
566.031892
20
39.966921
11
565.178381
21
40.226283
0
LINE
8
Layer 1
10
565.178381
20
40.226283
11
564.391462
21
40.646410
0
LINE
8
Layer 1
10
564.391462
20
40.646410
11
563.695118
21
41.217368
0
LINE
8
Layer 1
10
563.695118
20
41.217368
11
563.124160
21
41.913712
0
LINE
8
Layer 1
10
563.124160
20
41.913712
11
562.704033
21
42.700631
0
LINE
8
Layer 1
10
562.704033
20
42.700631
11
562.444671
21
43.554142
0
LINE
8
Layer 1
10
562.444671
20
43.554142
11
562.356010
21
44.450260
0
LINE
8
Layer 1
10
562.356010
20
44.450260
11
562.444671
21
45.346378
0
LINE
8
Layer 1
10
562.444671
20
45.346378
11
562.704033
21
46.199889
0
LINE
8
Layer 1
10
562.704033
20
46.199889
11
563.124160
21
46.986808
0
LINE
8
Layer 1
10
563.124160
20
46.986808
11
563.695118
21
47.683152
0
LINE
8
Layer 1
10
563.695118
20
47.683152
11
564.391462
21
48.254110
0
LINE
8
Layer 1
10
564.391462
20
48.254110
11
565.178381
21
48.674237
0
LINE
8
Layer 1
10
565.178381
20
48.674237
11
566.031892
21
48.933599
0
LINE
8
Layer 1
10
566.031892
20
48.933599
11
566.928010
21
49.022260
0
LINE
8
Layer 1
10
566.928010
20
49.022260
11
567.824128
21
48.933599
0
LINE
8
Layer 1
10
567.824128
20
48.933599
11
568.677639
21
48.674237
0
LINE
8
Layer 1
10
568.677639
20
48.674237
11
569.464558
21
48.254110
0
LINE
8
Layer 1
10
569.464558
20
48.254110
11
570.160902
21
47.683152
0
LINE
8
Layer 1
10
570.160902
20
47.683152
11
570.731860
21
46.986808
0
LINE
8
Layer 1
10
570.731860
20
46.986808
11
571.151987
21
46.199889
0
LINE
8
Layer 1
10
571.151987
20
46.199889
11
571.411349
21
45.346378
0
LINE
8
Layer 1
10
571.411349
20
45.346378
11
571.500010
21
44.450260
0
LINE
8
Layer 1
10
571.500010
20
44.450260
11
571.500010
21
44.450260
0
LINE
8
Layer 1
10
491.743997
20
44.450260
11
491.655336
21
43.554142
0
LINE
8
Layer 1
10
491.655336
20
43.554142
11
491.395974
21
42.700631
0
LINE
8
Layer 1
10
491.395974
20
42.700631
11
490.975847
21
41.913712
0
LINE
8
Layer 1
10
490.975847
20
41.913712
11
490.404889
21
41.217368
0
LINE
8
Layer 1
10
490.404889
20
41.217368
11
489.708545
21
40.646410
0
LINE
8
Layer 1
10
489.708545
20
40.646410
11
488.921626
21
40.226283
0
LINE
8
Layer 1
10
488.921626
20
40.226283
11
488.068115
21
39.966921
0
LINE
8
Layer 1
10
488.068115
20
39.966921
11
487.171997
21
39.878260
0
LINE
8
Layer 1
10
487.171997
20
39.878260
11
486.275879
21
39.966921
0
LINE
8
Layer 1
10
486.275879
20
39.966921
11
485.422368
21
40.226283
0
LINE
8
Layer 1
10
485.422368
20
40.226283
11
484.635449
21
40.646410
0
LINE
8
Layer 1
10
484.635449
20
40.646410
11
483.939105
21
41.217368
0
LINE
8
Layer 1
10
483.939105
20
41.217368
11
483.368147
21
41.913712
0
LINE
8
Layer 1
10
483.368147
20
41.913712
11
482.948020
21
42.700631
0
LINE
8
Layer 1
10
482.948020
20
42.700631
11
482.688658
21
43.554142
0
LINE
8
Layer 1
10
482.688658
20
43.554142
11
482.599997
21
44.450260
0
LINE
8
Layer 1
10
482.599997
20
44.450260
11
482.688658
21
45.346378
0
LINE
8
Layer 1
10
482.688658
20
45.346378
11
482.948020
21
46.199889
0
LINE
8
Layer 1
10
482.948020
20
46.199889
11
483.368147
21
46.986808
0
LINE
8
Layer 1
10
483.368147
20
46.986808
11
483.939105
21
47.683152
0
LINE
8
Layer 1
10
483.939105
20
47.683152
11
484.635449
21
48.254110
0
LINE
8
Layer 1
10
484.635449
20
48.254110
11
485.422368
21
48.674237
0
LINE
8
Layer 1
10
485.422368
20
48.674237
11
486.275879
21
48.933599
0
LINE
8
Layer 1
10
486.275879
20
48.933599
11
487.171997
21
49.022260
0
LINE
8
Layer 1
10
487.171997
20
49.022260
11
488.068115
21
48.933599
0
LINE
8
Layer 1
10
488.068115
20
48.933599
11
488.921626
21
48.674237
0
LINE
8
Layer 1
10
488.921626
20
48.674237
11
489.708545
21
48.254110
0
LINE
8
Layer 1
10
489.708545
20
48.254110
11
490.404889
21
47.683152
0
LINE
8
Layer 1
10
490.404889
20
47.683152
11
490.975847
21
46.986808
0
LINE
8
Layer 1
10
490.975847
20
46.986808
11
491.395974
21
46.199889
0
LINE
8
Layer 1
10
491.395974
20
46.199889
11
491.655336
21
45.346378
0
LINE
8
Layer 1
10
491.655336
20
45.346378
11
491.743997
21
44.450260
0
LINE
8
Layer 1
10
491.743997
20
44.450260
11
491.743997
21
44.450260
0
LINE
8
Layer 1
10
571.500000
20
92.075280
11
571.411339
21
92.971398
0
LINE
8
Layer 1
10
571.411339
20
92.971398
11
571.151977
21
93.824909
0
LINE
8
Layer 1
10
571.151977
20
93.824909
11
570.731850
21
94.611828
0
LINE
8
Layer 1
10
570.731850
20
94.611828
11
570.160892
21
95.308172
0
LINE
8
Layer 1
10
570.160892
20
95.308172
11
569.464548
21
95.879130
0
LINE
8
Layer 1
10
569.464548
20
95.879130
11
568.677629
21
96.299257
0
LINE
8
Layer 1
10
568.677629
20
96.299257
11
567.824118
21
96.558619
0
LINE
8
Layer 1
10
567.824118
20
96.558619
11
566.928000
21
96.647280
0
LINE
8
Layer 1
10
566.928000
20
96.647280
11
566.031882
21
96.558619
0
LINE
8
Layer 1
10
566.031882
20
96.558619
11
565.178371
21
96.299257
0
LINE
8
Layer 1
10
565.178371
20
96.299257
11
564.391452
21
95.879130
0
LINE
8
Layer 1
10
564.391452
20
95.879130
11
563.695108
21
95.308172
0
LINE
8
Layer 1
10
563.695108
20
95.308172
11
563.124150
21
94.611828
0
LINE
8
Layer 1
10
563.124150
20
94.611828
11
562.704023
21
93.824909
0
LINE
8
Layer 1
10
562.704023
20
93.824909
11
562.444661
21
92.971398
0
LINE
8
Layer 1
10
562.444661
20
92.971398
11
562.356000
21
92.075280
0
LINE
8
Layer 1
10
562.356000
20
92.075280
11
562.444661
21
91.179162
0
LINE
8
Layer 1
10
562.444661
20
91.179162
11
562.704023
21
90.325651
0
LINE
8
Layer 1
10
562.704023
20
90.325651
11
563.124150
21
89.538732
0
LINE
8
Layer 1
10
563.124150
20
89.538732
11
563.695108
21
88.842388
0
LINE
8
Layer 1
10
563.695108
20
88.842388
11
564.391452
21
88.271430
0
LINE
8
Layer 1
10
564.391452
20
88.271430
11
565.178371
21
87.851303
0
LINE
8
Layer 1
10
565.178371
20
87.851303
11
566.031882
21
87.591941
0
LINE
8
Layer 1
10
566.031882
20
87.591941
11
566.928000
21
87.503280
0
LINE
8
Layer 1
10
566.928000
20
87.503280
11
567.824118
21
87.591941
0
LINE
8
Layer 1
10
567.824118
20
87.591941
11
568.677629
21
87.851303
0
LINE
8
Layer 1
10
568.677629
20
87.851303
11
569.464548
21
88.271430
0
LINE
8
Layer 1
10
569.464548
20
88.271430
11
570.160892
21
88.842388
0
LINE
8
Layer 1
10
570.160892
20
88.842388
11
570.731850
21
89.538732
0
LINE
8
Layer 1
10
570.731850
20
89.538732
11
571.151977
21
90.325651
0
LINE
8
Layer 1
10
571.151977
20
90.325651
11
571.411339
21
91.179162
0
LINE
8
Layer 1
10
571.411339
20
91.179162
11
571.500000
21
92.075280
0
LINE
8
Layer 1
10
571.500000
20
92.075280
11
571.500000
21
92.075280
0
LINE
8
Layer 1
10
491.743998
20
92.075280
11
491.655337
21
92.971398
0
LINE
8
Layer 1
10
491.655337
20
92.971398
11
491.395975
21
93.824909
0
LINE
8
Layer 1
10
491.395975
20
93.824909
11
490.975848
21
94.611828
0
LINE
8
Layer 1
10
490.975848
20
94.611828
11
490.404890
21
95.308172
0
LINE
8
Layer 1
10
490.404890
20
95.308172
11
489.708546
21
95.879130
0
LINE
8
Layer 1
10
489.708546
20
95.879130
11
488.921627
21
96.299257
0
LINE
8
Layer 1
10
488.921627
20
96.299257
11
488.068116
21
96.558619
0
LINE
8
Layer 1
10
488.068116
20
96.558619
11
487.171998
21
96.647280
0
LINE
8
Layer 1
10
487.171998
20
96.647280
11
486.275880
21
96.558619
0
LINE
8
Layer 1
10
486.275880
20
96.558619
11
485.422369
21
96.299258
0
LINE
8
Layer 1
10
485.422369
20
96.299258
11
484.635450
21
95.879131
0
LINE
8
Layer 1
10
484.635450
20
95.879131
11
483.939105
21
95.308173
0
LINE
8
Layer 1
10
483.939105
20
95.308173
11
483.368147
21
94.611828
0
LINE
8
Layer 1
10
483.368147
20
94.611828
11
482.948020
21
93.824909
0
LINE
8
Layer 1
10
482.948020
20
93.824909
11
482.688658
21
92.971398
0
LINE
8
Layer 1
10
482.688658
20
92.971398
11
482.599997
21
92.075280
0
LINE
8
Layer 1
10
482.599997
20
92.075280
11
482.688658
21
91.179162
0
LINE
8
Layer 1
10
482.688658
20
91.179162
11
482.948020
21
90.325651
0
LINE
8
Layer 1
10
482.948020
20
90.325651
11
483.368147
21
89.538732
0
LINE
8
Layer 1
10
483.368147
20
89.538732
11
483.939105
21
88.842387
0
LINE
8
Layer 1
10
483.939105
20
88.842387
11
484.635450
21
88.271429
0
LINE
8
Layer 1
10
484.635450
20
88.271429
11
485.422369
21
87.851302
0
LINE
8
Layer 1
10
485.422369
20
87.851302
11
486.275880
21
87.591941
0
LINE
8
Layer 1
10
486.275880
20
87.591941
11
487.171998
21
87.503280
0
LINE
8
Layer 1
10
487.171998
20
87.503280
11
488.068116
21
87.591941
0
LINE
8
Layer 1
10
488.068116
20
87.591941
11
488.921627
21
87.851303
0
LINE
8
Layer 1
10
488.921627
20
87.851303
11
489.708546
21
88.271430
0
LINE
8
Layer 1
10
489.708546
20
88.271430
11
490.404890
21
88.842388
0
LINE
8
Layer 1
10
490.404890
20
88.842388
11
490.975848
21
89.538732
0
LINE
8
Layer 1
10
490.975848
20
89.538732
11
491.395975
21
90.325651
0
LINE
8
Layer 1
10
491.395975
20
90.325651
11
491.655337
21
91.179162
0
LINE
8
Layer 1
10
491.655337
20
91.179162
11
491.743998
21
92.075280
0
LINE
8
Layer 1
10
491.743998
20
92.075280
11
491.743998
21
92.075280
0
LINE
8
Layer 1
10
38.099996
20
120.650450
11
38.099996
21
114.300450
0
LINE
8
Layer 1
10
38.099996
20
114.300450
11
12.699996
21
114.300450
0
LINE
8
Layer 1
10
12.699996
20
114.300450
11
12.699996
21
101.600450
0
LINE
8
Layer 1
10
12.699996
20
101.600450
11
6.349996
21
101.600450
0
LINE
8
Layer 1
10
6.349996
20
101.600450
11
6.349996
21
82.550450
0
LINE
8
Layer 1
10
6.349996
20
82.550450
11
12.699996
21
82.550450
0
LINE
8
Layer 1
10
12.699996
20
82.550450
11
12.699996
21
53.975450
0
LINE
8
Layer 1
10
12.699996
20
53.975450
11
6.349996
21
53.975450
0
LINE
8
Layer 1
10
6.349996
20
53.975450
11
6.349996
21
34.925450
0
LINE
8
Layer 1
10
6.349996
20
34.925450
11
12.699996
21
34.925450
0
LINE
8
Layer 1
10
12.699996
20
34.925450
11
12.699996
21
22.225450
0
LINE
8
Layer 1
10
12.699996
20
22.225450
11
38.099996
21
22.225450
0
LINE
8
Layer 1
10
38.099996
20
22.225450
11
38.099996
21
15.875450
0
LINE
8
Layer 1
10
38.099996
20
15.875450
11
63.499996
21
15.875450
0
LINE
8
Layer 1
10
63.499996
20
15.875450
11
63.499996
21
22.225450
0
LINE
8
Layer 1
10
63.499996
20
22.225450
11
101.599996
21
22.225450
0
LINE
8
Layer 1
10
101.599996
20
22.225450
11
101.599996
21
15.875450
0
LINE
8
Layer 1
10
101.599996
20
15.875450
11
126.999996
21
15.875450
0
LINE
8
Layer 1
10
126.999996
20
15.875450
11
126.999996
21
22.225450
0
LINE
8
Layer 1
10
126.999996
20
22.225450
11
152.399996
21
22.225450
0
LINE
8
Layer 1
10
152.399996
20
22.225450
11
152.399996
21
34.925450
0
LINE
8
Layer 1
10
152.399996
20
34.925450
11
158.749996
21
34.925450
0
LINE
8
Layer 1
10
158.749996
20
34.925450
11
158.749996
21
53.975450
0
LINE
8
Layer 1
10
158.749996
20
53.975450
11
152.399996
21
53.975450
0
LINE
8
Layer 1
10
152.399996
20
53.975450
11
152.399996
21
82.550450
0
LINE
8
Layer 1
10
152.399996
20
82.550450
11
158.749996
21
82.550450
0
LINE
8
Layer 1
10
158.749996
20
82.550450
11
158.749996
21
101.600450
0
LINE
8
Layer 1
10
158.749996
20
101.600450
11
152.399996
21
101.600450
0
LINE
8
Layer 1
10
152.399996
20
101.600450
11
152.399996
21
114.300450
0
LINE
8
Layer 1
10
152.399996
20
114.300450
11
126.999996
21
114.300450
0
LINE
8
Layer 1
10
126.999996
20
114.300450
11
126.999996
21
120.650450
0
LINE
8
Layer 1
10
126.999996
20
120.650450
11
101.599996
21
120.650450
0
LINE
8
Layer 1
10
101.599996
20
120.650450
11
101.599996
21
114.300450
0
LINE
8
Layer 1
10
101.599996
20
114.300450
11
63.499996
21
114.300450
0
LINE
8
Layer 1
10
63.499996
20
114.300450
11
63.499996
21
120.650450
0
LINE
8
Layer 1
10
63.499996
20
120.650450
11
38.099996
21
120.650450
0
LINE
8
Layer 1
10
127.000006
20
44.450260
11
126.911345
21
43.554142
0
LINE
8
Layer 1
10
126.911345
20
43.554142
11
126.651984
21
42.700631
0
LINE
8
Layer 1
10
126.651984
20
42.700631
11
126.231857
21
41.913712
0
LINE
8
Layer 1
10
126.231857
20
41.913712
11
125.660899
21
41.217368
0
LINE
8
Layer 1
10
125.660899
20
41.217368
11
124.964554
21
40.646410
0
LINE
8
Layer 1
10
124.964554
20
40.646410
11
124.177635
21
40.226283
0
LINE
8
Layer 1
10
124.177635
20
40.226283
11
123.324125
21
39.966921
0
LINE
8
Layer 1
10
123.324125
20
39.966921
11
122.428006
21
39.878260
0
LINE
8
Layer 1
10
122.428006
20
39.878260
11
121.531888
21
39.966921
0
LINE
8
Layer 1
10
121.531888
20
39.966921
11
120.678378
21
40.226283
0
LINE
8
Layer 1
10
120.678378
20
40.226283
11
119.891459
21
40.646410
0
LINE
8
Layer 1
10
119.891459
20
40.646410
11
119.195114
21
41.217368
0
LINE
8
Layer 1
10
119.195114
20
41.217368
11
118.624156
21
41.913712
0
LINE
8
Layer 1
10
118.624156
20
41.913712
11
118.204029
21
42.700631
0
LINE
8
Layer 1
10
118.204029
20
42.700631
11
117.944668
21
43.554142
0
LINE
8
Layer 1
10
117.944668
20
43.554142
11
117.856006
21
44.450260
0
LINE
8
Layer 1
10
117.856006
20
44.450260
11
117.948893
21
45.371677
0
LINE
8
Layer 1
10
117.948893
20
45.371677
11
118.215297
21
46.229889
0
LINE
8
Layer 1
10
118.215297
20
46.229889
11
118.636832
21
47.006509
0
LINE
8
Layer 1
10
118.636832
20
47.006509
11
119.195114
21
47.683152
0
LINE
8
Layer 1
10
119.195114
20
47.683152
11
119.871758
21
48.241434
0
LINE
8
Layer 1
10
119.871758
20
48.241434
11
120.648378
21
48.662970
0
LINE
8
Layer 1
10
120.648378
20
48.662970
11
121.506589
21
48.929373
0
LINE
8
Layer 1
10
121.506589
20
48.929373
11
122.428006
21
49.022260
0
LINE
8
Layer 1
10
122.428006
20
49.022260
11
123.324125
21
48.933599
0
LINE
8
Layer 1
10
123.324125
20
48.933599
11
124.177635
21
48.674237
0
LINE
8
Layer 1
10
124.177635
20
48.674237
11
124.964554
21
48.254110
0
LINE
8
Layer 1
10
124.964554
20
48.254110
11
125.660899
21
47.683152
0
LINE
8
Layer 1
10
125.660899
20
47.683152
11
126.231857
21
46.986808
0
LINE
8
Layer 1
10
126.231857
20
46.986808
11
126.651984
21
46.199889
0
LINE
8
Layer 1
10
126.651984
20
46.199889
11
126.911345
21
45.346378
0
LINE
8
Layer 1
10
126.911345
20
45.346378
11
127.000006
21
44.450260
0
LINE
8
Layer 1
10
127.000006
20
44.450260
11
127.000006
21
44.450260
0
LINE
8
Layer 1
10
47.243993
20
44.450260
11
47.155332
21
43.554142
0
LINE
8
Layer 1
10
47.155332
20
43.554142
11
46.895971
21
42.700631
0
LINE
8
Layer 1
10
46.895971
20
42.700631
11
46.475844
21
41.913712
0
LINE
8
Layer 1
10
46.475844
20
41.913712
11
45.904886
21
41.217368
0
LINE
8
Layer 1
10
45.904886
20
41.217368
11
45.208541
21
40.646410
0
LINE
8
Layer 1
10
45.208541
20
40.646410
11
44.421622
21
40.226283
0
LINE
8
Layer 1
10
44.421622
20
40.226283
11
43.568112
21
39.966921
0
LINE
8
Layer 1
10
43.568112
20
39.966921
11
42.671993
21
39.878260
0
LINE
8
Layer 1
10
42.671993
20
39.878260
11
41.775875
21
39.966921
0
LINE
8
Layer 1
10
41.775875
20
39.966921
11
40.922365
21
40.226283
0
LINE
8
Layer 1
10
40.922365
20
40.226283
11
40.135446
21
40.646410
0
LINE
8
Layer 1
10
40.135446
20
40.646410
11
39.439101
21
41.217368
0
LINE
8
Layer 1
10
39.439101
20
41.217368
11
38.868143
21
41.913712
0
LINE
8
Layer 1
10
38.868143
20
41.913712
11
38.448016
21
42.700631
0
LINE
8
Layer 1
10
38.448016
20
42.700631
11
38.188655
21
43.554142
0
LINE
8
Layer 1
10
38.188655
20
43.554142
11
38.099993
21
44.450260
0
LINE
8
Layer 1
10
38.099993
20
44.450260
11
38.188655
21
45.346378
0
LINE
8
Layer 1
10
38.188655
20
45.346378
11
38.448016
21
46.199889
0
LINE
8
Layer 1
10
38.448016
20
46.199889
11
38.868143
21
46.986808
0
LINE
8
Layer 1
10
38.868143
20
46.986808
11
39.439101
21
47.683152
0
LINE
8
Layer 1
10
39.439101
20
47.683152
11
40.135446
21
48.254110
0
LINE
8
Layer 1
10
40.135446
20
48.254110
11
40.922365
21
48.674237
0
LINE
8
Layer 1
10
40.922365
20
48.674237
11
41.775875
21
48.933599
0
LINE
8
Layer 1
10
41.775875
20
48.933599
11
42.671993
21
49.022260
0
LINE
8
Layer 1
10
42.671993
20
49.022260
11
43.568112
21
48.933599
0
LINE
8
Layer 1
10
43.568112
20
48.933599
11
44.421622
21
48.674237
0
LINE
8
Layer 1
10
44.421622
20
48.674237
11
45.208541
21
48.254110
0
LINE
8
Layer 1
10
45.208541
20
48.254110
11
45.904886
21
47.683152
0
LINE
8
Layer 1
10
45.904886
20
47.683152
11
46.475844
21
46.986808
0
LINE
8
Layer 1
10
46.475844
20
46.986808
11
46.895971
21
46.199889
0
LINE
8
Layer 1
10
46.895971
20
46.199889
11
47.155332
21
45.346378
0
LINE
8
Layer 1
10
47.155332
20
45.346378
11
47.243993
21
44.450260
0
LINE
8
Layer 1
10
47.243993
20
44.450260
11
47.243993
21
44.450260
0
LINE
8
Layer 1
10
126.999996
20
92.075280
11
126.911335
21
92.971398
0
LINE
8
Layer 1
10
126.911335
20
92.971398
11
126.651974
21
93.824909
0
LINE
8
Layer 1
10
126.651974
20
93.824909
11
126.231847
21
94.611828
0
LINE
8
Layer 1
10
126.231847
20
94.611828
11
125.660889
21
95.308172
0
LINE
8
Layer 1
10
125.660889
20
95.308172
11
124.964544
21
95.879130
0
LINE
8
Layer 1
10
124.964544
20
95.879130
11
124.177625
21
96.299257
0
LINE
8
Layer 1
10
124.177625
20
96.299257
11
123.324115
21
96.558619
0
LINE
8
Layer 1
10
123.324115
20
96.558619
11
122.427996
21
96.647280
0
LINE
8
Layer 1
10
122.427996
20
96.647280
11
121.531878
21
96.558619
0
LINE
8
Layer 1
10
121.531878
20
96.558619
11
120.678368
21
96.299257
0
LINE
8
Layer 1
10
120.678368
20
96.299257
11
119.891449
21
95.879130
0
LINE
8
Layer 1
10
119.891449
20
95.879130
11
119.195104
21
95.308172
0
LINE
8
Layer 1
10
119.195104
20
95.308172
11
118.624146
21
94.611828
0
LINE
8
Layer 1
10
118.624146
20
94.611828
11
118.204019
21
93.824909
0
LINE
8
Layer 1
10
118.204019
20
93.824909
11
117.944658
21
92.971398
0
LINE
8
Layer 1
10
117.944658
20
92.971398
11
117.855996
21
92.075280
0
LINE
8
Layer 1
10
117.855996
20
92.075280
11
117.944658
21
91.179162
0
LINE
8
Layer 1
10
117.944658
20
91.179162
11
118.204019
21
90.325651
0
LINE
8
Layer 1
10
118.204019
20
90.325651
11
118.624146
21
89.538732
0
LINE
8
Layer 1
10
118.624146
20
89.538732
11
119.195104
21
88.842388
0
LINE
8
Layer 1
10
119.195104
20
88.842388
11
119.891449
21
88.271430
0
LINE
8
Layer 1
10
119.891449
20
88.271430
11
120.678368
21
87.851303
0
LINE
8
Layer 1
10
120.678368
20
87.851303
11
121.531878
21
87.591941
0
LINE
8
Layer 1
10
121.531878
20
87.591941
11
122.427996
21
87.503280
0
LINE
8
Layer 1
10
122.427996
20
87.503280
11
123.324115
21
87.591941
0
LINE
8
Layer 1
10
123.324115
20
87.591941
11
124.177625
21
87.851303
0
LINE
8
Layer 1
10
124.177625
20
87.851303
11
124.964544
21
88.271430
0
LINE
8
Layer 1
10
124.964544
20
88.271430
11
125.660889
21
88.842388
0
LINE
8
Layer 1
10
125.660889
20
88.842388
11
126.231847
21
89.538732
0
LINE
8
Layer 1
10
126.231847
20
89.538732
11
126.651974
21
90.325651
0
LINE
8
Layer 1
10
126.651974
20
90.325651
11
126.911335
21
91.179162
0
LINE
8
Layer 1
10
126.911335
20
91.179162
11
126.999996
21
92.075280
0
LINE
8
Layer 1
10
126.999996
20
92.075280
11
126.999996
21
92.075280
0
LINE
8
Layer 1
10
47.243994
20
92.075280
11
47.155333
21
92.971398
0
LINE
8
Layer 1
10
47.155333
20
92.971398
11
46.895972
21
93.824909
0
LINE
8
Layer 1
10
46.895972
20
93.824909
11
46.475845
21
94.611828
0
LINE
8
Layer 1
10
46.475845
20
94.611828
11
45.904887
21
95.308172
0
LINE
8
Layer 1
10
45.904887
20
95.308172
11
45.208542
21
95.879130
0
LINE
8
Layer 1
10
45.208542
20
95.879130
11
44.421623
21
96.299257
0
LINE
8
Layer 1
10
44.421623
20
96.299257
11
43.568113
21
96.558619
0
LINE
8
Layer 1
10
43.568113
20
96.558619
11
42.671994
21
96.647280
0
LINE
8
Layer 1
10
42.671994
20
96.647280
11
41.775876
21
96.558619
0
LINE
8
Layer 1
10
41.775876
20
96.558619
11
40.922366
21
96.299258
0
LINE
8
Layer 1
10
40.922366
20
96.299258
11
40.135446
21
95.879131
0
LINE
8
Layer 1
10
40.135446
20
95.879131
11
39.439102
21
95.308173
0
LINE
8
Layer 1
10
39.439102
20
95.308173
11
38.868143
21
94.611828
0
LINE
8
Layer 1
10
38.868143
20
94.611828
11
38.448016
21
93.824909
0
LINE
8
Layer 1
10
38.448016
20
93.824909
11
38.188655
21
92.971398
0
LINE
8
Layer 1
10
38.188655
20
92.971398
11
38.099993
21
92.075280
0
LINE
8
Layer 1
10
38.099993
20
92.075280
11
38.188655
21
91.179162
0
LINE
8
Layer 1
10
38.188655
20
91.179162
11
38.448016
21
90.325651
0
LINE
8
Layer 1
10
38.448016
20
90.325651
11
38.868143
21
89.538732
0
LINE
8
Layer 1
10
38.868143
20
89.538732
11
39.439102
21
88.842387
0
LINE
8
Layer 1
10
39.439102
20
88.842387
11
40.135446
21
88.271429
0
LINE
8
Layer 1
10
40.135446
20
88.271429
11
40.922366
21
87.851302
0
LINE
8
Layer 1
10
40.922366
20
87.851302
11
41.775876
21
87.591941
0
LINE
8
Layer 1
10
41.775876
20
87.591941
11
42.671994
21
87.503280
0
LINE
8
Layer 1
10
42.671994
20
87.503280
11
43.568113
21
87.591941
0
LINE
8
Layer 1
10
43.568113
20
87.591941
11
44.421623
21
87.851303
0
LINE
8
Layer 1
10
44.421623
20
87.851303
11
45.208542
21
88.271430
0
LINE
8
Layer 1
10
45.208542
20
88.271430
11
45.904887
21
88.842388
0
LINE
8
Layer 1
10
45.904887
20
88.842388
11
46.475845
21
89.538732
0
LINE
8
Layer 1
10
46.475845
20
89.538732
11
46.895972
21
90.325651
0
LINE
8
Layer 1
10
46.895972
20
90.325651
11
47.155333
21
91.179162
0
LINE
8
Layer 1
10
47.155333
20
91.179162
11
47.243994
21
92.075280
0
LINE
8
Layer 1
10
47.243994
20
92.075280
11
47.243994
21
92.075280
0
LINE
8
Layer 1
10
441.325000
20
241.300450
11
441.325000
21
234.950450
0
LINE
8
Layer 1
10
441.325000
20
234.950450
11
415.925000
21
234.950450
0
LINE
8
Layer 1
10
415.925000
20
234.950450
11
415.925000
21
222.250450
0
LINE
8
Layer 1
10
415.925000
20
222.250450
11
409.575000
21
222.250450
0
LINE
8
Layer 1
10
409.575000
20
222.250450
11
409.575000
21
203.200450
0
LINE
8
Layer 1
10
409.575000
20
203.200450
11
415.925000
21
203.200450
0
LINE
8
Layer 1
10
415.925000
20
203.200450
11
415.925000
21
174.625450
0
LINE
8
Layer 1
10
415.925000
20
174.625450
11
409.575000
21
174.625450
0
LINE
8
Layer 1
10
409.575000
20
174.625450
11
409.575000
21
155.575450
0
LINE
8
Layer 1
10
409.575000
20
155.575450
11
415.925000
21
155.575450
0
LINE
8
Layer 1
10
415.925000
20
155.575450
11
415.925000
21
142.875450
0
LINE
8
Layer 1
10
415.925000
20
142.875450
11
441.325000
21
142.875450
0
LINE
8
Layer 1
10
441.325000
20
142.875450
11
441.325000
21
136.525450
0
LINE
8
Layer 1
10
441.325000
20
136.525450
11
466.725000
21
136.525450
0
LINE
8
Layer 1
10
466.725000
20
136.525450
11
466.725000
21
142.875450
0
LINE
8
Layer 1
10
466.725000
20
142.875450
11
504.825000
21
142.875450
0
LINE
8
Layer 1
10
504.825000
20
142.875450
11
504.825000
21
136.525450
0
LINE
8
Layer 1
10
504.825000
20
136.525450
11
530.225000
21
136.525450
0
LINE
8
Layer 1
10
530.225000
20
136.525450
11
530.225000
21
142.875450
0
LINE
8
Layer 1
10
530.225000
20
142.875450
11
555.625000
21
142.875450
0
LINE
8
Layer 1
10
555.625000
20
142.875450
11
555.625000
21
155.575450
0
LINE
8
Layer 1
10
555.625000
20
155.575450
11
561.975000
21
155.575450
0
LINE
8
Layer 1
10
561.975000
20
155.575450
11
561.975000
21
174.625450
0
LINE
8
Layer 1
10
561.975000
20
174.625450
11
555.625000
21
174.625450
0
LINE
8
Layer 1
10
555.625000
20
174.625450
11
555.625000
21
203.200450
0
LINE
8
Layer 1
10
555.625000
20
203.200450
11
561.975000
21
203.200450
0
LINE
8
Layer 1
10
561.975000
20
203.200450
11
561.975000
21
222.250450
0
LINE
8
Layer 1
10
561.975000
20
222.250450
11
555.625000
21
222.250450
0
LINE
8
Layer 1
10
555.625000
20
222.250450
11
555.625000
21
234.950450
0
LINE
8
Layer 1
10
555.625000
20
234.950450
11
530.225000
21
234.950450
0
LINE
8
Layer 1
10
530.225000
20
234.950450
11
530.225000
21
241.300450
0
LINE
8
Layer 1
10
530.225000
20
241.300450
11
504.825000
21
241.300450
0
LINE
8
Layer 1
10
504.825000
20
241.300450
11
504.825000
21
234.950450
0
LINE
8
Layer 1
10
504.825000
20
234.950450
11
466.725000
21
234.950450
0
LINE
8
Layer 1
10
466.725000
20
234.950450
11
466.725000
21
241.300450
0
LINE
8
Layer 1
10
466.725000
20
241.300450
11
441.325000
21
241.300450
0
LINE
8
Layer 1
10
530.225010
20
165.100260
11
530.136349
21
164.204142
0
LINE
8
Layer 1
10
530.136349
20
164.204142
11
529.876987
21
163.350631
0
LINE
8
Layer 1
10
529.876987
20
163.350631
11
529.456860
21
162.563712
0
LINE
8
Layer 1
10
529.456860
20
162.563712
11
528.885902
21
161.867368
0
LINE
8
Layer 1
10
528.885902
20
161.867368
11
528.189558
21
161.296410
0
LINE
8
Layer 1
10
528.189558
20
161.296410
11
527.402639
21
160.876283
0
LINE
8
Layer 1
10
527.402639
20
160.876283
11
526.549128
21
160.616921
0
LINE
8
Layer 1
10
526.549128
20
160.616921
11
525.653010
21
160.528260
0
LINE
8
Layer 1
10
525.653010
20
160.528260
11
524.756892
21
160.616921
0
LINE
8
Layer 1
10
524.756892
20
160.616921
11
523.903381
21
160.876283
0
LINE
8
Layer 1
10
523.903381
20
160.876283
11
523.116462
21
161.296410
0
LINE
8
Layer 1
10
523.116462
20
161.296410
11
522.420118
21
161.867368
0
LINE
8
Layer 1
10
522.420118
20
161.867368
11
521.849160
21
162.563712
0
LINE
8
Layer 1
10
521.849160
20
162.563712
11
521.429033
21
163.350631
0
LINE
8
Layer 1
10
521.429033
20
163.350631
11
521.169671
21
164.204142
0
LINE
8
Layer 1
10
521.169671
20
164.204142
11
521.081010
21
165.100260
0
LINE
8
Layer 1
10
521.081010
20
165.100260
11
521.169671
21
165.996378
0
LINE
8
Layer 1
10
521.169671
20
165.996378
11
521.429033
21
166.849889
0
LINE
8
Layer 1
10
521.429033
20
166.849889
11
521.849160
21
167.636808
0
LINE
8
Layer 1
10
521.849160
20
167.636808
11
522.420118
21
168.333152
0
LINE
8
Layer 1
10
522.420118
20
168.333152
11
523.116462
21
168.904110
0
LINE
8
Layer 1
10
523.116462
20
168.904110
11
523.903381
21
169.324237
0
LINE
8
Layer 1
10
523.903381
20
169.324237
11
524.756892
21
169.583599
0
LINE
8
Layer 1
10
524.756892
20
169.583599
11
525.653010
21
169.672260
0
LINE
8
Layer 1
10
525.653010
20
169.672260
11
526.549128
21
169.583599
0
LINE
8
Layer 1
10
526.549128
20
169.583599
11
527.402639
21
169.324237
0
LINE
8
Layer 1
10
527.402639
20
169.324237
11
528.189558
21
168.904110
0
LINE
8
Layer 1
10
528.189558
20
168.904110
11
528.885902
21
168.333152
0
LINE
8
Layer 1
10
528.885902
20
168.333152
11
529.456860
21
167.636808
0
LINE
8
Layer 1
10
529.456860
20
167.636808
11
529.876987
21
166.849889
0
LINE
8
Layer 1
10
529.876987
20
166.849889
11
530.136349
21
165.996378
0
LINE
8
Layer 1
10
530.136349
20
165.996378
11
530.225010
21
165.100260
0
LINE
8
Layer 1
10
530.225010
20
165.100260
11
530.225010
21
165.100260
0
LINE
8
Layer 1
10
450.468997
20
165.100260
11
450.380336
21
164.204142
0
LINE
8
Layer 1
10
450.380336
20
164.204142
11
450.120974
21
163.350631
0
LINE
8
Layer 1
10
450.120974
20
163.350631
11
449.700847
21
162.563712
0
LINE
8
Layer 1
10
449.700847
20
162.563712
11
449.129889
21
161.867368
0
LINE
8
Layer 1
10
449.129889
20
161.867368
11
448.433545
21
161.296410
0
LINE
8
Layer 1
10
448.433545
20
161.296410
11
447.646626
21
160.876283
0
LINE
8
Layer 1
10
447.646626
20
160.876283
11
446.793115
21
160.616921
0
LINE
8
Layer 1
10
446.793115
20
160.616921
11
445.896997
21
160.528260
0
LINE
8
Layer 1
10
445.896997
20
160.528260
11
445.000879
21
160.616921
0
LINE
8
Layer 1
10
445.000879
20
160.616921
11
444.147368
21
160.876283
0
LINE
8
Layer 1
10
444.147368
20
160.876283
11
443.360449
21
161.296410
0
LINE
8
Layer 1
10
443.360449
20
161.296410
11
442.664105
21
161.867368
0
LINE
8
Layer 1
10
442.664105
20
161.867368
11
442.093147
21
162.563712
0
LINE
8
Layer 1
10
442.093147
20
162.563712
11
441.673020
21
163.350631
0
LINE
8
Layer 1
10
441.673020
20
163.350631
11
441.413658
21
164.204142
0
LINE
8
Layer 1
10
441.413658
20
164.204142
11
441.324997
21
165.100260
0
LINE
8
Layer 1
10
441.324997
20
165.100260
11
441.413658
21
165.996378
0
LINE
8
Layer 1
10
441.413658
20
165.996378
11
441.673020
21
166.849889
0
LINE
8
Layer 1
10
441.673020
20
166.849889
11
442.093147
21
167.636808
0
LINE
8
Layer 1
10
442.093147
20
167.636808
11
442.664105
21
168.333152
0
LINE
8
Layer 1
10
442.664105
20
168.333152
11
443.360449
21
168.904110
0
LINE
8
Layer 1
10
443.360449
20
168.904110
11
444.147368
21
169.324237
0
LINE
8
Layer 1
10
444.147368
20
169.324237
11
445.000879
21
169.583599
0
LINE
8
Layer 1
10
445.000879
20
169.583599
11
445.896997
21
169.672260
0
LINE
8
Layer 1
10
445.896997
20
169.672260
11
446.793115
21
169.583599
0
LINE
8
Layer 1
10
446.793115
20
169.583599
11
447.646626
21
169.324237
0
LINE
8
Layer 1
10
447.646626
20
169.324237
11
448.433545
21
168.904110
0
LINE
8
Layer 1
10
448.433545
20
168.904110
11
449.129889
21
168.333152
0
LINE
8
Layer 1
10
449.129889
20
168.333152
11
449.700847
21
167.636808
0
LINE
8
Layer 1
10
449.700847
20
167.636808
11
450.120974
21
166.849889
0
LINE
8
Layer 1
10
450.120974
20
166.849889
11
450.380336
21
165.996378
0
LINE
8
Layer 1
10
450.380336
20
165.996378
11
450.468997
21
165.100260
0
LINE
8
Layer 1
10
450.468997
20
165.100260
11
450.468997
21
165.100260
0
LINE
8
Layer 1
10
530.225000
20
212.725280
11
530.136339
21
213.621398
0
LINE
8
Layer 1
10
530.136339
20
213.621398
11
529.876977
21
214.474909
0
LINE
8
Layer 1
10
529.876977
20
214.474909
11
529.456850
21
215.261828
0
LINE
8
Layer 1
10
529.456850
20
215.261828
11
528.885892
21
215.958172
0
LINE
8
Layer 1
10
528.885892
20
215.958172
11
528.189548
21
216.529130
0
LINE
8
Layer 1
10
528.189548
20
216.529130
11
527.402629
21
216.949257
0
LINE
8
Layer 1
10
527.402629
20
216.949257
11
526.549118
21
217.208619
0
LINE
8
Layer 1
10
526.549118
20
217.208619
11
525.653000
21
217.297280
0
LINE
8
Layer 1
10
525.653000
20
217.297280
11
524.756882
21
217.208619
0
LINE
8
Layer 1
10
524.756882
20
217.208619
11
523.903371
21
216.949257
0
LINE
8
Layer 1
10
523.903371
20
216.949257
11
523.116452
21
216.529130
0
LINE
8
Layer 1
10
523.116452
20
216.529130
11
522.420108
21
215.958172
0
LINE
8
Layer 1
10
522.420108
20
215.958172
11
521.849150
21
215.261828
0
LINE
8
Layer 1
10
521.849150
20
215.261828
11
521.429023
21
214.474909
0
LINE
8
Layer 1
10
521.429023
20
214.474909
11
521.169661
21
213.621398
0
LINE
8
Layer 1
10
521.169661
20
213.621398
11
521.081000
21
212.725280
0
LINE
8
Layer 1
10
521.081000
20
212.725280
11
521.169661
21
211.829162
0
LINE
8
Layer 1
10
521.169661
20
211.829162
11
521.429023
21
210.975651
0
LINE
8
Layer 1
10
521.429023
20
210.975651
11
521.849150
21
210.188732
0
LINE
8
Layer 1
10
521.849150
20
210.188732
11
522.420108
21
209.492388
0
LINE
8
Layer 1
10
522.420108
20
209.492388
11
523.116452
21
208.921430
0
LINE
8
Layer 1
10
523.116452
20
208.921430
11
523.903371
21
208.501303
0
LINE
8
Layer 1
10
523.903371
20
208.501303
11
524.756882
21
208.241941
0
LINE
8
Layer 1
10
524.756882
20
208.241941
11
525.653000
21
208.153280
0
LINE
8
Layer 1
10
525.653000
20
208.153280
11
526.549118
21
208.241941
0
LINE
8
Layer 1
10
526.549118
20
208.241941
11
527.402629
21
208.501303
0
LINE
8
Layer 1
10
527.402629
20
208.501303
11
528.189548
21
208.921430
0
LINE
8
Layer 1
10
528.189548
20
208.921430
11
528.885892
21
209.492388
0
LINE
8
Layer 1
10
528.885892
20
209.492388
11
529.456850
21
210.188732
0
LINE
8
Layer 1
10
529.456850
20
210.188732
11
529.876977
21
210.975651
0
LINE
8
Layer 1
10
529.876977
20
210.975651
11
530.136339
21
211.829162
0
LINE
8
Layer 1
10
530.136339
20
211.829162
11
530.225000
21
212.725280
0
LINE
8
Layer 1
10
530.225000
20
212.725280
11
530.225000
21
212.725280
0
LINE
8
Layer 1
10
450.468998
20
212.725280
11
450.380337
21
213.621398
0
LINE
8
Layer 1
10
450.380337
20
213.621398
11
450.120975
21
214.474909
0
LINE
8
Layer 1
10
450.120975
20
214.474909
11
449.700848
21
215.261828
0
LINE
8
Layer 1
10
449.700848
20
215.261828
11
449.129890
21
215.958172
0
LINE
8
Layer 1
10
449.129890
20
215.958172
11
448.433546
21
216.529130
0
LINE
8
Layer 1
10
448.433546
20
216.529130
11
447.646627
21
216.949257
0
LINE
8
Layer 1
10
447.646627
20
216.949257
11
446.793116
21
217.208619
0
LINE
8
Layer 1
10
446.793116
20
217.208619
11
445.896998
21
217.297280
0
LINE
8
Layer 1
10
445.896998
20
217.297280
11
445.000880
21
217.208619
0
LINE
8
Layer 1
10
445.000880
20
217.208619
11
444.147369
21
216.949258
0
LINE
8
Layer 1
10
444.147369
20
216.949258
11
443.360450
21
216.529131
0
LINE
8
Layer 1
10
443.360450
20
216.529131
11
442.664105
21
215.958173
0
LINE
8
Layer 1
10
442.664105
20
215.958173
11
442.093147
21
215.261828
0
LINE
8
Layer 1
10
442.093147
20
215.261828
11
441.673020
21
214.474909
0
LINE
8
Layer 1
10
441.673020
20
214.474909
11
441.413658
21
213.621398
0
LINE
8
Layer 1
10
441.413658
20
213.621398
11
441.324997
21
212.725280
0
LINE
8
Layer 1
10
441.324997
20
212.725280
11
441.413658
21
211.829162
0
LINE
8
Layer 1
10
441.413658
20
211.829162
11
441.673020
21
210.975651
0
LINE
8
Layer 1
10
441.673020
20
210.975651
11
442.093147
21
210.188732
0
LINE
8
Layer 1
10
442.093147
20
210.188732
11
442.664105
21
209.492387
0
LINE
8
Layer 1
10
442.664105
20
209.492387
11
443.360450
21
208.921429
0
LINE
8
Layer 1
10
443.360450
20
208.921429
11
444.147369
21
208.501302
0
LINE
8
Layer 1
10
444.147369
20
208.501302
11
445.000880
21
208.241941
0
LINE
8
Layer 1
10
445.000880
20
208.241941
11
445.896998
21
208.153280
0
LINE
8
Layer 1
10
445.896998
20
208.153280
11
446.793116
21
208.241941
0
LINE
8
Layer 1
10
446.793116
20
208.241941
11
447.646627
21
208.501303
0
LINE
8
Layer 1
10
447.646627
20
208.501303
11
448.433546
21
208.921430
0
LINE
8
Layer 1
10
448.433546
20
208.921430
11
449.129890
21
209.492388
0
LINE
8
Layer 1
10
449.129890
20
209.492388
11
449.700848
21
210.188732
0
LINE
8
Layer 1
10
449.700848
20
210.188732
11
450.120975
21
210.975651
0
LINE
8
Layer 1
10
450.120975
20
210.975651
11
450.380337
21
211.829162
0
LINE
8
Layer 1
10
450.380337
20
211.829162
11
450.468998
21
212.725280
0
LINE
8
Layer 1
10
450.468998
20
212.725280
11
450.468998
21
212.725280
0
LINE
8
Layer 1
10
111.125000
20
247.650000
11
104.775000
21
247.650000
0
LINE
8
Layer 1
10
104.775000
20
247.650000
11
104.775000
21
241.300000
0
LINE
8
Layer 1
10
104.775000
20
241.300000
11
111.125000
21
241.300000
0
LINE
8
Layer 1
10
111.125000
20
241.300000
11
111.125000
21
247.650000
0
LINE
8
Layer 1
10
177.800000
20
247.650000
11
139.700000
21
247.650000
0
LINE
8
Layer 1
10
139.700000
20
247.650000
11
138.417126
21
247.521437
0
LINE
8
Layer 1
10
138.417126
20
247.521437
11
137.223698
21
247.152517
0
LINE
8
Layer 1
10
137.223698
20
247.152517
11
136.144868
21
246.568391
0
LINE
8
Layer 1
10
136.144868
20
246.568391
11
135.205787
21
245.794211
0
LINE
8
Layer 1
10
135.205787
20
245.794211
11
134.431608
21
244.855131
0
LINE
8
Layer 1
10
134.431608
20
244.855131
11
133.847483
21
243.776300
0
LINE
8
Layer 1
10
133.847483
20
243.776300
11
133.478563
21
242.582873
0
LINE
8
Layer 1
10
133.478563
20
242.582873
11
133.350000
21
241.300000
0
LINE
8
Layer 1
10
133.350000
20
241.300000
11
133.478563
21
240.017128
0
LINE
8
Layer 1
10
133.478563
20
240.017128
11
133.847483
21
238.823700
0
LINE
8
Layer 1
10
133.847483
20
238.823700
11
134.431608
21
237.744870
0
LINE
8
Layer 1
10
134.431608
20
237.744870
11
135.205787
21
236.805789
0
LINE
8
Layer 1
10
135.205787
20
236.805789
11
136.144868
21
236.031609
0
LINE
8
Layer 1
10
136.144868
20
236.031609
11
137.223698
21
235.447483
0
LINE
8
Layer 1
10
137.223698
20
235.447483
11
138.417126
21
235.078563
0
LINE
8
Layer 1
10
138.417126
20
235.078563
11
139.700000
21
234.950000
0
LINE
8
Layer 1
10
139.700000
20
234.950000
11
177.800000
21
234.950000
0
LINE
8
Layer 1
10
177.800000
20
234.950000
11
179.082874
21
235.078563
0
LINE
8
Layer 1
10
179.082874
20
235.078563
11
180.276302
21
235.447483
0
LINE
8
Layer 1
10
180.276302
20
235.447483
11
181.355132
21
236.031609
0
LINE
8
Layer 1
10
181.355132
20
236.031609
11
182.294212
21
236.805789
0
LINE
8
Layer 1
10
182.294212
20
236.805789
11
183.068392
21
237.744870
0
LINE
8
Layer 1
10
183.068392
20
237.744870
11
183.652517
21
238.823700
0
LINE
8
Layer 1
10
183.652517
20
238.823700
11
184.021437
21
240.017128
0
LINE
8
Layer 1
10
184.021437
20
240.017128
11
184.150000
21
241.300000
0
LINE
8
Layer 1
10
184.150000
20
241.300000
11
184.021437
21
242.582873
0
LINE
8
Layer 1
10
184.021437
20
242.582873
11
183.652517
21
243.776300
0
LINE
8
Layer 1
10
183.652517
20
243.776300
11
183.068392
21
244.855131
0
LINE
8
Layer 1
10
183.068392
20
244.855131
11
182.294212
21
245.794211
0
LINE
8
Layer 1
10
182.294212
20
245.794211
11
181.355132
21
246.568391
0
LINE
8
Layer 1
10
181.355132
20
246.568391
11
180.276302
21
247.152517
0
LINE
8
Layer 1
10
180.276302
20
247.152517
11
179.082874
21
247.521437
0
LINE
8
Layer 1
10
179.082874
20
247.521437
11
177.800000
21
247.650000
0
LINE
8
Layer 1
10
177.800000
20
247.650000
11
177.800000
21
247.650000
0
LINE
8
Layer 1
10
212.725000
20
247.650000
11
206.375000
21
247.650000
0
LINE
8
Layer 1
10
206.375000
20
247.650000
11
206.375000
21
241.300000
0
LINE
8
Layer 1
10
206.375000
20
241.300000
11
212.725000
21
241.300000
0
LINE
8
Layer 1
10
212.725000
20
241.300000
11
212.725000
21
247.650000
0
LINE
8
Layer 1
10
311.150000
20
298.450000
11
311.150000
21
241.300000
0
LINE
8
Layer 1
10
311.150000
20
241.300000
11
304.800000
21
241.300000
0
LINE
8
Layer 1
10
304.800000
20
241.300000
11
304.800000
21
234.950000
0
LINE
8
Layer 1
10
304.800000
20
234.950000
11
311.150000
21
234.950000
0
LINE
8
Layer 1
10
311.150000
20
234.950000
11
311.150000
21
228.600000
0
LINE
8
Layer 1
10
311.150000
20
228.600000
11
212.725000
21
228.600000
0
LINE
8
Layer 1
10
212.725000
20
228.600000
11
212.725000
21
234.950000
0
LINE
8
Layer 1
10
212.725000
20
234.950000
11
206.375000
21
234.950000
0
LINE
8
Layer 1
10
206.375000
20
234.950000
11
206.375000
21
228.600000
0
LINE
8
Layer 1
10
206.375000
20
228.600000
11
111.125000
21
228.600000
0
LINE
8
Layer 1
10
111.125000
20
228.600000
11
111.125000
21
234.950000
0
LINE
8
Layer 1
10
111.125000
20
234.950000
11
104.775000
21
234.950000
0
LINE
8
Layer 1
10
104.775000
20
234.950000
11
104.775000
21
228.600000
0
LINE
8
Layer 1
10
104.775000
20
228.600000
11
6.350000
21
228.600000
0
LINE
8
Layer 1
10
6.350000
20
228.600000
11
6.350000
21
234.950000
0
LINE
8
Layer 1
10
6.350000
20
234.950000
11
12.700000
21
234.950000
0
LINE
8
Layer 1
10
12.700000
20
234.950000
11
12.700000
21
241.300000
0
LINE
8
Layer 1
10
12.700000
20
241.300000
11
6.350000
21
241.300000
0
LINE
8
Layer 1
10
6.350000
20
241.300000
11
6.350000
21
298.450000
0
LINE
8
Layer 1
10
6.350000
20
298.450000
11
311.150000
21
298.450000
0
LINE
8
Layer 1
10
73.025000
20
234.950000
11
92.074999
21
234.950000
0
LINE
8
Layer 1
10
92.074999
20
234.950000
11
92.074999
21
241.300000
0
LINE
8
Layer 1
10
92.074999
20
241.300000
11
73.025000
21
241.300000
0
LINE
8
Layer 1
10
73.025000
20
241.300000
11
73.025000
21
234.950000
0
LINE
8
Layer 1
10
225.425000
20
234.950000
11
244.475000
21
234.950000
0
LINE
8
Layer 1
10
244.475000
20
234.950000
11
244.475000
21
241.300000
0
LINE
8
Layer 1
10
244.475000
20
241.300000
11
225.425000
21
241.300000
0
LINE
8
Layer 1
10
225.425000
20
241.300000
11
225.425000
21
234.950000
0
LINE
8
Layer 1
10
25.399999
20
234.950000
11
44.449998
21
234.950000
0
LINE
8
Layer 1
10
44.449998
20
234.950000
11
44.449998
21
241.300000
0
LINE
8
Layer 1
10
44.449998
20
241.300000
11
25.399999
21
241.300000
0
LINE
8
Layer 1
10
25.399999
20
241.300000
11
25.399999
21
234.950000
0
LINE
8
Layer 1
10
273.050010
20
234.950000
11
292.100010
21
234.950000
0
LINE
8
Layer 1
10
292.100010
20
234.950000
11
292.100010
21
241.300000
0
LINE
8
Layer 1
10
292.100010
20
241.300000
11
273.050010
21
241.300000
0
LINE
8
Layer 1
10
273.050010
20
241.300000
11
273.050010
21
234.950000
0
LINE
8
Layer 1
10
352.425000
20
82.550000
11
358.775000
21
82.550000
0
LINE
8
Layer 1
10
358.775000
20
82.550000
11
358.775000
21
76.200000
0
LINE
8
Layer 1
10
358.775000
20
76.200000
11
352.425000
21
76.200000
0
LINE
8
Layer 1
10
352.425000
20
76.200000
11
352.425000
21
82.550000
0
LINE
8
Layer 1
10
250.825000
20
82.550000
11
257.175000
21
82.550000
0
LINE
8
Layer 1
10
257.175000
20
82.550000
11
257.175000
21
76.200000
0
LINE
8
Layer 1
10
257.175000
20
76.200000
11
250.825000
21
76.200000
0
LINE
8
Layer 1
10
250.825000
20
76.200000
11
250.825000
21
82.550000
0
LINE
8
Layer 1
10
158.750000
20
88.900000
11
158.750000
21
82.550000
0
LINE
8
Layer 1
10
158.750000
20
82.550000
11
152.400000
21
82.550000
0
LINE
8
Layer 1
10
152.400000
20
82.550000
11
152.400000
21
76.200000
0
LINE
8
Layer 1
10
152.400000
20
76.200000
11
158.750000
21
76.200000
0
LINE
8
Layer 1
10
158.750000
20
76.200000
11
158.750000
21
69.850000
0
LINE
8
Layer 1
10
158.750000
20
69.850000
11
450.850000
21
69.850000
0
LINE
8
Layer 1
10
450.850000
20
69.850000
11
450.850000
21
76.200000
0
LINE
8
Layer 1
10
450.850000
20
76.200000
11
457.200000
21
76.200000
0
LINE
8
Layer 1
10
457.200000
20
76.200000
11
457.200000
21
82.550000
0
LINE
8
Layer 1
10
457.200000
20
82.550000
11
450.850000
21
82.550000
0
LINE
8
Layer 1
10
450.850000
20
82.550000
11
450.850000
21
88.900000
0
LINE
8
Layer 1
10
450.850000
20
88.900000
11
158.750000
21
88.900000
0
LINE
8
Layer 1
10
171.449999
20
82.550010
11
190.499998
21
82.550010
0
LINE
8
Layer 1
10
190.499998
20
82.550010
11
190.499998
21
76.200010
0
LINE
8
Layer 1
10
190.499998
20
76.200010
11
171.449999
21
76.200010
0
LINE
8
Layer 1
10
171.449999
20
76.200010
11
171.449999
21
82.550010
0
LINE
8
Layer 1
10
419.099980
20
82.550010
11
438.149980
21
82.550010
0
LINE
8
Layer 1
10
438.149980
20
82.550010
11
438.149980
21
76.200010
0
LINE
8
Layer 1
10
438.149980
20
76.200010
11
419.099980
21
76.200010
0
LINE
8
Layer 1
10
419.099980
20
76.200010
11
419.099980
21
82.550010
0
LINE
8
Layer 1
10
371.475000
20
82.550000
11
390.525000
21
82.550000
0
LINE
8
Layer 1
10
390.525000
20
82.550000
11
390.525000
21
76.200000
0
LINE
8
Layer 1
10
390.525000
20
76.200000
11
371.475000
21
76.200000
0
LINE
8
Layer 1
10
371.475000
20
76.200000
11
371.475000
21
82.550000
0
LINE
8
Layer 1
10
219.075000
20
82.550000
11
238.125000
21
82.550000
0
LINE
8
Layer 1
10
238.125000
20
82.550000
11
238.125000
21
76.200000
0
LINE
8
Layer 1
10
238.125000
20
76.200000
11
219.075000
21
76.200000
0
LINE
8
Layer 1
10
219.075000
20
76.200000
11
219.075000
21
82.550000
0
LINE
8
Layer 1
10
352.425000
20
63.500000
11
358.775000
21
63.500000
0
LINE
8
Layer 1
10
358.775000
20
63.500000
11
358.775000
21
57.150000
0
LINE
8
Layer 1
10
358.775000
20
57.150000
11
352.425000
21
57.150000
0
LINE
8
Layer 1
10
352.425000
20
57.150000
11
352.425000
21
63.500000
0
LINE
8
Layer 1
10
250.825000
20
63.500000
11
257.175000
21
63.500000
0
LINE
8
Layer 1
10
257.175000
20
63.500000
11
257.175000
21
57.150000
0
LINE
8
Layer 1
10
257.175000
20
57.150000
11
250.825000
21
57.150000
0
LINE
8
Layer 1
10
250.825000
20
57.150000
11
250.825000
21
63.500000
0
LINE
8
Layer 1
10
158.750000
20
69.850000
11
158.750000
21
63.500000
0
LINE
8
Layer 1
10
158.750000
20
63.500000
11
152.400000
21
63.500000
0
LINE
8
Layer 1
10
152.400000
20
63.500000
11
152.400000
21
57.150000
0
LINE
8
Layer 1
10
152.400000
20
57.150000
11
158.750000
21
57.150000
0
LINE
8
Layer 1
10
158.750000
20
57.150000
11
158.750000
21
50.800000
0
LINE
8
Layer 1
10
158.750000
20
50.800000
11
450.850000
21
50.800000
0
LINE
8
Layer 1
10
450.850000
20
50.800000
11
450.850000
21
57.150000
0
LINE
8
Layer 1
10
450.850000
20
57.150000
11
457.200000
21
57.150000
0
LINE
8
Layer 1
10
457.200000
20
57.150000
11
457.200000
21
63.500000
0
LINE
8
Layer 1
10
457.200000
20
63.500000
11
450.850000
21
63.500000
0
LINE
8
Layer 1
10
450.850000
20
63.500000
11
450.850000
21
69.850000
0
LINE
8
Layer 1
10
450.850000
20
69.850000
11
158.750000
21
69.850000
0
LINE
8
Layer 1
10
171.449999
20
63.500010
11
190.499998
21
63.500010
0
LINE
8
Layer 1
10
190.499998
20
63.500010
11
190.499998
21
57.150010
0
LINE
8
Layer 1
10
190.499998
20
57.150010
11
171.449999
21
57.150010
0
LINE
8
Layer 1
10
171.449999
20
57.150010
11
171.449999
21
63.500010
0
LINE
8
Layer 1
10
419.099980
20
63.500010
11
438.149980
21
63.500010
0
LINE
8
Layer 1
10
438.149980
20
63.500010
11
438.149980
21
57.150010
0
LINE
8
Layer 1
10
438.149980
20
57.150010
11
419.099980
21
57.150010
0
LINE
8
Layer 1
10
419.099980
20
57.150010
11
419.099980
21
63.500010
0
LINE
8
Layer 1
10
371.475000
20
63.500000
11
390.525000
21
63.500000
0
LINE
8
Layer 1
10
390.525000
20
63.500000
11
390.525000
21
57.150000
0
LINE
8
Layer 1
10
390.525000
20
57.150000
11
371.475000
21
57.150000
0
LINE
8
Layer 1
10
371.475000
20
57.150000
11
371.475000
21
63.500000
0
LINE
8
Layer 1
10
219.075000
20
63.500000
11
238.125000
21
63.500000
0
LINE
8
Layer 1
10
238.125000
20
63.500000
11
238.125000
21
57.150000
0
LINE
8
Layer 1
10
238.125000
20
57.150000
11
219.075000
21
57.150000
0
LINE
8
Layer 1
10
219.075000
20
57.150000
11
219.075000
21
63.500000
0
LINE
8
Layer 1
10
111.125000
20
209.550000
11
104.775000
21
209.550000
0
LINE
8
Layer 1
10
104.775000
20
209.550000
11
104.775000
21
215.900000
0
LINE
8
Layer 1
10
104.775000
20
215.900000
11
111.125000
21
215.900000
0
LINE
8
Layer 1
10
111.125000
20
215.900000
11
111.125000
21
209.550000
0
LINE
8
Layer 1
10
177.800000
20
209.550000
11
139.700000
21
209.550000
0
LINE
8
Layer 1
10
139.700000
20
209.550000
11
138.417126
21
209.678563
0
LINE
8
Layer 1
10
138.417126
20
209.678563
11
137.223698
21
210.047483
0
LINE
8
Layer 1
10
137.223698
20
210.047483
11
136.144868
21
210.631609
0
LINE
8
Layer 1
10
136.144868
20
210.631609
11
135.205787
21
211.405789
0
LINE
8
Layer 1
10
135.205787
20
211.405789
11
134.431608
21
212.344869
0
LINE
8
Layer 1
10
134.431608
20
212.344869
11
133.847483
21
213.423700
0
LINE
8
Layer 1
10
133.847483
20
213.423700
11
133.478563
21
214.617127
0
LINE
8
Layer 1
10
133.478563
20
214.617127
11
133.350000
21
215.900000
0
LINE
8
Layer 1
10
133.350000
20
215.900000
11
133.478563
21
217.182872
0
LINE
8
Layer 1
10
133.478563
20
217.182872
11
133.847483
21
218.376300
0
LINE
8
Layer 1
10
133.847483
20
218.376300
11
134.431608
21
219.455130
0
LINE
8
Layer 1
10
134.431608
20
219.455130
11
135.205787
21
220.394211
0
LINE
8
Layer 1
10
135.205787
20
220.394211
11
136.144868
21
221.168391
0
LINE
8
Layer 1
10
136.144868
20
221.168391
11
137.223698
21
221.752517
0
LINE
8
Layer 1
10
137.223698
20
221.752517
11
138.417126
21
222.121437
0
LINE
8
Layer 1
10
138.417126
20
222.121437
11
139.700000
21
222.250000
0
LINE
8
Layer 1
10
139.700000
20
222.250000
11
177.800000
21
222.250000
0
LINE
8
Layer 1
10
177.800000
20
222.250000
11
179.082874
21
222.121437
0
LINE
8
Layer 1
10
179.082874
20
222.121437
11
180.276302
21
221.752517
0
LINE
8
Layer 1
10
180.276302
20
221.752517
11
181.355132
21
221.168391
0
LINE
8
Layer 1
10
181.355132
20
221.168391
11
182.294212
21
220.394211
0
LINE
8
Layer 1
10
182.294212
20
220.394211
11
183.068392
21
219.455130
0
LINE
8
Layer 1
10
183.068392
20
219.455130
11
183.652517
21
218.376300
0
LINE
8
Layer 1
10
183.652517
20
218.376300
11
184.021437
21
217.182872
0
LINE
8
Layer 1
10
184.021437
20
217.182872
11
184.150000
21
215.900000
0
LINE
8
Layer 1
10
184.150000
20
215.900000
11
184.021437
21
214.617127
0
LINE
8
Layer 1
10
184.021437
20
214.617127
11
183.652517
21
213.423700
0
LINE
8
Layer 1
10
183.652517
20
213.423700
11
183.068392
21
212.344869
0
LINE
8
Layer 1
10
183.068392
20
212.344869
11
182.294212
21
211.405789
0
LINE
8
Layer 1
10
182.294212
20
211.405789
11
181.355132
21
210.631609
0
LINE
8
Layer 1
10
181.355132
20
210.631609
11
180.276302
21
210.047483
0
LINE
8
Layer 1
10
180.276302
20
210.047483
11
179.082874
21
209.678563
0
LINE
8
Layer 1
10
179.082874
20
209.678563
11
177.800000
21
209.550000
0
LINE
8
Layer 1
10
177.800000
20
209.550000
11
177.800000
21
209.550000
0
LINE
8
Layer 1
10
349.249990
20
133.349988
11
311.149990
21
133.349988
0
LINE
8
Layer 1
10
311.149990
20
133.349988
11
309.867116
21
133.478551
0
LINE
8
Layer 1
10
309.867116
20
133.478551
11
308.673688
21
133.847471
0
LINE
8
Layer 1
10
308.673688
20
133.847471
11
307.594858
21
134.431597
0
LINE
8
Layer 1
10
307.594858
20
134.431597
11
306.655777
21
135.205777
0
LINE
8
Layer 1
10
306.655777
20
135.205777
11
305.881598
21
136.144857
0
LINE
8
Layer 1
10
305.881598
20
136.144857
11
305.297473
21
137.223688
0
LINE
8
Layer 1
10
305.297473
20
137.223688
11
304.928553
21
138.417115
0
LINE
8
Layer 1
10
304.928553
20
138.417115
11
304.799990
21
139.699988
0
LINE
8
Layer 1
10
304.799990
20
139.699988
11
304.928553
21
140.982860
0
LINE
8
Layer 1
10
304.928553
20
140.982860
11
305.297473
21
142.176288
0
LINE
8
Layer 1
10
305.297473
20
142.176288
11
305.881598
21
143.255118
0
LINE
8
Layer 1
10
305.881598
20
143.255118
11
306.655777
21
144.194199
0
LINE
8
Layer 1
10
306.655777
20
144.194199
11
307.594858
21
144.968379
0
LINE
8
Layer 1
10
307.594858
20
144.968379
11
308.673688
21
145.552505
0
LINE
8
Layer 1
10
308.673688
20
145.552505
11
309.867116
21
145.921425
0
LINE
8
Layer 1
10
309.867116
20
145.921425
11
311.149990
21
146.049988
0
LINE
8
Layer 1
10
311.149990
20
146.049988
11
349.249990
21
146.049988
0
LINE
8
Layer 1
10
349.249990
20
146.049988
11
350.532864
21
145.921425
0
LINE
8
Layer 1
10
350.532864
20
145.921425
11
351.726292
21
145.552505
0
LINE
8
Layer 1
10
351.726292
20
145.552505
11
352.805122
21
144.968379
0
LINE
8
Layer 1
10
352.805122
20
144.968379
11
353.744203
21
144.194199
0
LINE
8
Layer 1
10
353.744203
20
144.194199
11
354.518382
21
143.255118
0
LINE
8
Layer 1
10
354.518382
20
143.255118
11
355.102507
21
142.176288
0
LINE
8
Layer 1
10
355.102507
20
142.176288
11
355.471427
21
140.982860
0
LINE
8
Layer 1
10
355.471427
20
140.982860
11
355.599990
21
139.699988
0
LINE
8
Layer 1
10
355.599990
20
139.699988
11
355.471427
21
138.417115
0
LINE
8
Layer 1
10
355.471427
20
138.417115
11
355.102507
21
137.223688
0
LINE
8
Layer 1
10
355.102507
20
137.223688
11
354.518382
21
136.144857
0
LINE
8
Layer 1
10
354.518382
20
136.144857
11
353.744203
21
135.205777
0
LINE
8
Layer 1
10
353.744203
20
135.205777
11
352.805122
21
134.431597
0
LINE
8
Layer 1
10
352.805122
20
134.431597
11
351.726292
21
133.847471
0
LINE
8
Layer 1
10
351.726292
20
133.847471
11
350.532864
21
133.478551
0
LINE
8
Layer 1
10
350.532864
20
133.478551
11
349.249990
21
133.349988
0
LINE
8
Layer 1
10
349.249990
20
133.349988
11
349.249990
21
133.349988
0
LINE
8
Layer 1
10
400.049990
20
133.349989
11
361.949990
21
133.349989
0
LINE
8
Layer 1
10
361.949990
20
133.349989
11
360.667116
21
133.478552
0
LINE
8
Layer 1
10
360.667116
20
133.478552
11
359.473688
21
133.847472
0
LINE
8
Layer 1
10
359.473688
20
133.847472
11
358.394858
21
134.431598
0
LINE
8
Layer 1
10
358.394858
20
134.431598
11
357.455777
21
135.205778
0
LINE
8
Layer 1
10
357.455777
20
135.205778
11
356.681598
21
136.144858
0
LINE
8
Layer 1
10
356.681598
20
136.144858
11
356.097473
21
137.223689
0
LINE
8
Layer 1
10
356.097473
20
137.223689
11
355.728553
21
138.417116
0
LINE
8
Layer 1
10
355.728553
20
138.417116
11
355.599990
21
139.699989
0
LINE
8
Layer 1
10
355.599990
20
139.699989
11
355.728553
21
140.982861
0
LINE
8
Layer 1
10
355.728553
20
140.982861
11
356.097473
21
142.176289
0
LINE
8
Layer 1
10
356.097473
20
142.176289
11
356.681598
21
143.255119
0
LINE
8
Layer 1
10
356.681598
20
143.255119
11
357.455777
21
144.194200
0
LINE
8
Layer 1
10
357.455777
20
144.194200
11
358.394858
21
144.968380
0
LINE
8
Layer 1
10
358.394858
20
144.968380
11
359.473688
21
145.552506
0
LINE
8
Layer 1
10
359.473688
20
145.552506
11
360.667116
21
145.921426
0
LINE
8
Layer 1
10
360.667116
20
145.921426
11
361.949990
21
146.049989
0
LINE
8
Layer 1
10
361.949990
20
146.049989
11
400.049990
21
146.049989
0
LINE
8
Layer 1
10
400.049990
20
146.049989
11
401.332864
21
145.921426
0
LINE
8
Layer 1
10
401.332864
20
145.921426
11
402.526292
21
145.552506
0
LINE
8
Layer 1
10
402.526292
20
145.552506
11
403.605122
21
144.968380
0
LINE
8
Layer 1
10
403.605122
20
144.968380
11
404.544203
21
144.194200
0
LINE
8
Layer 1
10
404.544203
20
144.194200
11
405.318382
21
143.255119
0
LINE
8
Layer 1
10
405.318382
20
143.255119
11
405.902507
21
142.176289
0
LINE
8
Layer 1
10
405.902507
20
142.176289
11
406.271427
21
140.982861
0
LINE
8
Layer 1
10
406.271427
20
140.982861
11
406.399990
21
139.699989
0
LINE
8
Layer 1
10
406.399990
20
139.699989
11
406.271427
21
138.417116
0
LINE
8
Layer 1
10
406.271427
20
138.417116
11
405.902507
21
137.223689
0
LINE
8
Layer 1
10
405.902507
20
137.223689
11
405.318382
21
136.144858
0
LINE
8
Layer 1
10
405.318382
20
136.144858
11
404.544203
21
135.205778
0
LINE
8
Layer 1
10
404.544203
20
135.205778
11
403.605122
21
134.431598
0
LINE
8
Layer 1
10
403.605122
20
134.431598
11
402.526292
21
133.847472
0
LINE
8
Layer 1
10
402.526292
20
133.847472
11
401.332864
21
133.478552
0
LINE
8
Layer 1
10
401.332864
20
133.478552
11
400.049990
21
133.349989
0
LINE
8
Layer 1
10
400.049990
20
133.349989
11
400.049990
21
133.349989
0
LINE
8
Layer 1
10
212.725000
20
209.550000
11
206.375000
21
209.550000
0
LINE
8
Layer 1
10
206.375000
20
209.550000
11
206.375000
21
215.900000
0
LINE
8
Layer 1
10
206.375000
20
215.900000
11
212.725000
21
215.900000
0
LINE
8
Layer 1
10
212.725000
20
215.900000
11
212.725000
21
209.550000
0
LINE
8
Layer 1
10
311.150000
20
158.750000
11
311.150000
21
215.900000
0
LINE
8
Layer 1
10
311.150000
20
215.900000
11
304.800000
21
215.900000
0
LINE
8
Layer 1
10
304.800000
20
215.900000
11
304.800000
21
222.250000
0
LINE
8
Layer 1
10
304.800000
20
222.250000
11
311.150000
21
222.250000
0
LINE
8
Layer 1
10
311.150000
20
222.250000
11
311.150000
21
228.600000
0
LINE
8
Layer 1
10
311.150000
20
228.600000
11
212.725000
21
228.600000
0
LINE
8
Layer 1
10
212.725000
20
228.600000
11
212.725000
21
222.250000
0
LINE
8
Layer 1
10
212.725000
20
222.250000
11
206.375000
21
222.250000
0
LINE
8
Layer 1
10
206.375000
20
222.250000
11
206.375000
21
228.600000
0
LINE
8
Layer 1
10
206.375000
20
228.600000
11
111.125000
21
228.600000
0
LINE
8
Layer 1
10
111.125000
20
228.600000
11
111.125000
21
222.250000
0
LINE
8
Layer 1
10
111.125000
20
222.250000
11
104.775000
21
222.250000
0
LINE
8
Layer 1
10
104.775000
20
222.250000
11
104.775000
21
228.600000
0
LINE
8
Layer 1
10
104.775000
20
228.600000
11
6.350000
21
228.600000
0
LINE
8
Layer 1
10
6.350000
20
228.600000
11
6.350000
21
222.250000
0
LINE
8
Layer 1
10
6.350000
20
222.250000
11
12.700000
21
222.250000
0
LINE
8
Layer 1
10
12.700000
20
222.250000
11
12.700000
21
215.900000
0
LINE
8
Layer 1
10
12.700000
20
215.900000
11
6.350000
21
215.900000
0
LINE
8
Layer 1
10
6.350000
20
215.900000
11
6.350000
21
158.750000
0
LINE
8
Layer 1
10
6.350000
20
158.750000
11
311.150000
21
158.750000
0
LINE
8
Layer 1
10
73.025000
20
222.250000
11
92.074999
21
222.250000
0
LINE
8
Layer 1
10
92.074999
20
222.250000
11
92.074999
21
215.900000
0
LINE
8
Layer 1
10
92.074999
20
215.900000
11
73.025000
21
215.900000
0
LINE
8
Layer 1
10
73.025000
20
215.900000
11
73.025000
21
222.250000
0
LINE
8
Layer 1
10
225.425000
20
222.250000
11
244.475000
21
222.250000
0
LINE
8
Layer 1
10
244.475000
20
222.250000
11
244.475000
21
215.900000
0
LINE
8
Layer 1
10
244.475000
20
215.900000
11
225.425000
21
215.900000
0
LINE
8
Layer 1
10
225.425000
20
215.900000
11
225.425000
21
222.250000
0
LINE
8
Layer 1
10
25.399999
20
222.250000
11
44.449998
21
222.250000
0
LINE
8
Layer 1
10
44.449998
20
222.250000
11
44.449998
21
215.900000
0
LINE
8
Layer 1
10
44.449998
20
215.900000
11
25.399999
21
215.900000
0
LINE
8
Layer 1
10
25.399999
20
215.900000
11
25.399999
21
222.250000
0
LINE
8
Layer 1
10
273.050010
20
222.250000
11
292.100010
21
222.250000
0
LINE
8
Layer 1
10
292.100010
20
222.250000
11
292.100010
21
215.900000
0
LINE
8
Layer 1
10
292.100010
20
215.900000
11
273.050010
21
215.900000
0
LINE
8
Layer 1
10
273.050010
20
215.900000
11
273.050010
21
222.250000
0
LINE
8
Layer 1
10
349.249990
20
120.649990
11
311.149990
21
120.649990
0
LINE
8
Layer 1
10
311.149990
20
120.649990
11
309.867116
21
120.778553
0
LINE
8
Layer 1
10
309.867116
20
120.778553
11
308.673688
21
121.147473
0
LINE
8
Layer 1
10
308.673688
20
121.147473
11
307.594858
21
121.731598
0
LINE
8
Layer 1
10
307.594858
20
121.731598
11
306.655777
21
122.505777
0
LINE
8
Layer 1
10
306.655777
20
122.505777
11
305.881598
21
123.444858
0
LINE
8
Layer 1
10
305.881598
20
123.444858
11
305.297473
21
124.523688
0
LINE
8
Layer 1
10
305.297473
20
124.523688
11
304.928553
21
125.717116
0
LINE
8
Layer 1
10
304.928553
20
125.717116
11
304.799990
21
126.999990
0
LINE
8
Layer 1
10
304.799990
20
126.999990
11
304.928553
21
128.282861
0
LINE
8
Layer 1
10
304.928553
20
128.282861
11
305.297473
21
129.476288
0
LINE
8
Layer 1
10
305.297473
20
129.476288
11
305.881598
21
130.555118
0
LINE
8
Layer 1
10
305.881598
20
130.555118
11
306.655777
21
131.494198
0
LINE
8
Layer 1
10
306.655777
20
131.494198
11
307.594858
21
132.268378
0
LINE
8
Layer 1
10
307.594858
20
132.268378
11
308.673688
21
132.852504
0
LINE
8
Layer 1
10
308.673688
20
132.852504
11
309.867116
21
133.221424
0
LINE
8
Layer 1
10
309.867116
20
133.221424
11
311.149990
21
133.349987
0
LINE
8
Layer 1
10
311.149990
20
133.349987
11
349.249990
21
133.349987
0
LINE
8
Layer 1
10
349.249990
20
133.349987
11
350.532864
21
133.221424
0
LINE
8
Layer 1
10
350.532864
20
133.221424
11
351.726292
21
132.852504
0
LINE
8
Layer 1
10
351.726292
20
132.852504
11
352.805122
21
132.268378
0
LINE
8
Layer 1
10
352.805122
20
132.268378
11
353.744203
21
131.494198
0
LINE
8
Layer 1
10
353.744203
20
131.494198
11
354.518382
21
130.555118
0
LINE
8
Layer 1
10
354.518382
20
130.555118
11
355.102507
21
129.476288
0
LINE
8
Layer 1
10
355.102507
20
129.476288
11
355.471427
21
128.282861
0
LINE
8
Layer 1
10
355.471427
20
128.282861
11
355.599990
21
126.999990
0
LINE
8
Layer 1
10
355.599990
20
126.999990
11
355.471427
21
125.717116
0
LINE
8
Layer 1
10
355.471427
20
125.717116
11
355.102507
21
124.523688
0
LINE
8
Layer 1
10
355.102507
20
124.523688
11
354.518382
21
123.444858
0
LINE
8
Layer 1
10
354.518382
20
123.444858
11
353.744203
21
122.505777
0
LINE
8
Layer 1
10
353.744203
20
122.505777
11
352.805122
21
121.731598
0
LINE
8
Layer 1
10
352.805122
20
121.731598
11
351.726292
21
121.147473
0
LINE
8
Layer 1
10
351.726292
20
121.147473
11
350.532864
21
120.778553
0
LINE
8
Layer 1
10
350.532864
20
120.778553
11
349.249990
21
120.649990
0
LINE
8
Layer 1
10
349.249990
20
120.649990
11
349.249990
21
120.649990
0
LINE
8
Layer 1
10
400.049990
20
120.649990
11
361.949990
21
120.649990
0
LINE
8
Layer 1
10
361.949990
20
120.649990
11
360.667116
21
120.778553
0
LINE
8
Layer 1
10
360.667116
20
120.778553
11
359.473688
21
121.147473
0
LINE
8
Layer 1
10
359.473688
20
121.147473
11
358.394858
21
121.731598
0
LINE
8
Layer 1
10
358.394858
20
121.731598
11
357.455777
21
122.505777
0
LINE
8
Layer 1
10
357.455777
20
122.505777
11
356.681598
21
123.444858
0
LINE
8
Layer 1
10
356.681598
20
123.444858
11
356.097473
21
124.523688
0
LINE
8
Layer 1
10
356.097473
20
124.523688
11
355.728553
21
125.717116
0
LINE
8
Layer 1
10
355.728553
20
125.717116
11
355.599990
21
126.999990
0
LINE
8
Layer 1
10
355.599990
20
126.999990
11
355.728553
21
128.282861
0
LINE
8
Layer 1
10
355.728553
20
128.282861
11
356.097473
21
129.476288
0
LINE
8
Layer 1
10
356.097473
20
129.476288
11
356.681598
21
130.555118
0
LINE
8
Layer 1
10
356.681598
20
130.555118
11
357.455777
21
131.494198
0
LINE
8
Layer 1
10
357.455777
20
131.494198
11
358.394858
21
132.268378
0
LINE
8
Layer 1
10
358.394858
20
132.268378
11
359.473688
21
132.852504
0
LINE
8
Layer 1
10
359.473688
20
132.852504
11
360.667116
21
133.221424
0
LINE
8
Layer 1
10
360.667116
20
133.221424
11
361.949990
21
133.349987
0
LINE
8
Layer 1
10
361.949990
20
133.349987
11
400.049990
21
133.349987
0
LINE
8
Layer 1
10
400.049990
20
133.349987
11
401.332864
21
133.221424
0
LINE
8
Layer 1
10
401.332864
20
133.221424
11
402.526292
21
132.852504
0
LINE
8
Layer 1
10
402.526292
20
132.852504
11
403.605122
21
132.268378
0
LINE
8
Layer 1
10
403.605122
20
132.268378
11
404.544203
21
131.494198
0
LINE
8
Layer 1
10
404.544203
20
131.494198
11
405.318382
21
130.555118
0
LINE
8
Layer 1
10
405.318382
20
130.555118
11
405.902507
21
129.476288
0
LINE
8
Layer 1
10
405.902507
20
129.476288
11
406.271427
21
128.282861
0
LINE
8
Layer 1
10
406.271427
20
128.282861
11
406.399990
21
126.999990
0
LINE
8
Layer 1
10
406.399990
20
126.999990
11
406.271427
21
125.717116
0
LINE
8
Layer 1
10
406.271427
20
125.717116
11
405.902507
21
124.523688
0
LINE
8
Layer 1
10
405.902507
20
124.523688
11
405.318382
21
123.444858
0
LINE
8
Layer 1
10
405.318382
20
123.444858
11
404.544203
21
122.505777
0
LINE
8
Layer 1
10
404.544203
20
122.505777
11
403.605122
21
121.731598
0
LINE
8
Layer 1
10
403.605122
20
121.731598
11
402.526292
21
121.147473
0
LINE
8
Layer 1
10
402.526292
20
121.147473
11
401.332864
21
120.778553
0
LINE
8
Layer 1
10
401.332864
20
120.778553
11
400.049990
21
120.649990
0
LINE
8
Layer 1
10
400.049990
20
120.649990
11
400.049990
21
120.649990
0
LINE
8
Layer 1
10
450.849990
20
120.649990
11
412.749990
21
120.649990
0
LINE
8
Layer 1
10
412.749990
20
120.649990
11
411.467116
21
120.778553
0
LINE
8
Layer 1
10
411.467116
20
120.778553
11
410.273688
21
121.147473
0
LINE
8
Layer 1
10
410.273688
20
121.147473
11
409.194858
21
121.731598
0
LINE
8
Layer 1
10
409.194858
20
121.731598
11
408.255778
21
122.505777
0
LINE
8
Layer 1
10
408.255778
20
122.505777
11
407.481598
21
123.444858
0
LINE
8
Layer 1
10
407.481598
20
123.444858
11
406.897473
21
124.523688
0
LINE
8
Layer 1
10
406.897473
20
124.523688
11
406.528553
21
125.717116
0
LINE
8
Layer 1
10
406.528553
20
125.717116
11
406.399990
21
126.999990
0
LINE
8
Layer 1
10
406.399990
20
126.999990
11
406.528553
21
128.282862
0
LINE
8
Layer 1
10
406.528553
20
128.282862
11
406.897473
21
129.476289
0
LINE
8
Layer 1
10
406.897473
20
129.476289
11
407.481598
21
130.555119
0
LINE
8
Layer 1
10
407.481598
20
130.555119
11
408.255778
21
131.494199
0
LINE
8
Layer 1
10
408.255778
20
131.494199
11
409.194858
21
132.268379
0
LINE
8
Layer 1
10
409.194858
20
132.268379
11
410.273688
21
132.852505
0
LINE
8
Layer 1
10
410.273688
20
132.852505
11
411.467116
21
133.221425
0
LINE
8
Layer 1
10
411.467116
20
133.221425
11
412.749990
21
133.349988
0
LINE
8
Layer 1
10
412.749990
20
133.349988
11
450.849990
21
133.349988
0
LINE
8
Layer 1
10
450.849990
20
133.349988
11
452.132864
21
133.221425
0
LINE
8
Layer 1
10
452.132864
20
133.221425
11
453.326292
21
132.852505
0
LINE
8
Layer 1
10
453.326292
20
132.852505
11
454.405122
21
132.268379
0
LINE
8
Layer 1
10
454.405122
20
132.268379
11
455.344203
21
131.494199
0
LINE
8
Layer 1
10
455.344203
20
131.494199
11
456.118382
21
130.555119
0
LINE
8
Layer 1
10
456.118382
20
130.555119
11
456.702507
21
129.476289
0
LINE
8
Layer 1
10
456.702507
20
129.476289
11
457.071427
21
128.282862
0
LINE
8
Layer 1
10
457.071427
20
128.282862
11
457.199990
21
126.999990
0
LINE
8
Layer 1
10
457.199990
20
126.999990
11
457.071427
21
125.717116
0
LINE
8
Layer 1
10
457.071427
20
125.717116
11
456.702507
21
124.523688
0
LINE
8
Layer 1
10
456.702507
20
124.523688
11
456.118382
21
123.444858
0
LINE
8
Layer 1
10
456.118382
20
123.444858
11
455.344203
21
122.505777
0
LINE
8
Layer 1
10
455.344203
20
122.505777
11
454.405122
21
121.731598
0
LINE
8
Layer 1
10
454.405122
20
121.731598
11
453.326292
21
121.147473
0
LINE
8
Layer 1
10
453.326292
20
121.147473
11
452.132864
21
120.778553
0
LINE
8
Layer 1
10
452.132864
20
120.778553
11
450.849990
21
120.649990
0
LINE
8
Layer 1
10
450.849990
20
120.649990
11
450.849990
21
120.649990
0
LINE
8
Layer 1
10
501.649990
20
120.650000
11
463.549990
21
120.650000
0
LINE
8
Layer 1
10
463.549990
20
120.650000
11
462.267116
21
120.778563
0
LINE
8
Layer 1
10
462.267116
20
120.778563
11
461.073688
21
121.147483
0
LINE
8
Layer 1
10
461.073688
20
121.147483
11
459.994858
21
121.731608
0
LINE
8
Layer 1
10
459.994858
20
121.731608
11
459.055777
21
122.505787
0
LINE
8
Layer 1
10
459.055777
20
122.505787
11
458.281598
21
123.444868
0
LINE
8
Layer 1
10
458.281598
20
123.444868
11
457.697473
21
124.523698
0
LINE
8
Layer 1
10
457.697473
20
124.523698
11
457.328553
21
125.717126
0
LINE
8
Layer 1
10
457.328553
20
125.717126
11
457.199990
21
127.000000
0
LINE
8
Layer 1
10
457.199990
20
127.000000
11
457.328553
21
128.282874
0
LINE
8
Layer 1
10
457.328553
20
128.282874
11
457.697473
21
129.476302
0
LINE
8
Layer 1
10
457.697473
20
129.476302
11
458.281598
21
130.555132
0
LINE
8
Layer 1
10
458.281598
20
130.555132
11
459.055777
21
131.494213
0
LINE
8
Layer 1
10
459.055777
20
131.494213
11
459.994858
21
132.268392
0
LINE
8
Layer 1
10
459.994858
20
132.268392
11
461.073688
21
132.852517
0
LINE
8
Layer 1
10
461.073688
20
132.852517
11
462.267116
21
133.221437
0
LINE
8
Layer 1
10
462.267116
20
133.221437
11
463.549990
21
133.350000
0
LINE
8
Layer 1
10
463.549990
20
133.350000
11
501.649990
21
133.350000
0
LINE
8
Layer 1
10
501.649990
20
133.350000
11
502.932864
21
133.221437
0
LINE
8
Layer 1
10
502.932864
20
133.221437
11
504.126292
21
132.852517
0
LINE
8
Layer 1
10
504.126292
20
132.852517
11
505.205122
21
132.268392
0
LINE
8
Layer 1
10
505.205122
20
132.268392
11
506.144203
21
131.494213
0
LINE
8
Layer 1
10
506.144203
20
131.494213
11
506.918382
21
130.555132
0
LINE
8
Layer 1
10
506.918382
20
130.555132
11
507.502507
21
129.476302
0
LINE
8
Layer 1
10
507.502507
20
129.476302
11
507.871427
21
128.282874
0
LINE
8
Layer 1
10
507.871427
20
128.282874
11
507.999990
21
127.000000
0
LINE
8
Layer 1
10
507.999990
20
127.000000
11
507.871427
21
125.717126
0
LINE
8
Layer 1
10
507.871427
20
125.717126
11
507.502507
21
124.523698
0
LINE
8
Layer 1
10
507.502507
20
124.523698
11
506.918382
21
123.444868
0
LINE
8
Layer 1
10
506.918382
20
123.444868
11
506.144203
21
122.505787
0
LINE
8
Layer 1
10
506.144203
20
122.505787
11
505.205122
21
121.731608
0
LINE
8
Layer 1
10
505.205122
20
121.731608
11
504.126292
21
121.147483
0
LINE
8
Layer 1
10
504.126292
20
121.147483
11
502.932864
21
120.778563
0
LINE
8
Layer 1
10
502.932864
20
120.778563
11
501.649990
21
120.650000
0
LINE
8
Layer 1
10
501.649990
20
120.650000
11
501.649990
21
120.650000
0
LINE
8
Layer 1
10
552.449990
20
120.650000
11
514.349990
21
120.650000
0
LINE
8
Layer 1
10
514.349990
20
120.650000
11
513.067116
21
120.778563
0
LINE
8
Layer 1
10
513.067116
20
120.778563
11
511.873688
21
121.147483
0
LINE
8
Layer 1
10
511.873688
20
121.147483
11
510.794858
21
121.731608
0
LINE
8
Layer 1
10
510.794858
20
121.731608
11
509.855777
21
122.505787
0
LINE
8
Layer 1
10
509.855777
20
122.505787
11
509.081598
21
123.444868
0
LINE
8
Layer 1
10
509.081598
20
123.444868
11
508.497473
21
124.523698
0
LINE
8
Layer 1
10
508.497473
20
124.523698
11
508.128553
21
125.717126
0
LINE
8
Layer 1
10
508.128553
20
125.717126
11
507.999990
21
127.000000
0
LINE
8
Layer 1
10
507.999990
20
127.000000
11
508.128553
21
128.282874
0
LINE
8
Layer 1
10
508.128553
20
128.282874
11
508.497473
21
129.476302
0
LINE
8
Layer 1
10
508.497473
20
129.476302
11
509.081598
21
130.555132
0
LINE
8
Layer 1
10
509.081598
20
130.555132
11
509.855777
21
131.494213
0
LINE
8
Layer 1
10
509.855777
20
131.494213
11
510.794858
21
132.268392
0
LINE
8
Layer 1
10
510.794858
20
132.268392
11
511.873688
21
132.852517
0
LINE
8
Layer 1
10
511.873688
20
132.852517
11
513.067116
21
133.221437
0
LINE
8
Layer 1
10
513.067116
20
133.221437
11
514.349990
21
133.350000
0
LINE
8
Layer 1
10
514.349990
20
133.350000
11
552.449990
21
133.350000
0
LINE
8
Layer 1
10
552.449990
20
133.350000
11
553.732864
21
133.221437
0
LINE
8
Layer 1
10
553.732864
20
133.221437
11
554.926292
21
132.852517
0
LINE
8
Layer 1
10
554.926292
20
132.852517
11
556.005122
21
132.268392
0
LINE
8
Layer 1
10
556.005122
20
132.268392
11
556.944202
21
131.494213
0
LINE
8
Layer 1
10
556.944202
20
131.494213
11
557.718382
21
130.555132
0
LINE
8
Layer 1
10
557.718382
20
130.555132
11
558.302507
21
129.476302
0
LINE
8
Layer 1
10
558.302507
20
129.476302
11
558.671427
21
128.282874
0
LINE
8
Layer 1
10
558.671427
20
128.282874
11
558.799990
21
127.000000
0
LINE
8
Layer 1
10
558.799990
20
127.000000
11
558.671427
21
125.717126
0
LINE
8
Layer 1
10
558.671427
20
125.717126
11
558.302507
21
124.523698
0
LINE
8
Layer 1
10
558.302507
20
124.523698
11
557.718382
21
123.444868
0
LINE
8
Layer 1
10
557.718382
20
123.444868
11
556.944202
21
122.505787
0
LINE
8
Layer 1
10
556.944202
20
122.505787
11
556.005122
21
121.731608
0
LINE
8
Layer 1
10
556.005122
20
121.731608
11
554.926292
21
121.147483
0
LINE
8
Layer 1
10
554.926292
20
121.147483
11
553.732864
21
120.778563
0
LINE
8
Layer 1
10
553.732864
20
120.778563
11
552.449990
21
120.650000
0
LINE
8
Layer 1
10
552.449990
20
120.650000
11
552.449990
21
120.650000
0
LINE
8
Layer 1
10
590.549990
20
254.000000
11
590.549990
21
292.100000
0
LINE
8
Layer 1
10
590.549990
20
292.100000
11
590.678553
21
293.382874
0
LINE
8
Layer 1
10
590.678553
20
293.382874
11
591.047473
21
294.576302
0
LINE
8
Layer 1
10
591.047473
20
294.576302
11
591.631598
21
295.655132
0
LINE
8
Layer 1
10
591.631598
20
295.655132
11
592.405777
21
296.594213
0
LINE
8
Layer 1
10
592.405777
20
296.594213
11
593.344858
21
297.368392
0
LINE
8
Layer 1
10
593.344858
20
297.368392
11
594.423688
21
297.952517
0
LINE
8
Layer 1
10
594.423688
20
297.952517
11
595.617116
21
298.321438
0
LINE
8
Layer 1
10
595.617116
20
298.321438
11
596.899990
21
298.450000
0
LINE
8
Layer 1
10
596.899990
20
298.450000
11
598.182864
21
298.321438
0
LINE
8
Layer 1
10
598.182864
20
298.321438
11
599.376292
21
297.952517
0
LINE
8
Layer 1
10
599.376292
20
297.952517
11
600.455122
21
297.368392
0
LINE
8
Layer 1
10
600.455122
20
297.368392
11
601.394203
21
296.594213
0
LINE
8
Layer 1
10
601.394203
20
296.594213
11
602.168382
21
295.655132
0
LINE
8
Layer 1
10
602.168382
20
295.655132
11
602.752507
21
294.576302
0
LINE
8
Layer 1
10
602.752507
20
294.576302
11
603.121427
21
293.382874
0
LINE
8
Layer 1
10
603.121427
20
293.382874
11
603.249990
21
292.100000
0
LINE
8
Layer 1
10
603.249990
20
292.100000
11
603.249990
21
254.000000
0
LINE
8
Layer 1
10
603.249990
20
254.000000
11
603.121427
21
252.717126
0
LINE
8
Layer 1
10
603.121427
20
252.717126
11
602.752507
21
251.523698
0
LINE
8
Layer 1
10
602.752507
20
251.523698
11
602.168382
21
250.444868
0
LINE
8
Layer 1
10
602.168382
20
250.444868
11
601.394203
21
249.505787
0
LINE
8
Layer 1
10
601.394203
20
249.505787
11
600.455122
21
248.731608
0
LINE
8
Layer 1
10
600.455122
20
248.731608
11
599.376292
21
248.147483
0
LINE
8
Layer 1
10
599.376292
20
248.147483
11
598.182864
21
247.778563
0
LINE
8
Layer 1
10
598.182864
20
247.778563
11
596.899990
21
247.650000
0
LINE
8
Layer 1
10
596.899990
20
247.650000
11
595.617116
21
247.778563
0
LINE
8
Layer 1
10
595.617116
20
247.778563
11
594.423688
21
248.147483
0
LINE
8
Layer 1
10
594.423688
20
248.147483
11
593.344858
21
248.731608
0
LINE
8
Layer 1
10
593.344858
20
248.731608
11
592.405777
21
249.505787
0
LINE
8
Layer 1
10
592.405777
20
249.505787
11
591.631598
21
250.444868
0
LINE
8
Layer 1
10
591.631598
20
250.444868
11
591.047473
21
251.523698
0
LINE
8
Layer 1
10
591.047473
20
251.523698
11
590.678553
21
252.717126
0
LINE
8
Layer 1
10
590.678553
20
252.717126
11
590.549990
21
254.000000
0
LINE
8
Layer 1
10
590.549990
20
254.000000
11
590.549990
21
254.000000
0
LINE
8
Layer 1
10
590.549990
20
203.200000
11
590.549990
21
241.300001
0
LINE
8
Layer 1
10
590.549990
20
241.300001
11
590.678553
21
242.582875
0
LINE
8
Layer 1
10
590.678553
20
242.582875
11
591.047473
21
243.776303
0
LINE
8
Layer 1
10
591.047473
20
243.776303
11
591.631598
21
244.855133
0
LINE
8
Layer 1
10
591.631598
20
244.855133
11
592.405777
21
245.794214
0
LINE
8
Layer 1
10
592.405777
20
245.794214
11
593.344858
21
246.568393
0
LINE
8
Layer 1
10
593.344858
20
246.568393
11
594.423688
21
247.152518
0
LINE
8
Layer 1
10
594.423688
20
247.152518
11
595.617116
21
247.521438
0
LINE
8
Layer 1
10
595.617116
20
247.521438
11
596.899990
21
247.650001
0
LINE
8
Layer 1
10
596.899990
20
247.650001
11
598.182864
21
247.521438
0
LINE
8
Layer 1
10
598.182864
20
247.521438
11
599.376292
21
247.152518
0
LINE
8
Layer 1
10
599.376292
20
247.152518
11
600.455122
21
246.568393
0
LINE
8
Layer 1
10
600.455122
20
246.568393
11
601.394203
21
245.794214
0
LINE
8
Layer 1
10
601.394203
20
245.794214
11
602.168382
21
244.855133
0
LINE
8
Layer 1
10
602.168382
20
244.855133
11
602.752507
21
243.776303
0
LINE
8
Layer 1
10
602.752507
20
243.776303
11
603.121427
21
242.582875
0
LINE
8
Layer 1
10
603.121427
20
242.582875
11
603.249990
21
241.300001
0
LINE
8
Layer 1
10
603.249990
20
241.300001
11
603.249990
21
203.200000
0
LINE
8
Layer 1
10
603.249990
20
203.200000
11
603.121427
21
201.917126
0
LINE
8
Layer 1
10
603.121427
20
201.917126
11
602.752507
21
200.723698
0
LINE
8
Layer 1
10
602.752507
20
200.723698
11
602.168382
21
199.644868
0
LINE
8
Layer 1
10
602.168382
20
199.644868
11
601.394203
21
198.705788
0
LINE
8
Layer 1
10
601.394203
20
198.705788
11
600.455122
21
197.931608
0
LINE
8
Layer 1
10
600.455122
20
197.931608
11
599.376292
21
197.347483
0
LINE
8
Layer 1
10
599.376292
20
197.347483
11
598.182864
21
196.978563
0
LINE
8
Layer 1
10
598.182864
20
196.978563
11
596.899990
21
196.850000
0
LINE
8
Layer 1
10
596.899990
20
196.850000
11
595.617116
21
196.978563
0
LINE
8
Layer 1
10
595.617116
20
196.978563
11
594.423688
21
197.347483
0
LINE
8
Layer 1
10
594.423688
20
197.347483
11
593.344858
21
197.931608
0
LINE
8
Layer 1
10
593.344858
20
197.931608
11
592.405777
21
198.705788
0
LINE
8
Layer 1
10
592.405777
20
198.705788
11
591.631598
21
199.644868
0
LINE
8
Layer 1
10
591.631598
20
199.644868
11
591.047473
21
200.723698
0
LINE
8
Layer 1
10
591.047473
20
200.723698
11
590.678553
21
201.917126
0
LINE
8
Layer 1
10
590.678553
20
201.917126
11
590.549990
21
203.200000
0
LINE
8
Layer 1
10
590.549990
20
203.200000
11
590.549990
21
203.200000
0
LINE
8
Layer 1
10
590.549990
20
152.400000
11
590.549990
21
190.500000
0
LINE
8
Layer 1
10
590.549990
20
190.500000
11
590.678553
21
191.782874
0
LINE
8
Layer 1
10
590.678553
20
191.782874
11
591.047473
21
192.976302
0
LINE
8
Layer 1
10
591.047473
20
192.976302
11
591.631598
21
194.055132
0
LINE
8
Layer 1
10
591.631598
20
194.055132
11
592.405777
21
194.994213
0
LINE
8
Layer 1
10
592.405777
20
194.994213
11
593.344858
21
195.768392
0
LINE
8
Layer 1
10
593.344858
20
195.768392
11
594.423688
21
196.352517
0
LINE
8
Layer 1
10
594.423688
20
196.352517
11
595.617116
21
196.721437
0
LINE
8
Layer 1
10
595.617116
20
196.721437
11
596.899990
21
196.850000
0
LINE
8
Layer 1
10
596.899990
20
196.850000
11
598.182864
21
196.721437
0
LINE
8
Layer 1
10
598.182864
20
196.721437
11
599.376292
21
196.352517
0
LINE
8
Layer 1
10
599.376292
20
196.352517
11
600.455122
21
195.768392
0
LINE
8
Layer 1
10
600.455122
20
195.768392
11
601.394203
21
194.994213
0
LINE
8
Layer 1
10
601.394203
20
194.994213
11
602.168382
21
194.055132
0
LINE
8
Layer 1
10
602.168382
20
194.055132
11
602.752507
21
192.976302
0
LINE
8
Layer 1
10
602.752507
20
192.976302
11
603.121427
21
191.782874
0
LINE
8
Layer 1
10
603.121427
20
191.782874
11
603.249990
21
190.500000
0
LINE
8
Layer 1
10
603.249990
20
190.500000
11
603.249990
21
152.400000
0
LINE
8
Layer 1
10
603.249990
20
152.400000
11
603.121427
21
151.117126
0
LINE
8
Layer 1
10
603.121427
20
151.117126
11
602.752507
21
149.923698
0
LINE
8
Layer 1
10
602.752507
20
149.923698
11
602.168382
21
148.844868
0
LINE
8
Layer 1
10
602.168382
20
148.844868
11
601.394203
21
147.905788
0
LINE
8
Layer 1
10
601.394203
20
147.905788
11
600.455122
21
147.131608
0
LINE
8
Layer 1
10
600.455122
20
147.131608
11
599.376292
21
146.547483
0
LINE
8
Layer 1
10
599.376292
20
146.547483
11
598.182864
21
146.178563
0
LINE
8
Layer 1
10
598.182864
20
146.178563
11
596.899990
21
146.050000
0
LINE
8
Layer 1
10
596.899990
20
146.050000
11
595.617116
21
146.178563
0
LINE
8
Layer 1
10
595.617116
20
146.178563
11
594.423688
21
146.547483
0
LINE
8
Layer 1
10
594.423688
20
146.547483
11
593.344858
21
147.131608
0
LINE
8
Layer 1
10
593.344858
20
147.131608
11
592.405777
21
147.905788
0
LINE
8
Layer 1
10
592.405777
20
147.905788
11
591.631598
21
148.844868
0
LINE
8
Layer 1
10
591.631598
20
148.844868
11
591.047473
21
149.923698
0
LINE
8
Layer 1
10
591.047473
20
149.923698
11
590.678553
21
151.117126
0
LINE
8
Layer 1
10
590.678553
20
151.117126
11
590.549990
21
152.400000
0
LINE
8
Layer 1
10
590.549990
20
152.400000
11
590.549990
21
152.400000
 0 
ENDSEC
 0 
EOF