999
"DXF R12 Output" (www.mydxf.blogspot.com)
 0 
SECTION
 2 
HEADER
 9 
$ACADVER
 1 
AC1009
 9 
$EXTMIN
 10 
 0 
 20 
 0 
 9 
$EXTMAX
 10 
 8.5 
 20 
 11 
 0 
ENDSEC
 0 
SECTION
 2 
ENTITIES
0
LINE
8
Layer 1
10
6.349994
20
25.400010
11
6.349994
21
19.050010
0
LINE
8
Layer 1
10
6.349994
20
19.050010
11
-0.000006
21
19.050010
0
LINE
8
Layer 1
10
-0.000006
20
19.050010
11
-0.000006
21
6.350010
0
LINE
8
Layer 1
10
-0.000006
20
6.350010
11
6.349994
21
6.350010
0
LINE
8
Layer 1
10
6.349994
20
6.350010
11
6.349994
21
0.000010
0
LINE
8
Layer 1
10
6.349994
20
0.000010
11
98.424996
21
0.000010
0
LINE
8
Layer 1
10
98.424996
20
0.000010
11
98.424996
21
6.350010
0
LINE
8
Layer 1
10
98.424996
20
6.350010
11
104.775000
21
6.350010
0
LINE
8
Layer 1
10
104.775000
20
6.350010
11
104.775000
21
0.000010
0
LINE
8
Layer 1
10
104.775000
20
0.000010
11
200.025000
21
0.000010
0
LINE
8
Layer 1
10
200.025000
20
0.000010
11
200.025000
21
6.350010
0
LINE
8
Layer 1
10
200.025000
20
6.350010
11
206.375000
21
6.350010
0
LINE
8
Layer 1
10
206.375000
20
6.350010
11
206.375000
21
0.000010
0
LINE
8
Layer 1
10
206.375000
20
0.000010
11
298.450010
21
0.000010
0
LINE
8
Layer 1
10
298.450010
20
0.000010
11
298.450010
21
6.350010
0
LINE
8
Layer 1
10
298.450010
20
6.350010
11
304.800010
21
6.350010
0
LINE
8
Layer 1
10
304.800010
20
6.350010
11
304.800010
21
19.050010
0
LINE
8
Layer 1
10
304.800010
20
19.050010
11
298.450010
21
19.050010
0
LINE
8
Layer 1
10
298.450010
20
19.050010
11
298.450010
21
25.400010
0
LINE
8
Layer 1
10
298.450010
20
25.400010
11
206.375000
21
25.400010
0
LINE
8
Layer 1
10
206.375000
20
25.400010
11
206.375000
21
19.050010
0
LINE
8
Layer 1
10
206.375000
20
19.050010
11
200.025000
21
19.050010
0
LINE
8
Layer 1
10
200.025000
20
19.050010
11
200.025000
21
25.400010
0
LINE
8
Layer 1
10
200.025000
20
25.400010
11
104.775000
21
25.400010
0
LINE
8
Layer 1
10
104.775000
20
25.400010
11
104.775000
21
19.050010
0
LINE
8
Layer 1
10
104.775000
20
19.050010
11
98.424996
21
19.050010
0
LINE
8
Layer 1
10
98.424996
20
19.050010
11
98.424996
21
25.400010
0
LINE
8
Layer 1
10
98.424996
20
25.400010
11
6.349994
21
25.400010
0
LINE
8
Layer 1
10
158.750000
20
168.275000
11
158.750000
21
161.925000
0
LINE
8
Layer 1
10
158.750000
20
161.925000
11
152.400000
21
161.925000
0
LINE
8
Layer 1
10
152.400000
20
161.925000
11
152.400000
21
155.575000
0
LINE
8
Layer 1
10
152.400000
20
155.575000
11
158.750000
21
155.575000
0
LINE
8
Layer 1
10
158.750000
20
155.575000
11
158.750000
21
149.225000
0
LINE
8
Layer 1
10
158.750000
20
149.225000
11
304.800000
21
149.225000
0
LINE
8
Layer 1
10
304.800000
20
149.225000
11
304.800000
21
155.575000
0
LINE
8
Layer 1
10
304.800000
20
155.575000
11
298.450000
21
155.575000
0
LINE
8
Layer 1
10
298.450000
20
155.575000
11
298.450000
21
161.925000
0
LINE
8
Layer 1
10
298.450000
20
161.925000
11
304.800000
21
161.925000
0
LINE
8
Layer 1
10
304.800000
20
161.925000
11
304.800000
21
168.275000
0
LINE
8
Layer 1
10
304.800000
20
168.275000
11
234.950000
21
168.275000
0
LINE
8
Layer 1
10
234.950000
20
168.275000
11
234.950000
21
161.925000
0
LINE
8
Layer 1
10
234.950000
20
161.925000
11
222.250000
21
161.925000
0
LINE
8
Layer 1
10
222.250000
20
161.925000
11
222.250000
21
168.275000
0
LINE
8
Layer 1
10
222.250000
20
168.275000
11
158.750000
21
168.275000
0
LINE
8
Layer 1
10
184.150000
20
161.925000
11
209.550000
21
161.925000
0
LINE
8
Layer 1
10
209.550000
20
161.925000
11
209.550000
21
155.575000
0
LINE
8
Layer 1
10
209.550000
20
155.575000
11
184.150000
21
155.575000
0
LINE
8
Layer 1
10
184.150000
20
155.575000
11
184.150000
21
161.925000
0
LINE
8
Layer 1
10
247.650000
20
161.925000
11
273.050000
21
161.925000
0
LINE
8
Layer 1
10
273.050000
20
161.925000
11
273.050000
21
155.575000
0
LINE
8
Layer 1
10
273.050000
20
155.575000
11
247.650000
21
155.575000
0
LINE
8
Layer 1
10
247.650000
20
155.575000
11
247.650000
21
161.925000
0
LINE
8
Layer 1
10
12.700000
20
168.275000
11
12.700000
21
161.925000
0
LINE
8
Layer 1
10
12.700000
20
161.925000
11
6.350000
21
161.925000
0
LINE
8
Layer 1
10
6.350000
20
161.925000
11
6.350000
21
155.575000
0
LINE
8
Layer 1
10
6.350000
20
155.575000
11
12.700000
21
155.575000
0
LINE
8
Layer 1
10
12.700000
20
155.575000
11
12.700000
21
149.225000
0
LINE
8
Layer 1
10
12.700000
20
149.225000
11
158.750000
21
149.225000
0
LINE
8
Layer 1
10
158.750000
20
149.225000
11
158.750000
21
155.575000
0
LINE
8
Layer 1
10
158.750000
20
155.575000
11
152.400000
21
155.575000
0
LINE
8
Layer 1
10
152.400000
20
155.575000
11
152.400000
21
161.925000
0
LINE
8
Layer 1
10
152.400000
20
161.925000
11
158.750000
21
161.925000
0
LINE
8
Layer 1
10
158.750000
20
161.925000
11
158.750000
21
168.275000
0
LINE
8
Layer 1
10
158.750000
20
168.275000
11
88.900000
21
168.275000
0
LINE
8
Layer 1
10
88.900000
20
168.275000
11
88.900000
21
161.925000
0
LINE
8
Layer 1
10
88.900000
20
161.925000
11
76.200000
21
161.925000
0
LINE
8
Layer 1
10
76.200000
20
161.925000
11
76.200000
21
168.275000
0
LINE
8
Layer 1
10
76.200000
20
168.275000
11
12.700000
21
168.275000
0
LINE
8
Layer 1
10
38.100000
20
161.925000
11
63.500000
21
161.925000
0
LINE
8
Layer 1
10
63.500000
20
161.925000
11
63.500000
21
155.575000
0
LINE
8
Layer 1
10
63.500000
20
155.575000
11
38.100000
21
155.575000
0
LINE
8
Layer 1
10
38.100000
20
155.575000
11
38.100000
21
161.925000
0
LINE
8
Layer 1
10
101.600000
20
161.925000
11
127.000000
21
161.925000
0
LINE
8
Layer 1
10
127.000000
20
161.925000
11
127.000000
21
155.575000
0
LINE
8
Layer 1
10
127.000000
20
155.575000
11
101.600000
21
155.575000
0
LINE
8
Layer 1
10
101.600000
20
155.575000
11
101.600000
21
161.925000
0
LINE
8
Layer 1
10
120.650000
20
25.399550
11
120.650000
21
31.749550
0
LINE
8
Layer 1
10
120.650000
20
31.749550
11
146.050000
21
31.749550
0
LINE
8
Layer 1
10
146.050000
20
31.749550
11
146.050000
21
44.449550
0
LINE
8
Layer 1
10
146.050000
20
44.449550
11
152.400000
21
44.449550
0
LINE
8
Layer 1
10
152.400000
20
44.449550
11
152.400000
21
63.499550
0
LINE
8
Layer 1
10
152.400000
20
63.499550
11
146.050000
21
63.499550
0
LINE
8
Layer 1
10
146.050000
20
63.499550
11
146.050000
21
92.074550
0
LINE
8
Layer 1
10
146.050000
20
92.074550
11
152.400000
21
92.074550
0
LINE
8
Layer 1
10
152.400000
20
92.074550
11
152.400000
21
111.124550
0
LINE
8
Layer 1
10
152.400000
20
111.124550
11
146.050000
21
111.124550
0
LINE
8
Layer 1
10
146.050000
20
111.124550
11
146.050000
21
123.824550
0
LINE
8
Layer 1
10
146.050000
20
123.824550
11
120.650000
21
123.824550
0
LINE
8
Layer 1
10
120.650000
20
123.824550
11
120.650000
21
130.174550
0
LINE
8
Layer 1
10
120.650000
20
130.174550
11
95.250000
21
130.174550
0
LINE
8
Layer 1
10
95.250000
20
130.174550
11
95.250000
21
123.824550
0
LINE
8
Layer 1
10
95.250000
20
123.824550
11
57.150000
21
123.824550
0
LINE
8
Layer 1
10
57.150000
20
123.824550
11
57.150000
21
130.174550
0
LINE
8
Layer 1
10
57.150000
20
130.174550
11
31.750000
21
130.174550
0
LINE
8
Layer 1
10
31.750000
20
130.174550
11
31.750000
21
123.824550
0
LINE
8
Layer 1
10
31.750000
20
123.824550
11
6.350000
21
123.824550
0
LINE
8
Layer 1
10
6.350000
20
123.824550
11
6.350000
21
111.124550
0
LINE
8
Layer 1
10
6.350000
20
111.124550
11
-0.000000
21
111.124550
0
LINE
8
Layer 1
10
-0.000000
20
111.124550
11
-0.000000
21
92.074550
0
LINE
8
Layer 1
10
-0.000000
20
92.074550
11
6.350000
21
92.074550
0
LINE
8
Layer 1
10
6.350000
20
92.074550
11
6.350000
21
63.499550
0
LINE
8
Layer 1
10
6.350000
20
63.499550
11
-0.000000
21
63.499550
0
LINE
8
Layer 1
10
-0.000000
20
63.499550
11
-0.000000
21
44.449550
0
LINE
8
Layer 1
10
-0.000000
20
44.449550
11
6.350000
21
44.449550
0
LINE
8
Layer 1
10
6.350000
20
44.449550
11
6.350000
21
31.749550
0
LINE
8
Layer 1
10
6.350000
20
31.749550
11
31.750000
21
31.749550
0
LINE
8
Layer 1
10
31.750000
20
31.749550
11
31.750000
21
25.399550
0
LINE
8
Layer 1
10
31.750000
20
25.399550
11
57.150000
21
25.399550
0
LINE
8
Layer 1
10
57.150000
20
25.399550
11
57.150000
21
31.749550
0
LINE
8
Layer 1
10
57.150000
20
31.749550
11
95.250000
21
31.749550
0
LINE
8
Layer 1
10
95.250000
20
31.749550
11
95.250000
21
25.399550
0
LINE
8
Layer 1
10
95.250000
20
25.399550
11
120.650000
21
25.399550
0
LINE
8
Layer 1
10
31.749990
20
101.599740
11
31.838651
21
102.495858
0
LINE
8
Layer 1
10
31.838651
20
102.495858
11
32.098013
21
103.349369
0
LINE
8
Layer 1
10
32.098013
20
103.349369
11
32.518140
21
104.136288
0
LINE
8
Layer 1
10
32.518140
20
104.136288
11
33.089098
21
104.832632
0
LINE
8
Layer 1
10
33.089098
20
104.832632
11
33.785442
21
105.403590
0
LINE
8
Layer 1
10
33.785442
20
105.403590
11
34.572361
21
105.823717
0
LINE
8
Layer 1
10
34.572361
20
105.823717
11
35.425872
21
106.083079
0
LINE
8
Layer 1
10
35.425872
20
106.083079
11
36.321990
21
106.171740
0
LINE
8
Layer 1
10
36.321990
20
106.171740
11
37.218108
21
106.083079
0
LINE
8
Layer 1
10
37.218108
20
106.083079
11
38.071619
21
105.823717
0
LINE
8
Layer 1
10
38.071619
20
105.823717
11
38.858538
21
105.403590
0
LINE
8
Layer 1
10
38.858538
20
105.403590
11
39.554882
21
104.832632
0
LINE
8
Layer 1
10
39.554882
20
104.832632
11
40.125840
21
104.136288
0
LINE
8
Layer 1
10
40.125840
20
104.136288
11
40.545967
21
103.349369
0
LINE
8
Layer 1
10
40.545967
20
103.349369
11
40.805329
21
102.495858
0
LINE
8
Layer 1
10
40.805329
20
102.495858
11
40.893990
21
101.599740
0
LINE
8
Layer 1
10
40.893990
20
101.599740
11
40.805329
21
100.703622
0
LINE
8
Layer 1
10
40.805329
20
100.703622
11
40.545967
21
99.850111
0
LINE
8
Layer 1
10
40.545967
20
99.850111
11
40.125840
21
99.063192
0
LINE
8
Layer 1
10
40.125840
20
99.063192
11
39.554882
21
98.366848
0
LINE
8
Layer 1
10
39.554882
20
98.366848
11
38.858538
21
97.795890
0
LINE
8
Layer 1
10
38.858538
20
97.795890
11
38.071619
21
97.375763
0
LINE
8
Layer 1
10
38.071619
20
97.375763
11
37.218108
21
97.116401
0
LINE
8
Layer 1
10
37.218108
20
97.116401
11
36.321990
21
97.027740
0
LINE
8
Layer 1
10
36.321990
20
97.027740
11
35.425872
21
97.116401
0
LINE
8
Layer 1
10
35.425872
20
97.116401
11
34.572361
21
97.375763
0
LINE
8
Layer 1
10
34.572361
20
97.375763
11
33.785442
21
97.795890
0
LINE
8
Layer 1
10
33.785442
20
97.795890
11
33.089098
21
98.366848
0
LINE
8
Layer 1
10
33.089098
20
98.366848
11
32.518140
21
99.063192
0
LINE
8
Layer 1
10
32.518140
20
99.063192
11
32.098013
21
99.850111
0
LINE
8
Layer 1
10
32.098013
20
99.850111
11
31.838651
21
100.703622
0
LINE
8
Layer 1
10
31.838651
20
100.703622
11
31.749990
21
101.599740
0
LINE
8
Layer 1
10
31.749990
20
101.599740
11
31.749990
21
101.599740
0
LINE
8
Layer 1
10
111.506003
20
101.599740
11
111.594664
21
102.495858
0
LINE
8
Layer 1
10
111.594664
20
102.495858
11
111.854026
21
103.349369
0
LINE
8
Layer 1
10
111.854026
20
103.349369
11
112.274153
21
104.136288
0
LINE
8
Layer 1
10
112.274153
20
104.136288
11
112.845111
21
104.832632
0
LINE
8
Layer 1
10
112.845111
20
104.832632
11
113.541455
21
105.403590
0
LINE
8
Layer 1
10
113.541455
20
105.403590
11
114.328374
21
105.823717
0
LINE
8
Layer 1
10
114.328374
20
105.823717
11
115.181885
21
106.083079
0
LINE
8
Layer 1
10
115.181885
20
106.083079
11
116.078003
21
106.171740
0
LINE
8
Layer 1
10
116.078003
20
106.171740
11
116.999420
21
106.078853
0
LINE
8
Layer 1
10
116.999420
20
106.078853
11
117.857632
21
105.812450
0
LINE
8
Layer 1
10
117.857632
20
105.812450
11
118.634252
21
105.390914
0
LINE
8
Layer 1
10
118.634252
20
105.390914
11
119.310895
21
104.832632
0
LINE
8
Layer 1
10
119.310895
20
104.832632
11
119.869177
21
104.155989
0
LINE
8
Layer 1
10
119.869177
20
104.155989
11
120.290713
21
103.379369
0
LINE
8
Layer 1
10
120.290713
20
103.379369
11
120.557116
21
102.521157
0
LINE
8
Layer 1
10
120.557116
20
102.521157
11
120.650003
21
101.599740
0
LINE
8
Layer 1
10
120.650003
20
101.599740
11
120.561342
21
100.703622
0
LINE
8
Layer 1
10
120.561342
20
100.703622
11
120.301980
21
99.850111
0
LINE
8
Layer 1
10
120.301980
20
99.850111
11
119.881853
21
99.063192
0
LINE
8
Layer 1
10
119.881853
20
99.063192
11
119.310895
21
98.366848
0
LINE
8
Layer 1
10
119.310895
20
98.366848
11
118.614551
21
97.795890
0
LINE
8
Layer 1
10
118.614551
20
97.795890
11
117.827632
21
97.375763
0
LINE
8
Layer 1
10
117.827632
20
97.375763
11
116.974121
21
97.116401
0
LINE
8
Layer 1
10
116.974121
20
97.116401
11
116.078003
21
97.027740
0
LINE
8
Layer 1
10
116.078003
20
97.027740
11
115.181885
21
97.116401
0
LINE
8
Layer 1
10
115.181885
20
97.116401
11
114.328374
21
97.375763
0
LINE
8
Layer 1
10
114.328374
20
97.375763
11
113.541455
21
97.795890
0
LINE
8
Layer 1
10
113.541455
20
97.795890
11
112.845111
21
98.366848
0
LINE
8
Layer 1
10
112.845111
20
98.366848
11
112.274153
21
99.063192
0
LINE
8
Layer 1
10
112.274153
20
99.063192
11
111.854026
21
99.850111
0
LINE
8
Layer 1
10
111.854026
20
99.850111
11
111.594664
21
100.703622
0
LINE
8
Layer 1
10
111.594664
20
100.703622
11
111.506003
21
101.599740
0
LINE
8
Layer 1
10
111.506003
20
101.599740
11
111.506003
21
101.599740
0
LINE
8
Layer 1
10
31.750000
20
53.974720
11
31.838661
21
53.078602
0
LINE
8
Layer 1
10
31.838661
20
53.078602
11
32.098023
21
52.225091
0
LINE
8
Layer 1
10
32.098023
20
52.225091
11
32.518150
21
51.438172
0
LINE
8
Layer 1
10
32.518150
20
51.438172
11
33.089108
21
50.741828
0
LINE
8
Layer 1
10
33.089108
20
50.741828
11
33.785452
21
50.170870
0
LINE
8
Layer 1
10
33.785452
20
50.170870
11
34.572371
21
49.750743
0
LINE
8
Layer 1
10
34.572371
20
49.750743
11
35.425882
21
49.491381
0
LINE
8
Layer 1
10
35.425882
20
49.491381
11
36.322000
21
49.402720
0
LINE
8
Layer 1
10
36.322000
20
49.402720
11
37.218118
21
49.491381
0
LINE
8
Layer 1
10
37.218118
20
49.491381
11
38.071629
21
49.750743
0
LINE
8
Layer 1
10
38.071629
20
49.750743
11
38.858548
21
50.170870
0
LINE
8
Layer 1
10
38.858548
20
50.170870
11
39.554892
21
50.741828
0
LINE
8
Layer 1
10
39.554892
20
50.741828
11
40.125850
21
51.438172
0
LINE
8
Layer 1
10
40.125850
20
51.438172
11
40.545977
21
52.225091
0
LINE
8
Layer 1
10
40.545977
20
52.225091
11
40.805339
21
53.078602
0
LINE
8
Layer 1
10
40.805339
20
53.078602
11
40.894000
21
53.974720
0
LINE
8
Layer 1
10
40.894000
20
53.974720
11
40.805339
21
54.870838
0
LINE
8
Layer 1
10
40.805339
20
54.870838
11
40.545977
21
55.724349
0
LINE
8
Layer 1
10
40.545977
20
55.724349
11
40.125850
21
56.511268
0
LINE
8
Layer 1
10
40.125850
20
56.511268
11
39.554892
21
57.207612
0
LINE
8
Layer 1
10
39.554892
20
57.207612
11
38.858548
21
57.778570
0
LINE
8
Layer 1
10
38.858548
20
57.778570
11
38.071629
21
58.198697
0
LINE
8
Layer 1
10
38.071629
20
58.198697
11
37.218118
21
58.458059
0
LINE
8
Layer 1
10
37.218118
20
58.458059
11
36.322000
21
58.546720
0
LINE
8
Layer 1
10
36.322000
20
58.546720
11
35.425882
21
58.458059
0
LINE
8
Layer 1
10
35.425882
20
58.458059
11
34.572371
21
58.198697
0
LINE
8
Layer 1
10
34.572371
20
58.198697
11
33.785452
21
57.778570
0
LINE
8
Layer 1
10
33.785452
20
57.778570
11
33.089108
21
57.207612
0
LINE
8
Layer 1
10
33.089108
20
57.207612
11
32.518150
21
56.511268
0
LINE
8
Layer 1
10
32.518150
20
56.511268
11
32.098023
21
55.724349
0
LINE
8
Layer 1
10
32.098023
20
55.724349
11
31.838661
21
54.870838
0
LINE
8
Layer 1
10
31.838661
20
54.870838
11
31.750000
21
53.974720
0
LINE
8
Layer 1
10
31.750000
20
53.974720
11
31.750000
21
53.974720
0
LINE
8
Layer 1
10
111.506002
20
53.974720
11
111.594663
21
53.078602
0
LINE
8
Layer 1
10
111.594663
20
53.078602
11
111.854025
21
52.225091
0
LINE
8
Layer 1
10
111.854025
20
52.225091
11
112.274152
21
51.438172
0
LINE
8
Layer 1
10
112.274152
20
51.438172
11
112.845110
21
50.741828
0
LINE
8
Layer 1
10
112.845110
20
50.741828
11
113.541454
21
50.170870
0
LINE
8
Layer 1
10
113.541454
20
50.170870
11
114.328373
21
49.750743
0
LINE
8
Layer 1
10
114.328373
20
49.750743
11
115.181884
21
49.491381
0
LINE
8
Layer 1
10
115.181884
20
49.491381
11
116.078002
21
49.402720
0
LINE
8
Layer 1
10
116.078002
20
49.402720
11
116.974120
21
49.491381
0
LINE
8
Layer 1
10
116.974120
20
49.491381
11
117.827631
21
49.750742
0
LINE
8
Layer 1
10
117.827631
20
49.750742
11
118.614550
21
50.170869
0
LINE
8
Layer 1
10
118.614550
20
50.170869
11
119.310895
21
50.741827
0
LINE
8
Layer 1
10
119.310895
20
50.741827
11
119.881853
21
51.438172
0
LINE
8
Layer 1
10
119.881853
20
51.438172
11
120.301980
21
52.225091
0
LINE
8
Layer 1
10
120.301980
20
52.225091
11
120.561342
21
53.078602
0
LINE
8
Layer 1
10
120.561342
20
53.078602
11
120.650003
21
53.974720
0
LINE
8
Layer 1
10
120.650003
20
53.974720
11
120.561342
21
54.870838
0
LINE
8
Layer 1
10
120.561342
20
54.870838
11
120.301980
21
55.724349
0
LINE
8
Layer 1
10
120.301980
20
55.724349
11
119.881853
21
56.511268
0
LINE
8
Layer 1
10
119.881853
20
56.511268
11
119.310895
21
57.207613
0
LINE
8
Layer 1
10
119.310895
20
57.207613
11
118.614550
21
57.778571
0
LINE
8
Layer 1
10
118.614550
20
57.778571
11
117.827631
21
58.198698
0
LINE
8
Layer 1
10
117.827631
20
58.198698
11
116.974120
21
58.458059
0
LINE
8
Layer 1
10
116.974120
20
58.458059
11
116.078002
21
58.546720
0
LINE
8
Layer 1
10
116.078002
20
58.546720
11
115.181884
21
58.458059
0
LINE
8
Layer 1
10
115.181884
20
58.458059
11
114.328373
21
58.198697
0
LINE
8
Layer 1
10
114.328373
20
58.198697
11
113.541454
21
57.778570
0
LINE
8
Layer 1
10
113.541454
20
57.778570
11
112.845110
21
57.207612
0
LINE
8
Layer 1
10
112.845110
20
57.207612
11
112.274152
21
56.511268
0
LINE
8
Layer 1
10
112.274152
20
56.511268
11
111.854025
21
55.724349
0
LINE
8
Layer 1
10
111.854025
20
55.724349
11
111.594663
21
54.870838
0
LINE
8
Layer 1
10
111.594663
20
54.870838
11
111.506002
21
53.974720
0
LINE
8
Layer 1
10
111.506002
20
53.974720
11
111.506002
21
53.974720
0
LINE
8
Layer 1
10
104.775000
20
238.125000
11
98.425000
21
238.125000
0
LINE
8
Layer 1
10
98.425000
20
238.125000
11
98.425000
21
244.475000
0
LINE
8
Layer 1
10
98.425000
20
244.475000
11
104.775000
21
244.475000
0
LINE
8
Layer 1
10
104.775000
20
244.475000
11
104.775000
21
238.125000
0
LINE
8
Layer 1
10
171.450000
20
238.125000
11
133.350000
21
238.125000
0
LINE
8
Layer 1
10
133.350000
20
238.125000
11
132.067126
21
238.253563
0
LINE
8
Layer 1
10
132.067126
20
238.253563
11
130.873698
21
238.622483
0
LINE
8
Layer 1
10
130.873698
20
238.622483
11
129.794868
21
239.206609
0
LINE
8
Layer 1
10
129.794868
20
239.206609
11
128.855787
21
239.980789
0
LINE
8
Layer 1
10
128.855787
20
239.980789
11
128.081608
21
240.919869
0
LINE
8
Layer 1
10
128.081608
20
240.919869
11
127.497483
21
241.998700
0
LINE
8
Layer 1
10
127.497483
20
241.998700
11
127.128563
21
243.192127
0
LINE
8
Layer 1
10
127.128563
20
243.192127
11
127.000000
21
244.475000
0
LINE
8
Layer 1
10
127.000000
20
244.475000
11
127.128563
21
245.757872
0
LINE
8
Layer 1
10
127.128563
20
245.757872
11
127.497483
21
246.951300
0
LINE
8
Layer 1
10
127.497483
20
246.951300
11
128.081608
21
248.030130
0
LINE
8
Layer 1
10
128.081608
20
248.030130
11
128.855787
21
248.969211
0
LINE
8
Layer 1
10
128.855787
20
248.969211
11
129.794868
21
249.743391
0
LINE
8
Layer 1
10
129.794868
20
249.743391
11
130.873698
21
250.327517
0
LINE
8
Layer 1
10
130.873698
20
250.327517
11
132.067126
21
250.696437
0
LINE
8
Layer 1
10
132.067126
20
250.696437
11
133.350000
21
250.825000
0
LINE
8
Layer 1
10
133.350000
20
250.825000
11
171.450000
21
250.825000
0
LINE
8
Layer 1
10
171.450000
20
250.825000
11
172.732874
21
250.696437
0
LINE
8
Layer 1
10
172.732874
20
250.696437
11
173.926302
21
250.327517
0
LINE
8
Layer 1
10
173.926302
20
250.327517
11
175.005132
21
249.743391
0
LINE
8
Layer 1
10
175.005132
20
249.743391
11
175.944212
21
248.969211
0
LINE
8
Layer 1
10
175.944212
20
248.969211
11
176.718392
21
248.030130
0
LINE
8
Layer 1
10
176.718392
20
248.030130
11
177.302517
21
246.951300
0
LINE
8
Layer 1
10
177.302517
20
246.951300
11
177.671437
21
245.757872
0
LINE
8
Layer 1
10
177.671437
20
245.757872
11
177.800000
21
244.475000
0
LINE
8
Layer 1
10
177.800000
20
244.475000
11
177.671437
21
243.192127
0
LINE
8
Layer 1
10
177.671437
20
243.192127
11
177.302517
21
241.998700
0
LINE
8
Layer 1
10
177.302517
20
241.998700
11
176.718392
21
240.919869
0
LINE
8
Layer 1
10
176.718392
20
240.919869
11
175.944212
21
239.980789
0
LINE
8
Layer 1
10
175.944212
20
239.980789
11
175.005132
21
239.206609
0
LINE
8
Layer 1
10
175.005132
20
239.206609
11
173.926302
21
238.622483
0
LINE
8
Layer 1
10
173.926302
20
238.622483
11
172.732874
21
238.253563
0
LINE
8
Layer 1
10
172.732874
20
238.253563
11
171.450000
21
238.125000
0
LINE
8
Layer 1
10
171.450000
20
238.125000
11
171.450000
21
238.125000
0
LINE
8
Layer 1
10
206.375000
20
238.125000
11
200.025000
21
238.125000
0
LINE
8
Layer 1
10
200.025000
20
238.125000
11
200.025000
21
244.475000
0
LINE
8
Layer 1
10
200.025000
20
244.475000
11
206.375000
21
244.475000
0
LINE
8
Layer 1
10
206.375000
20
244.475000
11
206.375000
21
238.125000
0
LINE
8
Layer 1
10
304.800000
20
187.325000
11
304.800000
21
244.475000
0
LINE
8
Layer 1
10
304.800000
20
244.475000
11
298.450000
21
244.475000
0
LINE
8
Layer 1
10
298.450000
20
244.475000
11
298.450000
21
250.825000
0
LINE
8
Layer 1
10
298.450000
20
250.825000
11
304.800000
21
250.825000
0
LINE
8
Layer 1
10
304.800000
20
250.825000
11
304.800000
21
257.175000
0
LINE
8
Layer 1
10
304.800000
20
257.175000
11
206.375000
21
257.175000
0
LINE
8
Layer 1
10
206.375000
20
257.175000
11
206.375000
21
250.825000
0
LINE
8
Layer 1
10
206.375000
20
250.825000
11
200.025000
21
250.825000
0
LINE
8
Layer 1
10
200.025000
20
250.825000
11
200.025000
21
257.175000
0
LINE
8
Layer 1
10
200.025000
20
257.175000
11
104.775000
21
257.175000
0
LINE
8
Layer 1
10
104.775000
20
257.175000
11
104.775000
21
250.825000
0
LINE
8
Layer 1
10
104.775000
20
250.825000
11
98.425000
21
250.825000
0
LINE
8
Layer 1
10
98.425000
20
250.825000
11
98.425000
21
257.175000
0
LINE
8
Layer 1
10
98.425000
20
257.175000
11
0.000000
21
257.175000
0
LINE
8
Layer 1
10
0.000000
20
257.175000
11
0.000000
21
250.825000
0
LINE
8
Layer 1
10
0.000000
20
250.825000
11
6.350000
21
250.825000
0
LINE
8
Layer 1
10
6.350000
20
250.825000
11
6.350000
21
244.475000
0
LINE
8
Layer 1
10
6.350000
20
244.475000
11
0.000000
21
244.475000
0
LINE
8
Layer 1
10
0.000000
20
244.475000
11
0.000000
21
187.325000
0
LINE
8
Layer 1
10
0.000000
20
187.325000
11
304.800000
21
187.325000
0
LINE
8
Layer 1
10
66.675000
20
250.825000
11
85.724999
21
250.825000
0
LINE
8
Layer 1
10
85.724999
20
250.825000
11
85.724999
21
244.475000
0
LINE
8
Layer 1
10
85.724999
20
244.475000
11
66.675000
21
244.475000
0
LINE
8
Layer 1
10
66.675000
20
244.475000
11
66.675000
21
250.825000
0
LINE
8
Layer 1
10
219.075000
20
250.825000
11
238.125000
21
250.825000
0
LINE
8
Layer 1
10
238.125000
20
250.825000
11
238.125000
21
244.475000
0
LINE
8
Layer 1
10
238.125000
20
244.475000
11
219.075000
21
244.475000
0
LINE
8
Layer 1
10
219.075000
20
244.475000
11
219.075000
21
250.825000
0
LINE
8
Layer 1
10
19.049999
20
250.825000
11
38.099998
21
250.825000
0
LINE
8
Layer 1
10
38.099998
20
250.825000
11
38.099998
21
244.475000
0
LINE
8
Layer 1
10
38.099998
20
244.475000
11
19.049999
21
244.475000
0
LINE
8
Layer 1
10
19.049999
20
244.475000
11
19.049999
21
250.825000
0
LINE
8
Layer 1
10
266.700010
20
250.825000
11
285.750010
21
250.825000
0
LINE
8
Layer 1
10
285.750010
20
250.825000
11
285.750010
21
244.475000
0
LINE
8
Layer 1
10
285.750010
20
244.475000
11
266.700010
21
244.475000
0
LINE
8
Layer 1
10
266.700010
20
244.475000
11
266.700010
21
250.825000
0
LINE
8
Layer 1
10
200.025000
20
180.975000
11
206.375000
21
180.975000
0
LINE
8
Layer 1
10
206.375000
20
180.975000
11
206.375000
21
174.625000
0
LINE
8
Layer 1
10
206.375000
20
174.625000
11
200.025000
21
174.625000
0
LINE
8
Layer 1
10
200.025000
20
174.625000
11
200.025000
21
180.975000
0
LINE
8
Layer 1
10
98.425000
20
180.975000
11
104.775000
21
180.975000
0
LINE
8
Layer 1
10
104.775000
20
180.975000
11
104.775000
21
174.625000
0
LINE
8
Layer 1
10
104.775000
20
174.625000
11
98.425000
21
174.625000
0
LINE
8
Layer 1
10
98.425000
20
174.625000
11
98.425000
21
180.975000
0
LINE
8
Layer 1
10
6.350000
20
187.325000
11
6.350000
21
180.975000
0
LINE
8
Layer 1
10
6.350000
20
180.975000
11
0.000000
21
180.975000
0
LINE
8
Layer 1
10
0.000000
20
180.975000
11
0.000000
21
174.625000
0
LINE
8
Layer 1
10
0.000000
20
174.625000
11
6.350000
21
174.625000
0
LINE
8
Layer 1
10
6.350000
20
174.625000
11
6.350000
21
168.275000
0
LINE
8
Layer 1
10
6.350000
20
168.275000
11
298.450000
21
168.275000
0
LINE
8
Layer 1
10
298.450000
20
168.275000
11
298.450000
21
174.625000
0
LINE
8
Layer 1
10
298.450000
20
174.625000
11
304.800000
21
174.625000
0
LINE
8
Layer 1
10
304.800000
20
174.625000
11
304.800000
21
180.975000
0
LINE
8
Layer 1
10
304.800000
20
180.975000
11
298.450000
21
180.975000
0
LINE
8
Layer 1
10
298.450000
20
180.975000
11
298.450000
21
187.325000
0
LINE
8
Layer 1
10
298.450000
20
187.325000
11
6.350000
21
187.325000
0
LINE
8
Layer 1
10
19.049999
20
180.975010
11
38.099998
21
180.975010
0
LINE
8
Layer 1
10
38.099998
20
180.975010
11
38.099998
21
174.625010
0
LINE
8
Layer 1
10
38.099998
20
174.625010
11
19.049999
21
174.625010
0
LINE
8
Layer 1
10
19.049999
20
174.625010
11
19.049999
21
180.975010
0
LINE
8
Layer 1
10
266.699980
20
180.975010
11
285.749980
21
180.975010
0
LINE
8
Layer 1
10
285.749980
20
180.975010
11
285.749980
21
174.625010
0
LINE
8
Layer 1
10
285.749980
20
174.625010
11
266.699980
21
174.625010
0
LINE
8
Layer 1
10
266.699980
20
174.625010
11
266.699980
21
180.975010
0
LINE
8
Layer 1
10
219.075000
20
180.975000
11
238.125000
21
180.975000
0
LINE
8
Layer 1
10
238.125000
20
180.975000
11
238.125000
21
174.625000
0
LINE
8
Layer 1
10
238.125000
20
174.625000
11
219.075000
21
174.625000
0
LINE
8
Layer 1
10
219.075000
20
174.625000
11
219.075000
21
180.975000
0
LINE
8
Layer 1
10
66.675000
20
180.975000
11
85.725000
21
180.975000
0
LINE
8
Layer 1
10
85.725000
20
180.975000
11
85.725000
21
174.625000
0
LINE
8
Layer 1
10
85.725000
20
174.625000
11
66.675000
21
174.625000
0
LINE
8
Layer 1
10
66.675000
20
174.625000
11
66.675000
21
180.975000
0
LINE
8
Layer 1
10
158.750000
20
149.225000
11
158.750000
21
142.875000
0
LINE
8
Layer 1
10
158.750000
20
142.875000
11
152.400000
21
142.875000
0
LINE
8
Layer 1
10
152.400000
20
142.875000
11
152.400000
21
136.525000
0
LINE
8
Layer 1
10
152.400000
20
136.525000
11
158.750000
21
136.525000
0
LINE
8
Layer 1
10
158.750000
20
136.525000
11
158.750000
21
130.175000
0
LINE
8
Layer 1
10
158.750000
20
130.175000
11
304.800000
21
130.175000
0
LINE
8
Layer 1
10
304.800000
20
130.175000
11
304.800000
21
136.525000
0
LINE
8
Layer 1
10
304.800000
20
136.525000
11
298.450000
21
136.525000
0
LINE
8
Layer 1
10
298.450000
20
136.525000
11
298.450000
21
142.875000
0
LINE
8
Layer 1
10
298.450000
20
142.875000
11
304.800000
21
142.875000
0
LINE
8
Layer 1
10
304.800000
20
142.875000
11
304.800000
21
149.225000
0
LINE
8
Layer 1
10
304.800000
20
149.225000
11
234.950000
21
149.225000
0
LINE
8
Layer 1
10
234.950000
20
149.225000
11
234.950000
21
142.875000
0
LINE
8
Layer 1
10
234.950000
20
142.875000
11
222.250000
21
142.875000
0
LINE
8
Layer 1
10
222.250000
20
142.875000
11
222.250000
21
149.225000
0
LINE
8
Layer 1
10
222.250000
20
149.225000
11
158.750000
21
149.225000
0
LINE
8
Layer 1
10
184.150000
20
142.875000
11
209.550000
21
142.875000
0
LINE
8
Layer 1
10
209.550000
20
142.875000
11
209.550000
21
136.525000
0
LINE
8
Layer 1
10
209.550000
20
136.525000
11
184.150000
21
136.525000
0
LINE
8
Layer 1
10
184.150000
20
136.525000
11
184.150000
21
142.875000
0
LINE
8
Layer 1
10
247.650000
20
142.875000
11
273.050000
21
142.875000
0
LINE
8
Layer 1
10
273.050000
20
142.875000
11
273.050000
21
136.525000
0
LINE
8
Layer 1
10
273.050000
20
136.525000
11
247.650000
21
136.525000
0
LINE
8
Layer 1
10
247.650000
20
136.525000
11
247.650000
21
142.875000
0
LINE
8
Layer 1
10
12.700000
20
149.225000
11
12.700000
21
142.875000
0
LINE
8
Layer 1
10
12.700000
20
142.875000
11
6.350000
21
142.875000
0
LINE
8
Layer 1
10
6.350000
20
142.875000
11
6.350000
21
136.525000
0
LINE
8
Layer 1
10
6.350000
20
136.525000
11
12.700000
21
136.525000
0
LINE
8
Layer 1
10
12.700000
20
136.525000
11
12.700000
21
130.175000
0
LINE
8
Layer 1
10
12.700000
20
130.175000
11
158.750000
21
130.175000
0
LINE
8
Layer 1
10
158.750000
20
130.175000
11
158.750000
21
136.525000
0
LINE
8
Layer 1
10
158.750000
20
136.525000
11
152.400000
21
136.525000
0
LINE
8
Layer 1
10
152.400000
20
136.525000
11
152.400000
21
142.875000
0
LINE
8
Layer 1
10
152.400000
20
142.875000
11
158.750000
21
142.875000
0
LINE
8
Layer 1
10
158.750000
20
142.875000
11
158.750000
21
149.225000
0
LINE
8
Layer 1
10
158.750000
20
149.225000
11
88.900000
21
149.225000
0
LINE
8
Layer 1
10
88.900000
20
149.225000
11
88.900000
21
142.875000
0
LINE
8
Layer 1
10
88.900000
20
142.875000
11
76.200000
21
142.875000
0
LINE
8
Layer 1
10
76.200000
20
142.875000
11
76.200000
21
149.225000
0
LINE
8
Layer 1
10
76.200000
20
149.225000
11
12.700000
21
149.225000
0
LINE
8
Layer 1
10
38.100000
20
142.875000
11
63.500000
21
142.875000
0
LINE
8
Layer 1
10
63.500000
20
142.875000
11
63.500000
21
136.525000
0
LINE
8
Layer 1
10
63.500000
20
136.525000
11
38.100000
21
136.525000
0
LINE
8
Layer 1
10
38.100000
20
136.525000
11
38.100000
21
142.875000
0
LINE
8
Layer 1
10
101.600000
20
142.875000
11
127.000000
21
142.875000
0
LINE
8
Layer 1
10
127.000000
20
142.875000
11
127.000000
21
136.525000
0
LINE
8
Layer 1
10
127.000000
20
136.525000
11
101.600000
21
136.525000
0
LINE
8
Layer 1
10
101.600000
20
136.525000
11
101.600000
21
142.875000
0
LINE
8
Layer 1
10
273.050000
20
25.399550
11
273.050000
21
31.749550
0
LINE
8
Layer 1
10
273.050000
20
31.749550
11
298.450000
21
31.749550
0
LINE
8
Layer 1
10
298.450000
20
31.749550
11
298.450000
21
44.449550
0
LINE
8
Layer 1
10
298.450000
20
44.449550
11
304.800000
21
44.449550
0
LINE
8
Layer 1
10
304.800000
20
44.449550
11
304.800000
21
63.499550
0
LINE
8
Layer 1
10
304.800000
20
63.499550
11
298.450000
21
63.499550
0
LINE
8
Layer 1
10
298.450000
20
63.499550
11
298.450000
21
92.074550
0
LINE
8
Layer 1
10
298.450000
20
92.074550
11
304.800000
21
92.074550
0
LINE
8
Layer 1
10
304.800000
20
92.074550
11
304.800000
21
111.124550
0
LINE
8
Layer 1
10
304.800000
20
111.124550
11
298.450000
21
111.124550
0
LINE
8
Layer 1
10
298.450000
20
111.124550
11
298.450000
21
123.824550
0
LINE
8
Layer 1
10
298.450000
20
123.824550
11
273.050000
21
123.824550
0
LINE
8
Layer 1
10
273.050000
20
123.824550
11
273.050000
21
130.174550
0
LINE
8
Layer 1
10
273.050000
20
130.174550
11
247.650000
21
130.174550
0
LINE
8
Layer 1
10
247.650000
20
130.174550
11
247.650000
21
123.824550
0
LINE
8
Layer 1
10
247.650000
20
123.824550
11
209.550000
21
123.824550
0
LINE
8
Layer 1
10
209.550000
20
123.824550
11
209.550000
21
130.174550
0
LINE
8
Layer 1
10
209.550000
20
130.174550
11
184.150000
21
130.174550
0
LINE
8
Layer 1
10
184.150000
20
130.174550
11
184.150000
21
123.824550
0
LINE
8
Layer 1
10
184.150000
20
123.824550
11
158.750000
21
123.824550
0
LINE
8
Layer 1
10
158.750000
20
123.824550
11
158.750000
21
111.124550
0
LINE
8
Layer 1
10
158.750000
20
111.124550
11
152.400000
21
111.124550
0
LINE
8
Layer 1
10
152.400000
20
111.124550
11
152.400000
21
92.074550
0
LINE
8
Layer 1
10
152.400000
20
92.074550
11
158.750000
21
92.074550
0
LINE
8
Layer 1
10
158.750000
20
92.074550
11
158.750000
21
63.499550
0
LINE
8
Layer 1
10
158.750000
20
63.499550
11
152.400000
21
63.499550
0
LINE
8
Layer 1
10
152.400000
20
63.499550
11
152.400000
21
44.449550
0
LINE
8
Layer 1
10
152.400000
20
44.449550
11
158.750000
21
44.449550
0
LINE
8
Layer 1
10
158.750000
20
44.449550
11
158.750000
21
31.749550
0
LINE
8
Layer 1
10
158.750000
20
31.749550
11
184.150000
21
31.749550
0
LINE
8
Layer 1
10
184.150000
20
31.749550
11
184.150000
21
25.399550
0
LINE
8
Layer 1
10
184.150000
20
25.399550
11
209.550000
21
25.399550
0
LINE
8
Layer 1
10
209.550000
20
25.399550
11
209.550000
21
31.749550
0
LINE
8
Layer 1
10
209.550000
20
31.749550
11
247.650000
21
31.749550
0
LINE
8
Layer 1
10
247.650000
20
31.749550
11
247.650000
21
25.399550
0
LINE
8
Layer 1
10
247.650000
20
25.399550
11
273.050000
21
25.399550
0
LINE
8
Layer 1
10
184.149990
20
101.599740
11
184.238651
21
102.495858
0
LINE
8
Layer 1
10
184.238651
20
102.495858
11
184.498013
21
103.349369
0
LINE
8
Layer 1
10
184.498013
20
103.349369
11
184.918140
21
104.136288
0
LINE
8
Layer 1
10
184.918140
20
104.136288
11
185.489098
21
104.832632
0
LINE
8
Layer 1
10
185.489098
20
104.832632
11
186.185442
21
105.403590
0
LINE
8
Layer 1
10
186.185442
20
105.403590
11
186.972361
21
105.823717
0
LINE
8
Layer 1
10
186.972361
20
105.823717
11
187.825872
21
106.083079
0
LINE
8
Layer 1
10
187.825872
20
106.083079
11
188.721990
21
106.171740
0
LINE
8
Layer 1
10
188.721990
20
106.171740
11
189.643407
21
106.078853
0
LINE
8
Layer 1
10
189.643407
20
106.078853
11
190.501619
21
105.812450
0
LINE
8
Layer 1
10
190.501619
20
105.812450
11
191.278239
21
105.390914
0
LINE
8
Layer 1
10
191.278239
20
105.390914
11
191.954882
21
104.832632
0
LINE
8
Layer 1
10
191.954882
20
104.832632
11
192.513164
21
104.155989
0
LINE
8
Layer 1
10
192.513164
20
104.155989
11
192.934700
21
103.379369
0
LINE
8
Layer 1
10
192.934700
20
103.379369
11
193.201103
21
102.521157
0
LINE
8
Layer 1
10
193.201103
20
102.521157
11
193.293990
21
101.599740
0
LINE
8
Layer 1
10
193.293990
20
101.599740
11
193.205329
21
100.703622
0
LINE
8
Layer 1
10
193.205329
20
100.703622
11
192.945967
21
99.850111
0
LINE
8
Layer 1
10
192.945967
20
99.850111
11
192.525840
21
99.063192
0
LINE
8
Layer 1
10
192.525840
20
99.063192
11
191.954882
21
98.366848
0
LINE
8
Layer 1
10
191.954882
20
98.366848
11
191.258538
21
97.795890
0
LINE
8
Layer 1
10
191.258538
20
97.795890
11
190.471619
21
97.375763
0
LINE
8
Layer 1
10
190.471619
20
97.375763
11
189.618108
21
97.116401
0
LINE
8
Layer 1
10
189.618108
20
97.116401
11
188.721990
21
97.027740
0
LINE
8
Layer 1
10
188.721990
20
97.027740
11
187.825872
21
97.116401
0
LINE
8
Layer 1
10
187.825872
20
97.116401
11
186.972361
21
97.375763
0
LINE
8
Layer 1
10
186.972361
20
97.375763
11
186.185442
21
97.795890
0
LINE
8
Layer 1
10
186.185442
20
97.795890
11
185.489098
21
98.366848
0
LINE
8
Layer 1
10
185.489098
20
98.366848
11
184.918140
21
99.063192
0
LINE
8
Layer 1
10
184.918140
20
99.063192
11
184.498013
21
99.850111
0
LINE
8
Layer 1
10
184.498013
20
99.850111
11
184.238651
21
100.703622
0
LINE
8
Layer 1
10
184.238651
20
100.703622
11
184.149990
21
101.599740
0
LINE
8
Layer 1
10
184.149990
20
101.599740
11
184.149990
21
101.599740
0
LINE
8
Layer 1
10
263.906003
20
101.599740
11
263.994664
21
102.495858
0
LINE
8
Layer 1
10
263.994664
20
102.495858
11
264.254026
21
103.349369
0
LINE
8
Layer 1
10
264.254026
20
103.349369
11
264.674153
21
104.136288
0
LINE
8
Layer 1
10
264.674153
20
104.136288
11
265.245111
21
104.832632
0
LINE
8
Layer 1
10
265.245111
20
104.832632
11
265.941455
21
105.403590
0
LINE
8
Layer 1
10
265.941455
20
105.403590
11
266.728374
21
105.823717
0
LINE
8
Layer 1
10
266.728374
20
105.823717
11
267.581885
21
106.083079
0
LINE
8
Layer 1
10
267.581885
20
106.083079
11
268.478003
21
106.171740
0
LINE
8
Layer 1
10
268.478003
20
106.171740
11
269.374121
21
106.083079
0
LINE
8
Layer 1
10
269.374121
20
106.083079
11
270.227632
21
105.823717
0
LINE
8
Layer 1
10
270.227632
20
105.823717
11
271.014551
21
105.403590
0
LINE
8
Layer 1
10
271.014551
20
105.403590
11
271.710895
21
104.832632
0
LINE
8
Layer 1
10
271.710895
20
104.832632
11
272.281853
21
104.136288
0
LINE
8
Layer 1
10
272.281853
20
104.136288
11
272.701980
21
103.349369
0
LINE
8
Layer 1
10
272.701980
20
103.349369
11
272.961342
21
102.495858
0
LINE
8
Layer 1
10
272.961342
20
102.495858
11
273.050003
21
101.599740
0
LINE
8
Layer 1
10
273.050003
20
101.599740
11
272.961342
21
100.703622
0
LINE
8
Layer 1
10
272.961342
20
100.703622
11
272.701980
21
99.850111
0
LINE
8
Layer 1
10
272.701980
20
99.850111
11
272.281853
21
99.063192
0
LINE
8
Layer 1
10
272.281853
20
99.063192
11
271.710895
21
98.366848
0
LINE
8
Layer 1
10
271.710895
20
98.366848
11
271.014551
21
97.795890
0
LINE
8
Layer 1
10
271.014551
20
97.795890
11
270.227632
21
97.375763
0
LINE
8
Layer 1
10
270.227632
20
97.375763
11
269.374121
21
97.116401
0
LINE
8
Layer 1
10
269.374121
20
97.116401
11
268.478003
21
97.027740
0
LINE
8
Layer 1
10
268.478003
20
97.027740
11
267.581885
21
97.116401
0
LINE
8
Layer 1
10
267.581885
20
97.116401
11
266.728374
21
97.375763
0
LINE
8
Layer 1
10
266.728374
20
97.375763
11
265.941455
21
97.795890
0
LINE
8
Layer 1
10
265.941455
20
97.795890
11
265.245111
21
98.366848
0
LINE
8
Layer 1
10
265.245111
20
98.366848
11
264.674153
21
99.063192
0
LINE
8
Layer 1
10
264.674153
20
99.063192
11
264.254026
21
99.850111
0
LINE
8
Layer 1
10
264.254026
20
99.850111
11
263.994664
21
100.703622
0
LINE
8
Layer 1
10
263.994664
20
100.703622
11
263.906003
21
101.599740
0
LINE
8
Layer 1
10
263.906003
20
101.599740
11
263.906003
21
101.599740
0
LINE
8
Layer 1
10
184.150000
20
53.974720
11
184.238661
21
53.078602
0
LINE
8
Layer 1
10
184.238661
20
53.078602
11
184.498023
21
52.225091
0
LINE
8
Layer 1
10
184.498023
20
52.225091
11
184.918150
21
51.438172
0
LINE
8
Layer 1
10
184.918150
20
51.438172
11
185.489108
21
50.741828
0
LINE
8
Layer 1
10
185.489108
20
50.741828
11
186.185452
21
50.170870
0
LINE
8
Layer 1
10
186.185452
20
50.170870
11
186.972371
21
49.750743
0
LINE
8
Layer 1
10
186.972371
20
49.750743
11
187.825882
21
49.491381
0
LINE
8
Layer 1
10
187.825882
20
49.491381
11
188.722000
21
49.402720
0
LINE
8
Layer 1
10
188.722000
20
49.402720
11
189.618118
21
49.491381
0
LINE
8
Layer 1
10
189.618118
20
49.491381
11
190.471629
21
49.750743
0
LINE
8
Layer 1
10
190.471629
20
49.750743
11
191.258548
21
50.170870
0
LINE
8
Layer 1
10
191.258548
20
50.170870
11
191.954892
21
50.741828
0
LINE
8
Layer 1
10
191.954892
20
50.741828
11
192.525850
21
51.438172
0
LINE
8
Layer 1
10
192.525850
20
51.438172
11
192.945977
21
52.225091
0
LINE
8
Layer 1
10
192.945977
20
52.225091
11
193.205339
21
53.078602
0
LINE
8
Layer 1
10
193.205339
20
53.078602
11
193.294000
21
53.974720
0
LINE
8
Layer 1
10
193.294000
20
53.974720
11
193.205339
21
54.870838
0
LINE
8
Layer 1
10
193.205339
20
54.870838
11
192.945977
21
55.724349
0
LINE
8
Layer 1
10
192.945977
20
55.724349
11
192.525850
21
56.511268
0
LINE
8
Layer 1
10
192.525850
20
56.511268
11
191.954892
21
57.207612
0
LINE
8
Layer 1
10
191.954892
20
57.207612
11
191.258548
21
57.778570
0
LINE
8
Layer 1
10
191.258548
20
57.778570
11
190.471629
21
58.198697
0
LINE
8
Layer 1
10
190.471629
20
58.198697
11
189.618118
21
58.458059
0
LINE
8
Layer 1
10
189.618118
20
58.458059
11
188.722000
21
58.546720
0
LINE
8
Layer 1
10
188.722000
20
58.546720
11
187.825882
21
58.458059
0
LINE
8
Layer 1
10
187.825882
20
58.458059
11
186.972371
21
58.198697
0
LINE
8
Layer 1
10
186.972371
20
58.198697
11
186.185452
21
57.778570
0
LINE
8
Layer 1
10
186.185452
20
57.778570
11
185.489108
21
57.207612
0
LINE
8
Layer 1
10
185.489108
20
57.207612
11
184.918150
21
56.511268
0
LINE
8
Layer 1
10
184.918150
20
56.511268
11
184.498023
21
55.724349
0
LINE
8
Layer 1
10
184.498023
20
55.724349
11
184.238661
21
54.870838
0
LINE
8
Layer 1
10
184.238661
20
54.870838
11
184.150000
21
53.974720
0
LINE
8
Layer 1
10
184.150000
20
53.974720
11
184.150000
21
53.974720
0
LINE
8
Layer 1
10
263.906002
20
53.974720
11
263.994663
21
53.078602
0
LINE
8
Layer 1
10
263.994663
20
53.078602
11
264.254025
21
52.225091
0
LINE
8
Layer 1
10
264.254025
20
52.225091
11
264.674152
21
51.438172
0
LINE
8
Layer 1
10
264.674152
20
51.438172
11
265.245110
21
50.741828
0
LINE
8
Layer 1
10
265.245110
20
50.741828
11
265.941454
21
50.170870
0
LINE
8
Layer 1
10
265.941454
20
50.170870
11
266.728373
21
49.750743
0
LINE
8
Layer 1
10
266.728373
20
49.750743
11
267.581884
21
49.491381
0
LINE
8
Layer 1
10
267.581884
20
49.491381
11
268.478002
21
49.402720
0
LINE
8
Layer 1
10
268.478002
20
49.402720
11
269.374120
21
49.491381
0
LINE
8
Layer 1
10
269.374120
20
49.491381
11
270.227631
21
49.750742
0
LINE
8
Layer 1
10
270.227631
20
49.750742
11
271.014550
21
50.170869
0
LINE
8
Layer 1
10
271.014550
20
50.170869
11
271.710895
21
50.741827
0
LINE
8
Layer 1
10
271.710895
20
50.741827
11
272.281853
21
51.438172
0
LINE
8
Layer 1
10
272.281853
20
51.438172
11
272.701980
21
52.225091
0
LINE
8
Layer 1
10
272.701980
20
52.225091
11
272.961342
21
53.078602
0
LINE
8
Layer 1
10
272.961342
20
53.078602
11
273.050003
21
53.974720
0
LINE
8
Layer 1
10
273.050003
20
53.974720
11
272.961342
21
54.870838
0
LINE
8
Layer 1
10
272.961342
20
54.870838
11
272.701980
21
55.724349
0
LINE
8
Layer 1
10
272.701980
20
55.724349
11
272.281853
21
56.511268
0
LINE
8
Layer 1
10
272.281853
20
56.511268
11
271.710895
21
57.207613
0
LINE
8
Layer 1
10
271.710895
20
57.207613
11
271.014550
21
57.778571
0
LINE
8
Layer 1
10
271.014550
20
57.778571
11
270.227631
21
58.198698
0
LINE
8
Layer 1
10
270.227631
20
58.198698
11
269.374120
21
58.458059
0
LINE
8
Layer 1
10
269.374120
20
58.458059
11
268.478002
21
58.546720
0
LINE
8
Layer 1
10
268.478002
20
58.546720
11
267.581884
21
58.458059
0
LINE
8
Layer 1
10
267.581884
20
58.458059
11
266.728373
21
58.198697
0
LINE
8
Layer 1
10
266.728373
20
58.198697
11
265.941454
21
57.778570
0
LINE
8
Layer 1
10
265.941454
20
57.778570
11
265.245110
21
57.207612
0
LINE
8
Layer 1
10
265.245110
20
57.207612
11
264.674152
21
56.511268
0
LINE
8
Layer 1
10
264.674152
20
56.511268
11
264.254025
21
55.724349
0
LINE
8
Layer 1
10
264.254025
20
55.724349
11
263.994663
21
54.870838
0
LINE
8
Layer 1
10
263.994663
20
54.870838
11
263.906002
21
53.974720
0
LINE
8
Layer 1
10
263.906002
20
53.974720
11
263.906002
21
53.974720
 0 
ENDSEC
 0 
EOF