999
"DXF R12 Output" (www.mydxf.blogspot.com)
 0 
SECTION
 2 
HEADER
 9 
$ACADVER
 1 
AC1009
 9 
$EXTMIN
 10 
 0 
 20 
 0 
 9 
$EXTMAX
 10 
 8.5 
 20 
 11 
 0 
ENDSEC
 0 
SECTION
 2 
ENTITIES
0
LINE
8
Layer 1
10
266.699981
20
520.700399
11
285.749981
21
520.700399
0
LINE
8
Layer 1
10
285.749981
20
520.700399
11
285.749981
21
527.050399
0
LINE
8
Layer 1
10
285.749981
20
527.050399
11
266.699981
21
527.050399
0
LINE
8
Layer 1
10
266.699981
20
527.050399
11
266.699981
21
520.700399
0
LINE
8
Layer 1
10
19.050000
20
520.700399
11
38.100000
21
520.700399
0
LINE
8
Layer 1
10
38.100000
20
520.700399
11
38.100000
21
527.050399
0
LINE
8
Layer 1
10
38.100000
20
527.050399
11
19.050000
21
527.050399
0
LINE
8
Layer 1
10
19.050000
20
527.050399
11
19.050000
21
520.700399
0
LINE
8
Layer 1
10
266.699981
20
450.850410
11
285.749981
21
450.850410
0
LINE
8
Layer 1
10
285.749981
20
450.850410
11
285.749981
21
457.200410
0
LINE
8
Layer 1
10
285.749981
20
457.200410
11
266.699981
21
457.200410
0
LINE
8
Layer 1
10
266.699981
20
457.200410
11
266.699981
21
450.850410
0
LINE
8
Layer 1
10
266.700011
20
431.800420
11
285.750011
21
431.800420
0
LINE
8
Layer 1
10
285.750011
20
431.800420
11
285.750011
21
438.150420
0
LINE
8
Layer 1
10
285.750011
20
438.150420
11
266.700011
21
438.150420
0
LINE
8
Layer 1
10
266.700011
20
438.150420
11
266.700011
21
431.800420
0
LINE
8
Layer 1
10
266.700011
20
311.150410
11
285.750011
21
311.150410
0
LINE
8
Layer 1
10
285.750011
20
311.150410
11
285.750011
21
317.500410
0
LINE
8
Layer 1
10
285.750011
20
317.500410
11
266.700011
21
317.500410
0
LINE
8
Layer 1
10
266.700011
20
317.500410
11
266.700011
21
311.150410
0
LINE
8
Layer 1
10
19.050000
20
311.150410
11
38.100000
21
311.150410
0
LINE
8
Layer 1
10
38.100000
20
311.150410
11
38.100000
21
317.500410
0
LINE
8
Layer 1
10
38.100000
20
317.500410
11
19.050000
21
317.500410
0
LINE
8
Layer 1
10
19.050000
20
317.500410
11
19.050000
21
311.150410
0
LINE
8
Layer 1
10
19.050000
20
431.800410
11
38.100000
21
431.800410
0
LINE
8
Layer 1
10
38.100000
20
431.800410
11
38.100000
21
438.150410
0
LINE
8
Layer 1
10
38.100000
20
438.150410
11
19.050000
21
438.150410
0
LINE
8
Layer 1
10
19.050000
20
438.150410
11
19.050000
21
431.800410
0
LINE
8
Layer 1
10
19.050000
20
450.850410
11
38.100000
21
450.850410
0
LINE
8
Layer 1
10
38.100000
20
450.850410
11
38.100000
21
457.200410
0
LINE
8
Layer 1
10
38.100000
20
457.200410
11
19.050000
21
457.200410
0
LINE
8
Layer 1
10
19.050000
20
457.200410
11
19.050000
21
450.850410
0
LINE
8
Layer 1
10
255.778001
20
581.025419
11
255.870888
21
581.946836
0
LINE
8
Layer 1
10
255.870888
20
581.946836
11
256.137291
21
582.805048
0
LINE
8
Layer 1
10
256.137291
20
582.805048
11
256.558827
21
583.581668
0
LINE
8
Layer 1
10
256.558827
20
583.581668
11
257.117109
21
584.258311
0
LINE
8
Layer 1
10
257.117109
20
584.258311
11
257.793752
21
584.816593
0
LINE
8
Layer 1
10
257.793752
20
584.816593
11
258.570372
21
585.238129
0
LINE
8
Layer 1
10
258.570372
20
585.238129
11
259.428584
21
585.504532
0
LINE
8
Layer 1
10
259.428584
20
585.504532
11
260.350001
21
585.597419
0
LINE
8
Layer 1
10
260.350001
20
585.597419
11
261.246119
21
585.508758
0
LINE
8
Layer 1
10
261.246119
20
585.508758
11
262.099630
21
585.249396
0
LINE
8
Layer 1
10
262.099630
20
585.249396
11
262.886549
21
584.829269
0
LINE
8
Layer 1
10
262.886549
20
584.829269
11
263.582893
21
584.258311
0
LINE
8
Layer 1
10
263.582893
20
584.258311
11
264.153851
21
583.561967
0
LINE
8
Layer 1
10
264.153851
20
583.561967
11
264.573978
21
582.775048
0
LINE
8
Layer 1
10
264.573978
20
582.775048
11
264.833340
21
581.921537
0
LINE
8
Layer 1
10
264.833340
20
581.921537
11
264.922001
21
581.025419
0
LINE
8
Layer 1
10
264.922001
20
581.025419
11
264.833340
21
580.129301
0
LINE
8
Layer 1
10
264.833340
20
580.129301
11
264.573978
21
579.275790
0
LINE
8
Layer 1
10
264.573978
20
579.275790
11
264.153851
21
578.488871
0
LINE
8
Layer 1
10
264.153851
20
578.488871
11
263.582893
21
577.792527
0
LINE
8
Layer 1
10
263.582893
20
577.792527
11
262.886549
21
577.221569
0
LINE
8
Layer 1
10
262.886549
20
577.221569
11
262.099630
21
576.801442
0
LINE
8
Layer 1
10
262.099630
20
576.801442
11
261.246119
21
576.542080
0
LINE
8
Layer 1
10
261.246119
20
576.542080
11
260.350001
21
576.453419
0
LINE
8
Layer 1
10
260.350001
20
576.453419
11
259.453883
21
576.542080
0
LINE
8
Layer 1
10
259.453883
20
576.542080
11
258.600372
21
576.801442
0
LINE
8
Layer 1
10
258.600372
20
576.801442
11
257.813453
21
577.221569
0
LINE
8
Layer 1
10
257.813453
20
577.221569
11
257.117109
21
577.792527
0
LINE
8
Layer 1
10
257.117109
20
577.792527
11
256.546151
21
578.488871
0
LINE
8
Layer 1
10
256.546151
20
578.488871
11
256.126024
21
579.275790
0
LINE
8
Layer 1
10
256.126024
20
579.275790
11
255.866662
21
580.129301
0
LINE
8
Layer 1
10
255.866662
20
580.129301
11
255.778001
21
581.025419
0
LINE
8
Layer 1
10
255.778001
20
581.025419
11
255.778001
21
581.025419
0
LINE
8
Layer 1
10
184.150001
20
581.025419
11
184.238662
21
581.921537
0
LINE
8
Layer 1
10
184.238662
20
581.921537
11
184.498024
21
582.775048
0
LINE
8
Layer 1
10
184.498024
20
582.775048
11
184.918151
21
583.561967
0
LINE
8
Layer 1
10
184.918151
20
583.561967
11
185.489109
21
584.258311
0
LINE
8
Layer 1
10
185.489109
20
584.258311
11
186.185453
21
584.829269
0
LINE
8
Layer 1
10
186.185453
20
584.829269
11
186.972372
21
585.249396
0
LINE
8
Layer 1
10
186.972372
20
585.249396
11
187.825883
21
585.508758
0
LINE
8
Layer 1
10
187.825883
20
585.508758
11
188.722001
21
585.597419
0
LINE
8
Layer 1
10
188.722001
20
585.597419
11
189.618119
21
585.508758
0
LINE
8
Layer 1
10
189.618119
20
585.508758
11
190.471630
21
585.249396
0
LINE
8
Layer 1
10
190.471630
20
585.249396
11
191.258549
21
584.829269
0
LINE
8
Layer 1
10
191.258549
20
584.829269
11
191.954893
21
584.258311
0
LINE
8
Layer 1
10
191.954893
20
584.258311
11
192.525851
21
583.561967
0
LINE
8
Layer 1
10
192.525851
20
583.561967
11
192.945978
21
582.775048
0
LINE
8
Layer 1
10
192.945978
20
582.775048
11
193.205340
21
581.921537
0
LINE
8
Layer 1
10
193.205340
20
581.921537
11
193.294001
21
581.025419
0
LINE
8
Layer 1
10
193.294001
20
581.025419
11
193.205340
21
580.129301
0
LINE
8
Layer 1
10
193.205340
20
580.129301
11
192.945978
21
579.275790
0
LINE
8
Layer 1
10
192.945978
20
579.275790
11
192.525851
21
578.488871
0
LINE
8
Layer 1
10
192.525851
20
578.488871
11
191.954893
21
577.792527
0
LINE
8
Layer 1
10
191.954893
20
577.792527
11
191.258549
21
577.221569
0
LINE
8
Layer 1
10
191.258549
20
577.221569
11
190.471630
21
576.801442
0
LINE
8
Layer 1
10
190.471630
20
576.801442
11
189.618119
21
576.542080
0
LINE
8
Layer 1
10
189.618119
20
576.542080
11
188.722001
21
576.453419
0
LINE
8
Layer 1
10
188.722001
20
576.453419
11
187.825883
21
576.542080
0
LINE
8
Layer 1
10
187.825883
20
576.542080
11
186.972372
21
576.801442
0
LINE
8
Layer 1
10
186.972372
20
576.801442
11
186.185453
21
577.221569
0
LINE
8
Layer 1
10
186.185453
20
577.221569
11
185.489109
21
577.792527
0
LINE
8
Layer 1
10
185.489109
20
577.792527
11
184.918151
21
578.488871
0
LINE
8
Layer 1
10
184.918151
20
578.488871
11
184.498024
21
579.275790
0
LINE
8
Layer 1
10
184.498024
20
579.275790
11
184.238662
21
580.129301
0
LINE
8
Layer 1
10
184.238662
20
580.129301
11
184.150001
21
581.025419
0
LINE
8
Layer 1
10
184.150001
20
581.025419
11
184.150001
21
581.025419
0
LINE
8
Layer 1
10
304.800001
20
571.500409
11
304.800001
21
590.550409
0
LINE
8
Layer 1
10
304.800001
20
590.550409
11
285.750001
21
590.550409
0
LINE
8
Layer 1
10
285.750001
20
590.550409
11
285.750001
21
603.250409
0
LINE
8
Layer 1
10
285.750001
20
603.250409
11
273.050001
21
603.250409
0
LINE
8
Layer 1
10
273.050001
20
603.250409
11
273.050001
21
609.600409
0
LINE
8
Layer 1
10
273.050001
20
609.600409
11
247.650001
21
609.600409
0
LINE
8
Layer 1
10
247.650001
20
609.600409
11
247.650001
21
603.250409
0
LINE
8
Layer 1
10
247.650001
20
603.250409
11
209.550001
21
603.250409
0
LINE
8
Layer 1
10
209.550001
20
603.250409
11
209.550001
21
609.600409
0
LINE
8
Layer 1
10
209.550001
20
609.600409
11
184.150001
21
609.600409
0
LINE
8
Layer 1
10
184.150001
20
609.600409
11
184.150001
21
603.250409
0
LINE
8
Layer 1
10
184.150001
20
603.250409
11
158.750001
21
603.250409
0
LINE
8
Layer 1
10
158.750001
20
603.250409
11
158.750001
21
590.550409
0
LINE
8
Layer 1
10
158.750001
20
590.550409
11
152.400001
21
590.550409
0
LINE
8
Layer 1
10
152.400001
20
590.550409
11
152.400001
21
571.500409
0
LINE
8
Layer 1
10
152.400001
20
571.500409
11
158.750001
21
571.500409
0
LINE
8
Layer 1
10
158.750001
20
571.500409
11
285.750001
21
571.500409
0
LINE
8
Layer 1
10
285.750001
20
571.500409
11
304.800001
21
571.500409
0
LINE
8
Layer 1
10
49.022000
20
581.025419
11
48.933339
21
581.921537
0
LINE
8
Layer 1
10
48.933339
20
581.921537
11
48.673977
21
582.775048
0
LINE
8
Layer 1
10
48.673977
20
582.775048
11
48.253850
21
583.561967
0
LINE
8
Layer 1
10
48.253850
20
583.561967
11
47.682892
21
584.258311
0
LINE
8
Layer 1
10
47.682892
20
584.258311
11
46.986548
21
584.829269
0
LINE
8
Layer 1
10
46.986548
20
584.829269
11
46.199629
21
585.249396
0
LINE
8
Layer 1
10
46.199629
20
585.249396
11
45.346118
21
585.508758
0
LINE
8
Layer 1
10
45.346118
20
585.508758
11
44.450000
21
585.597419
0
LINE
8
Layer 1
10
44.450000
20
585.597419
11
43.553882
21
585.508758
0
LINE
8
Layer 1
10
43.553882
20
585.508758
11
42.700371
21
585.249396
0
LINE
8
Layer 1
10
42.700371
20
585.249396
11
41.913452
21
584.829269
0
LINE
8
Layer 1
10
41.913452
20
584.829269
11
41.217108
21
584.258311
0
LINE
8
Layer 1
10
41.217108
20
584.258311
11
40.646150
21
583.561967
0
LINE
8
Layer 1
10
40.646150
20
583.561967
11
40.226023
21
582.775048
0
LINE
8
Layer 1
10
40.226023
20
582.775048
11
39.966661
21
581.921537
0
LINE
8
Layer 1
10
39.966661
20
581.921537
11
39.878000
21
581.025419
0
LINE
8
Layer 1
10
39.878000
20
581.025419
11
39.966661
21
580.129301
0
LINE
8
Layer 1
10
39.966661
20
580.129301
11
40.226023
21
579.275790
0
LINE
8
Layer 1
10
40.226023
20
579.275790
11
40.646150
21
578.488871
0
LINE
8
Layer 1
10
40.646150
20
578.488871
11
41.217108
21
577.792527
0
LINE
8
Layer 1
10
41.217108
20
577.792527
11
41.913452
21
577.221569
0
LINE
8
Layer 1
10
41.913452
20
577.221569
11
42.700371
21
576.801442
0
LINE
8
Layer 1
10
42.700371
20
576.801442
11
43.553882
21
576.542080
0
LINE
8
Layer 1
10
43.553882
20
576.542080
11
44.450000
21
576.453419
0
LINE
8
Layer 1
10
44.450000
20
576.453419
11
45.346118
21
576.542080
0
LINE
8
Layer 1
10
45.346118
20
576.542080
11
46.199629
21
576.801442
0
LINE
8
Layer 1
10
46.199629
20
576.801442
11
46.986548
21
577.221569
0
LINE
8
Layer 1
10
46.986548
20
577.221569
11
47.682892
21
577.792527
0
LINE
8
Layer 1
10
47.682892
20
577.792527
11
48.253850
21
578.488871
0
LINE
8
Layer 1
10
48.253850
20
578.488871
11
48.673977
21
579.275790
0
LINE
8
Layer 1
10
48.673977
20
579.275790
11
48.933339
21
580.129301
0
LINE
8
Layer 1
10
48.933339
20
580.129301
11
49.022000
21
581.025419
0
LINE
8
Layer 1
10
49.022000
20
581.025419
11
49.022000
21
581.025419
0
LINE
8
Layer 1
10
120.650001
20
581.025419
11
120.561340
21
581.921537
0
LINE
8
Layer 1
10
120.561340
20
581.921537
11
120.301978
21
582.775048
0
LINE
8
Layer 1
10
120.301978
20
582.775048
11
119.881851
21
583.561967
0
LINE
8
Layer 1
10
119.881851
20
583.561967
11
119.310893
21
584.258311
0
LINE
8
Layer 1
10
119.310893
20
584.258311
11
118.614549
21
584.829269
0
LINE
8
Layer 1
10
118.614549
20
584.829269
11
117.827630
21
585.249396
0
LINE
8
Layer 1
10
117.827630
20
585.249396
11
116.974119
21
585.508758
0
LINE
8
Layer 1
10
116.974119
20
585.508758
11
116.078001
21
585.597419
0
LINE
8
Layer 1
10
116.078001
20
585.597419
11
115.181883
21
585.508758
0
LINE
8
Layer 1
10
115.181883
20
585.508758
11
114.328372
21
585.249396
0
LINE
8
Layer 1
10
114.328372
20
585.249396
11
113.541453
21
584.829269
0
LINE
8
Layer 1
10
113.541453
20
584.829269
11
112.845109
21
584.258311
0
LINE
8
Layer 1
10
112.845109
20
584.258311
11
112.274151
21
583.561967
0
LINE
8
Layer 1
10
112.274151
20
583.561967
11
111.854024
21
582.775048
0
LINE
8
Layer 1
10
111.854024
20
582.775048
11
111.594662
21
581.921537
0
LINE
8
Layer 1
10
111.594662
20
581.921537
11
111.506001
21
581.025419
0
LINE
8
Layer 1
10
111.506001
20
581.025419
11
111.594662
21
580.129301
0
LINE
8
Layer 1
10
111.594662
20
580.129301
11
111.854024
21
579.275790
0
LINE
8
Layer 1
10
111.854024
20
579.275790
11
112.274151
21
578.488871
0
LINE
8
Layer 1
10
112.274151
20
578.488871
11
112.845109
21
577.792527
0
LINE
8
Layer 1
10
112.845109
20
577.792527
11
113.541453
21
577.221569
0
LINE
8
Layer 1
10
113.541453
20
577.221569
11
114.328372
21
576.801442
0
LINE
8
Layer 1
10
114.328372
20
576.801442
11
115.181883
21
576.542080
0
LINE
8
Layer 1
10
115.181883
20
576.542080
11
116.078001
21
576.453419
0
LINE
8
Layer 1
10
116.078001
20
576.453419
11
116.974119
21
576.542080
0
LINE
8
Layer 1
10
116.974119
20
576.542080
11
117.827630
21
576.801442
0
LINE
8
Layer 1
10
117.827630
20
576.801442
11
118.614549
21
577.221569
0
LINE
8
Layer 1
10
118.614549
20
577.221569
11
119.310893
21
577.792527
0
LINE
8
Layer 1
10
119.310893
20
577.792527
11
119.881851
21
578.488871
0
LINE
8
Layer 1
10
119.881851
20
578.488871
11
120.301978
21
579.275790
0
LINE
8
Layer 1
10
120.301978
20
579.275790
11
120.561340
21
580.129301
0
LINE
8
Layer 1
10
120.561340
20
580.129301
11
120.650001
21
581.025419
0
LINE
8
Layer 1
10
120.650001
20
581.025419
11
120.650001
21
581.025419
0
LINE
8
Layer 1
10
-0.000001
20
571.500409
11
-0.000001
21
590.550409
0
LINE
8
Layer 1
10
-0.000001
20
590.550409
11
19.050000
21
590.550409
0
LINE
8
Layer 1
10
19.050000
20
590.550409
11
19.050000
21
603.250409
0
LINE
8
Layer 1
10
19.050000
20
603.250409
11
31.750000
21
603.250409
0
LINE
8
Layer 1
10
31.750000
20
603.250409
11
31.750000
21
609.600409
0
LINE
8
Layer 1
10
31.750000
20
609.600409
11
57.150000
21
609.600409
0
LINE
8
Layer 1
10
57.150000
20
609.600409
11
57.150000
21
603.250409
0
LINE
8
Layer 1
10
57.150000
20
603.250409
11
95.250000
21
603.250409
0
LINE
8
Layer 1
10
95.250000
20
603.250409
11
95.250000
21
609.600409
0
LINE
8
Layer 1
10
95.250000
20
609.600409
11
120.650001
21
609.600409
0
LINE
8
Layer 1
10
120.650001
20
609.600409
11
120.650001
21
603.250409
0
LINE
8
Layer 1
10
120.650001
20
603.250409
11
146.050001
21
603.250409
0
LINE
8
Layer 1
10
146.050001
20
603.250409
11
146.050001
21
590.550409
0
LINE
8
Layer 1
10
146.050001
20
590.550409
11
152.400001
21
590.550409
0
LINE
8
Layer 1
10
152.400001
20
590.550409
11
152.400001
21
571.500409
0
LINE
8
Layer 1
10
152.400001
20
571.500409
11
146.050001
21
571.500409
0
LINE
8
Layer 1
10
146.050001
20
571.500409
11
19.050000
21
571.500409
0
LINE
8
Layer 1
10
19.050000
20
571.500409
11
-0.000001
21
571.500409
0
LINE
8
Layer 1
10
177.800001
20
559.280999
11
203.200001
21
559.280999
0
LINE
8
Layer 1
10
203.200001
20
559.280999
11
203.200001
21
565.630999
0
LINE
8
Layer 1
10
203.200001
20
565.630999
11
177.800001
21
565.630999
0
LINE
8
Layer 1
10
177.800001
20
565.630999
11
177.800001
21
559.280999
0
LINE
8
Layer 1
10
241.300001
20
559.280999
11
266.700001
21
559.280999
0
LINE
8
Layer 1
10
266.700001
20
559.280999
11
266.700001
21
565.630999
0
LINE
8
Layer 1
10
266.700001
20
565.630999
11
241.300001
21
565.630999
0
LINE
8
Layer 1
10
241.300001
20
565.630999
11
241.300001
21
559.280999
0
LINE
8
Layer 1
10
95.250000
20
559.280999
11
120.650001
21
559.280999
0
LINE
8
Layer 1
10
120.650001
20
559.280999
11
120.650001
21
565.630999
0
LINE
8
Layer 1
10
120.650001
20
565.630999
11
95.250000
21
565.630999
0
LINE
8
Layer 1
10
95.250000
20
565.630999
11
95.250000
21
559.280999
0
LINE
8
Layer 1
10
31.750000
20
559.280999
11
57.150000
21
559.280999
0
LINE
8
Layer 1
10
57.150000
20
559.280999
11
57.150000
21
565.630999
0
LINE
8
Layer 1
10
57.150000
20
565.630999
11
31.750000
21
565.630999
0
LINE
8
Layer 1
10
31.750000
20
565.630999
11
31.750000
21
559.280999
0
LINE
8
Layer 1
10
-0.000001
20
514.350409
11
-0.000001
21
463.550410
0
LINE
8
Layer 1
10
-0.000001
20
463.550410
11
6.350000
21
463.550410
0
LINE
8
Layer 1
10
6.350000
20
463.550410
11
6.350000
21
457.200410
0
LINE
8
Layer 1
10
6.350000
20
457.200410
11
6.350000
21
450.850410
0
LINE
8
Layer 1
10
6.350000
20
450.850410
11
6.350000
21
444.500410
0
LINE
8
Layer 1
10
6.350000
20
444.500410
11
98.425000
21
444.500410
0
LINE
8
Layer 1
10
98.425000
20
444.500410
11
98.425000
21
450.850410
0
LINE
8
Layer 1
10
98.425000
20
450.850410
11
98.425000
21
457.200410
0
LINE
8
Layer 1
10
98.425000
20
457.200410
11
98.425000
21
463.550410
0
LINE
8
Layer 1
10
98.425000
20
463.550410
11
104.775001
21
463.550410
0
LINE
8
Layer 1
10
104.775001
20
463.550410
11
104.775001
21
457.200410
0
LINE
8
Layer 1
10
104.775001
20
457.200410
11
104.775001
21
450.850410
0
LINE
8
Layer 1
10
104.775001
20
450.850410
11
104.775001
21
444.500410
0
LINE
8
Layer 1
10
104.775001
20
444.500410
11
200.025001
21
444.500410
0
LINE
8
Layer 1
10
200.025001
20
444.500410
11
200.025001
21
450.850410
0
LINE
8
Layer 1
10
200.025001
20
450.850410
11
200.025001
21
457.200410
0
LINE
8
Layer 1
10
200.025001
20
457.200410
11
200.025001
21
463.550410
0
LINE
8
Layer 1
10
200.025001
20
463.550410
11
206.375001
21
463.550410
0
LINE
8
Layer 1
10
206.375001
20
463.550410
11
206.375001
21
457.200410
0
LINE
8
Layer 1
10
206.375001
20
457.200410
11
206.375001
21
450.850410
0
LINE
8
Layer 1
10
206.375001
20
450.850410
11
206.375001
21
444.500410
0
LINE
8
Layer 1
10
206.375001
20
444.500410
11
298.450001
21
444.500410
0
LINE
8
Layer 1
10
298.450001
20
444.500410
11
298.450001
21
450.850410
0
LINE
8
Layer 1
10
298.450001
20
450.850410
11
298.450001
21
457.200410
0
LINE
8
Layer 1
10
298.450001
20
457.200410
11
298.450001
21
463.550410
0
LINE
8
Layer 1
10
298.450001
20
463.550410
11
304.800001
21
463.550410
0
LINE
8
Layer 1
10
304.800001
20
463.550410
11
304.800001
21
514.350409
0
LINE
8
Layer 1
10
304.800001
20
514.350409
11
-0.000001
21
514.350409
0
LINE
8
Layer 1
10
133.350001
20
463.550410
11
171.450001
21
463.550410
0
LINE
8
Layer 1
10
171.450001
20
463.550410
11
172.732875
21
463.421847
0
LINE
8
Layer 1
10
172.732875
20
463.421847
11
173.926303
21
463.052927
0
LINE
8
Layer 1
10
173.926303
20
463.052927
11
175.005133
21
462.468802
0
LINE
8
Layer 1
10
175.005133
20
462.468802
11
175.944213
21
461.694623
0
LINE
8
Layer 1
10
175.944213
20
461.694623
11
176.718393
21
460.755542
0
LINE
8
Layer 1
10
176.718393
20
460.755542
11
177.302518
21
459.676712
0
LINE
8
Layer 1
10
177.302518
20
459.676712
11
177.671438
21
458.483284
0
LINE
8
Layer 1
10
177.671438
20
458.483284
11
177.800001
21
457.200410
0
LINE
8
Layer 1
10
177.800001
20
457.200410
11
177.671438
21
455.917536
0
LINE
8
Layer 1
10
177.671438
20
455.917536
11
177.302518
21
454.724108
0
LINE
8
Layer 1
10
177.302518
20
454.724108
11
176.718393
21
453.645278
0
LINE
8
Layer 1
10
176.718393
20
453.645278
11
175.944213
21
452.706198
0
LINE
8
Layer 1
10
175.944213
20
452.706198
11
175.005133
21
451.932018
0
LINE
8
Layer 1
10
175.005133
20
451.932018
11
173.926303
21
451.347893
0
LINE
8
Layer 1
10
173.926303
20
451.347893
11
172.732875
21
450.978973
0
LINE
8
Layer 1
10
172.732875
20
450.978973
11
171.450001
21
450.850410
0
LINE
8
Layer 1
10
171.450001
20
450.850410
11
133.350001
21
450.850410
0
LINE
8
Layer 1
10
133.350001
20
450.850410
11
132.067127
21
450.978973
0
LINE
8
Layer 1
10
132.067127
20
450.978973
11
130.873699
21
451.347893
0
LINE
8
Layer 1
10
130.873699
20
451.347893
11
129.794869
21
451.932018
0
LINE
8
Layer 1
10
129.794869
20
451.932018
11
128.855788
21
452.706198
0
LINE
8
Layer 1
10
128.855788
20
452.706198
11
128.081609
21
453.645278
0
LINE
8
Layer 1
10
128.081609
20
453.645278
11
127.497484
21
454.724108
0
LINE
8
Layer 1
10
127.497484
20
454.724108
11
127.128564
21
455.917536
0
LINE
8
Layer 1
10
127.128564
20
455.917536
11
127.000001
21
457.200410
0
LINE
8
Layer 1
10
127.000001
20
457.200410
11
127.128564
21
458.483284
0
LINE
8
Layer 1
10
127.128564
20
458.483284
11
127.497484
21
459.676712
0
LINE
8
Layer 1
10
127.497484
20
459.676712
11
128.081609
21
460.755542
0
LINE
8
Layer 1
10
128.081609
20
460.755542
11
128.855788
21
461.694623
0
LINE
8
Layer 1
10
128.855788
20
461.694623
11
129.794869
21
462.468802
0
LINE
8
Layer 1
10
129.794869
20
462.468802
11
130.873699
21
463.052927
0
LINE
8
Layer 1
10
130.873699
20
463.052927
11
132.067127
21
463.421847
0
LINE
8
Layer 1
10
132.067127
20
463.421847
11
133.350001
21
463.550410
0
LINE
8
Layer 1
10
133.350001
20
463.550410
11
133.350001
21
463.550410
0
LINE
8
Layer 1
10
-0.000001
20
374.650410
11
-0.000001
21
425.450410
0
LINE
8
Layer 1
10
-0.000001
20
425.450410
11
6.350000
21
425.450410
0
LINE
8
Layer 1
10
6.350000
20
425.450410
11
6.350000
21
431.800410
0
LINE
8
Layer 1
10
6.350000
20
431.800410
11
6.350000
21
438.150410
0
LINE
8
Layer 1
10
6.350000
20
438.150410
11
6.350000
21
444.500410
0
LINE
8
Layer 1
10
6.350000
20
444.500410
11
98.425000
21
444.500410
0
LINE
8
Layer 1
10
98.425000
20
444.500410
11
98.425000
21
438.150410
0
LINE
8
Layer 1
10
98.425000
20
438.150410
11
98.425000
21
431.800410
0
LINE
8
Layer 1
10
98.425000
20
431.800410
11
98.425000
21
425.450410
0
LINE
8
Layer 1
10
98.425000
20
425.450410
11
104.775001
21
425.450410
0
LINE
8
Layer 1
10
104.775001
20
425.450410
11
104.775001
21
431.800410
0
LINE
8
Layer 1
10
104.775001
20
431.800410
11
104.775001
21
438.150410
0
LINE
8
Layer 1
10
104.775001
20
438.150410
11
104.775001
21
444.500410
0
LINE
8
Layer 1
10
104.775001
20
444.500410
11
200.025001
21
444.500410
0
LINE
8
Layer 1
10
200.025001
20
444.500410
11
200.025001
21
438.150410
0
LINE
8
Layer 1
10
200.025001
20
438.150410
11
200.025001
21
431.800410
0
LINE
8
Layer 1
10
200.025001
20
431.800410
11
200.025001
21
425.450410
0
LINE
8
Layer 1
10
200.025001
20
425.450410
11
206.375001
21
425.450410
0
LINE
8
Layer 1
10
206.375001
20
425.450410
11
206.375001
21
431.800410
0
LINE
8
Layer 1
10
206.375001
20
431.800410
11
206.375001
21
438.150410
0
LINE
8
Layer 1
10
206.375001
20
438.150410
11
206.375001
21
444.500410
0
LINE
8
Layer 1
10
206.375001
20
444.500410
11
298.450001
21
444.500410
0
LINE
8
Layer 1
10
298.450001
20
444.500410
11
298.450001
21
438.150410
0
LINE
8
Layer 1
10
298.450001
20
438.150410
11
298.450001
21
431.800410
0
LINE
8
Layer 1
10
298.450001
20
431.800410
11
298.450001
21
425.450410
0
LINE
8
Layer 1
10
298.450001
20
425.450410
11
304.800001
21
425.450410
0
LINE
8
Layer 1
10
304.800001
20
425.450410
11
304.800001
21
374.650410
0
LINE
8
Layer 1
10
304.800001
20
374.650410
11
-0.000001
21
374.650410
0
LINE
8
Layer 1
10
133.350001
20
425.450410
11
171.450001
21
425.450410
0
LINE
8
Layer 1
10
171.450001
20
425.450410
11
172.732875
21
425.578973
0
LINE
8
Layer 1
10
172.732875
20
425.578973
11
173.926303
21
425.947893
0
LINE
8
Layer 1
10
173.926303
20
425.947893
11
175.005133
21
426.532018
0
LINE
8
Layer 1
10
175.005133
20
426.532018
11
175.944213
21
427.306198
0
LINE
8
Layer 1
10
175.944213
20
427.306198
11
176.718393
21
428.245278
0
LINE
8
Layer 1
10
176.718393
20
428.245278
11
177.302518
21
429.324108
0
LINE
8
Layer 1
10
177.302518
20
429.324108
11
177.671438
21
430.517536
0
LINE
8
Layer 1
10
177.671438
20
430.517536
11
177.800001
21
431.800410
0
LINE
8
Layer 1
10
177.800001
20
431.800410
11
177.671438
21
433.083284
0
LINE
8
Layer 1
10
177.671438
20
433.083284
11
177.302518
21
434.276712
0
LINE
8
Layer 1
10
177.302518
20
434.276712
11
176.718393
21
435.355542
0
LINE
8
Layer 1
10
176.718393
20
435.355542
11
175.944213
21
436.294622
0
LINE
8
Layer 1
10
175.944213
20
436.294622
11
175.005133
21
437.068802
0
LINE
8
Layer 1
10
175.005133
20
437.068802
11
173.926303
21
437.652927
0
LINE
8
Layer 1
10
173.926303
20
437.652927
11
172.732875
21
438.021847
0
LINE
8
Layer 1
10
172.732875
20
438.021847
11
171.450001
21
438.150410
0
LINE
8
Layer 1
10
171.450001
20
438.150410
11
133.350001
21
438.150410
0
LINE
8
Layer 1
10
133.350001
20
438.150410
11
132.067127
21
438.021847
0
LINE
8
Layer 1
10
132.067127
20
438.021847
11
130.873699
21
437.652927
0
LINE
8
Layer 1
10
130.873699
20
437.652927
11
129.794869
21
437.068802
0
LINE
8
Layer 1
10
129.794869
20
437.068802
11
128.855788
21
436.294622
0
LINE
8
Layer 1
10
128.855788
20
436.294622
11
128.081609
21
435.355542
0
LINE
8
Layer 1
10
128.081609
20
435.355542
11
127.497484
21
434.276712
0
LINE
8
Layer 1
10
127.497484
20
434.276712
11
127.128564
21
433.083284
0
LINE
8
Layer 1
10
127.128564
20
433.083284
11
127.000001
21
431.800410
0
LINE
8
Layer 1
10
127.000001
20
431.800410
11
127.128564
21
430.517536
0
LINE
8
Layer 1
10
127.128564
20
430.517536
11
127.497484
21
429.324108
0
LINE
8
Layer 1
10
127.497484
20
429.324108
11
128.081609
21
428.245278
0
LINE
8
Layer 1
10
128.081609
20
428.245278
11
128.855788
21
427.306198
0
LINE
8
Layer 1
10
128.855788
20
427.306198
11
129.794869
21
426.532018
0
LINE
8
Layer 1
10
129.794869
20
426.532018
11
130.873699
21
425.947893
0
LINE
8
Layer 1
10
130.873699
20
425.947893
11
132.067127
21
425.578973
0
LINE
8
Layer 1
10
132.067127
20
425.578973
11
133.350001
21
425.450410
0
LINE
8
Layer 1
10
133.350001
20
425.450410
11
133.350001
21
425.450410
0
LINE
8
Layer 1
10
304.800001
20
374.650410
11
304.800001
21
317.500410
0
LINE
8
Layer 1
10
304.800001
20
317.500410
11
298.450001
21
317.500410
0
LINE
8
Layer 1
10
298.450001
20
317.500410
11
298.450001
21
311.150410
0
LINE
8
Layer 1
10
298.450001
20
311.150410
11
304.800001
21
311.150410
0
LINE
8
Layer 1
10
304.800001
20
311.150410
11
304.800001
21
304.800410
0
LINE
8
Layer 1
10
304.800001
20
304.800410
11
206.375001
21
304.800410
0
LINE
8
Layer 1
10
206.375001
20
304.800410
11
206.375001
21
311.150410
0
LINE
8
Layer 1
10
206.375001
20
311.150410
11
200.025001
21
311.150410
0
LINE
8
Layer 1
10
200.025001
20
311.150410
11
200.025001
21
304.800410
0
LINE
8
Layer 1
10
200.025001
20
304.800410
11
104.775001
21
304.800410
0
LINE
8
Layer 1
10
104.775001
20
304.800410
11
104.775001
21
311.150410
0
LINE
8
Layer 1
10
104.775001
20
311.150410
11
98.425000
21
311.150410
0
LINE
8
Layer 1
10
98.425000
20
311.150410
11
98.425000
21
304.800410
0
LINE
8
Layer 1
10
98.425000
20
304.800410
11
-0.000001
21
304.800410
0
LINE
8
Layer 1
10
-0.000001
20
304.800410
11
-0.000001
21
311.150410
0
LINE
8
Layer 1
10
-0.000001
20
311.150410
11
6.350000
21
311.150410
0
LINE
8
Layer 1
10
6.350000
20
311.150410
11
6.350000
21
317.500410
0
LINE
8
Layer 1
10
6.350000
20
317.500410
11
-0.000001
21
317.500410
0
LINE
8
Layer 1
10
-0.000001
20
317.500410
11
-0.000001
21
374.650410
0
LINE
8
Layer 1
10
-0.000001
20
374.650410
11
304.800001
21
374.650410
0
LINE
8
Layer 1
10
206.375001
20
323.850410
11
200.025001
21
323.850410
0
LINE
8
Layer 1
10
200.025001
20
323.850410
11
200.025001
21
317.500410
0
LINE
8
Layer 1
10
200.025001
20
317.500410
11
206.375001
21
317.500410
0
LINE
8
Layer 1
10
206.375001
20
317.500410
11
206.375001
21
323.850410
0
LINE
8
Layer 1
10
171.450001
20
323.850410
11
133.350001
21
323.850410
0
LINE
8
Layer 1
10
133.350001
20
323.850410
11
132.067127
21
323.721847
0
LINE
8
Layer 1
10
132.067127
20
323.721847
11
130.873699
21
323.352927
0
LINE
8
Layer 1
10
130.873699
20
323.352927
11
129.794869
21
322.768802
0
LINE
8
Layer 1
10
129.794869
20
322.768802
11
128.855788
21
321.994622
0
LINE
8
Layer 1
10
128.855788
20
321.994622
11
128.081609
21
321.055542
0
LINE
8
Layer 1
10
128.081609
20
321.055542
11
127.497484
21
319.976712
0
LINE
8
Layer 1
10
127.497484
20
319.976712
11
127.128564
21
318.783284
0
LINE
8
Layer 1
10
127.128564
20
318.783284
11
127.000001
21
317.500410
0
LINE
8
Layer 1
10
127.000001
20
317.500410
11
127.128564
21
316.217536
0
LINE
8
Layer 1
10
127.128564
20
316.217536
11
127.497484
21
315.024108
0
LINE
8
Layer 1
10
127.497484
20
315.024108
11
128.081609
21
313.945278
0
LINE
8
Layer 1
10
128.081609
20
313.945278
11
128.855788
21
313.006197
0
LINE
8
Layer 1
10
128.855788
20
313.006197
11
129.794869
21
312.232018
0
LINE
8
Layer 1
10
129.794869
20
312.232018
11
130.873699
21
311.647893
0
LINE
8
Layer 1
10
130.873699
20
311.647893
11
132.067127
21
311.278973
0
LINE
8
Layer 1
10
132.067127
20
311.278973
11
133.350001
21
311.150410
0
LINE
8
Layer 1
10
133.350001
20
311.150410
11
171.450001
21
311.150410
0
LINE
8
Layer 1
10
171.450001
20
311.150410
11
172.732875
21
311.278973
0
LINE
8
Layer 1
10
172.732875
20
311.278973
11
173.926303
21
311.647893
0
LINE
8
Layer 1
10
173.926303
20
311.647893
11
175.005133
21
312.232018
0
LINE
8
Layer 1
10
175.005133
20
312.232018
11
175.944213
21
313.006197
0
LINE
8
Layer 1
10
175.944213
20
313.006197
11
176.718393
21
313.945278
0
LINE
8
Layer 1
10
176.718393
20
313.945278
11
177.302518
21
315.024108
0
LINE
8
Layer 1
10
177.302518
20
315.024108
11
177.671438
21
316.217536
0
LINE
8
Layer 1
10
177.671438
20
316.217536
11
177.800001
21
317.500410
0
LINE
8
Layer 1
10
177.800001
20
317.500410
11
177.671438
21
318.783284
0
LINE
8
Layer 1
10
177.671438
20
318.783284
11
177.302518
21
319.976712
0
LINE
8
Layer 1
10
177.302518
20
319.976712
11
176.718393
21
321.055542
0
LINE
8
Layer 1
10
176.718393
20
321.055542
11
175.944213
21
321.994622
0
LINE
8
Layer 1
10
175.944213
20
321.994622
11
175.005133
21
322.768802
0
LINE
8
Layer 1
10
175.005133
20
322.768802
11
173.926303
21
323.352927
0
LINE
8
Layer 1
10
173.926303
20
323.352927
11
172.732875
21
323.721847
0
LINE
8
Layer 1
10
172.732875
20
323.721847
11
171.450001
21
323.850410
0
LINE
8
Layer 1
10
171.450001
20
323.850410
11
171.450001
21
323.850410
0
LINE
8
Layer 1
10
104.775001
20
323.850410
11
98.425000
21
323.850410
0
LINE
8
Layer 1
10
98.425000
20
323.850410
11
98.425000
21
317.500410
0
LINE
8
Layer 1
10
98.425000
20
317.500410
11
104.775001
21
317.500410
0
LINE
8
Layer 1
10
104.775001
20
317.500410
11
104.775001
21
323.850410
0
LINE
8
Layer 1
10
152.400001
20
552.450409
11
152.400001
21
558.800409
0
LINE
8
Layer 1
10
152.400001
20
558.800409
11
146.050001
21
558.800409
0
LINE
8
Layer 1
10
146.050001
20
558.800409
11
146.050001
21
565.150409
0
LINE
8
Layer 1
10
146.050001
20
565.150409
11
152.400001
21
565.150409
0
LINE
8
Layer 1
10
152.400001
20
565.150409
11
152.400001
21
571.500409
0
LINE
8
Layer 1
10
152.400001
20
571.500409
11
298.450001
21
571.500409
0
LINE
8
Layer 1
10
298.450001
20
571.500409
11
298.450001
21
565.150409
0
LINE
8
Layer 1
10
298.450001
20
565.150409
11
292.100001
21
565.150409
0
LINE
8
Layer 1
10
292.100001
20
565.150409
11
292.100001
21
558.800409
0
LINE
8
Layer 1
10
292.100001
20
558.800409
11
298.450001
21
558.800409
0
LINE
8
Layer 1
10
298.450001
20
558.800409
11
298.450001
21
552.450409
0
LINE
8
Layer 1
10
298.450001
20
552.450409
11
152.400001
21
552.450409
0
LINE
8
Layer 1
10
6.350000
20
552.450409
11
6.350000
21
558.800409
0
LINE
8
Layer 1
10
6.350000
20
558.800409
11
-0.000001
21
558.800409
0
LINE
8
Layer 1
10
-0.000001
20
558.800409
11
-0.000001
21
565.150409
0
LINE
8
Layer 1
10
-0.000001
20
565.150409
11
6.350000
21
565.150409
0
LINE
8
Layer 1
10
6.350000
20
565.150409
11
6.350000
21
571.500409
0
LINE
8
Layer 1
10
6.350000
20
571.500409
11
152.400001
21
571.500409
0
LINE
8
Layer 1
10
152.400001
20
571.500409
11
152.400001
21
565.150409
0
LINE
8
Layer 1
10
152.400001
20
565.150409
11
146.050001
21
565.150409
0
LINE
8
Layer 1
10
146.050001
20
565.150409
11
146.050001
21
558.800409
0
LINE
8
Layer 1
10
146.050001
20
558.800409
11
152.400001
21
558.800409
0
LINE
8
Layer 1
10
152.400001
20
558.800409
11
152.400001
21
552.450409
0
LINE
8
Layer 1
10
152.400001
20
552.450409
11
6.350000
21
552.450409
0
LINE
8
Layer 1
10
6.350000
20
514.350409
11
6.350000
21
520.700409
0
LINE
8
Layer 1
10
6.350000
20
520.700409
11
-0.000001
21
520.700409
0
LINE
8
Layer 1
10
-0.000001
20
520.700409
11
-0.000001
21
527.050409
0
LINE
8
Layer 1
10
-0.000001
20
527.050409
11
6.350000
21
527.050409
0
LINE
8
Layer 1
10
6.350000
20
527.050409
11
6.350000
21
533.400409
0
LINE
8
Layer 1
10
6.350000
20
533.400409
11
298.450001
21
533.400409
0
LINE
8
Layer 1
10
298.450001
20
533.400409
11
298.450001
21
527.050409
0
LINE
8
Layer 1
10
298.450001
20
527.050409
11
304.800001
21
527.050409
0
LINE
8
Layer 1
10
304.800001
20
527.050409
11
304.800001
21
520.700409
0
LINE
8
Layer 1
10
304.800001
20
520.700409
11
298.450001
21
520.700409
0
LINE
8
Layer 1
10
298.450001
20
520.700409
11
298.450001
21
514.350409
0
LINE
8
Layer 1
10
298.450001
20
514.350409
11
6.350000
21
514.350409
0
LINE
8
Layer 1
10
98.425000
20
520.700409
11
104.775001
21
520.700409
0
LINE
8
Layer 1
10
104.775001
20
520.700409
11
104.775001
21
527.050409
0
LINE
8
Layer 1
10
104.775001
20
527.050409
11
98.425000
21
527.050409
0
LINE
8
Layer 1
10
98.425000
20
527.050409
11
98.425000
21
520.700409
0
LINE
8
Layer 1
10
200.025001
20
520.700409
11
206.375001
21
520.700409
0
LINE
8
Layer 1
10
206.375001
20
520.700409
11
206.375001
21
527.050409
0
LINE
8
Layer 1
10
206.375001
20
527.050409
11
200.025001
21
527.050409
0
LINE
8
Layer 1
10
200.025001
20
527.050409
11
200.025001
21
520.700409
0
LINE
8
Layer 1
10
152.400001
20
533.400409
11
152.400001
21
539.750409
0
LINE
8
Layer 1
10
152.400001
20
539.750409
11
146.050001
21
539.750409
0
LINE
8
Layer 1
10
146.050001
20
539.750409
11
146.050001
21
546.100409
0
LINE
8
Layer 1
10
146.050001
20
546.100409
11
152.400001
21
546.100409
0
LINE
8
Layer 1
10
152.400001
20
546.100409
11
152.400001
21
552.450409
0
LINE
8
Layer 1
10
152.400001
20
552.450409
11
298.450001
21
552.450409
0
LINE
8
Layer 1
10
298.450001
20
552.450409
11
298.450001
21
546.100409
0
LINE
8
Layer 1
10
298.450001
20
546.100409
11
292.100001
21
546.100409
0
LINE
8
Layer 1
10
292.100001
20
546.100409
11
292.100001
21
539.750409
0
LINE
8
Layer 1
10
292.100001
20
539.750409
11
298.450001
21
539.750409
0
LINE
8
Layer 1
10
298.450001
20
539.750409
11
298.450001
21
533.400409
0
LINE
8
Layer 1
10
298.450001
20
533.400409
11
152.400001
21
533.400409
0
LINE
8
Layer 1
10
6.350000
20
533.400409
11
6.350000
21
539.750409
0
LINE
8
Layer 1
10
6.350000
20
539.750409
11
-0.000001
21
539.750409
0
LINE
8
Layer 1
10
-0.000001
20
539.750409
11
-0.000001
21
546.100409
0
LINE
8
Layer 1
10
-0.000001
20
546.100409
11
6.350000
21
546.100409
0
LINE
8
Layer 1
10
6.350000
20
546.100409
11
6.350000
21
552.450409
0
LINE
8
Layer 1
10
6.350000
20
552.450409
11
152.400001
21
552.450409
0
LINE
8
Layer 1
10
152.400001
20
552.450409
11
152.400001
21
546.100409
0
LINE
8
Layer 1
10
152.400001
20
546.100409
11
146.050001
21
546.100409
0
LINE
8
Layer 1
10
146.050001
20
546.100409
11
146.050001
21
539.750409
0
LINE
8
Layer 1
10
146.050001
20
539.750409
11
152.400001
21
539.750409
0
LINE
8
Layer 1
10
152.400001
20
539.750409
11
152.400001
21
533.400409
0
LINE
8
Layer 1
10
152.400001
20
533.400409
11
6.350000
21
533.400409
0
LINE
8
Layer 1
10
266.699981
20
88.900420
11
285.749981
21
88.900420
0
LINE
8
Layer 1
10
285.749981
20
88.900420
11
285.749981
21
82.550420
0
LINE
8
Layer 1
10
285.749981
20
82.550420
11
266.699981
21
82.550420
0
LINE
8
Layer 1
10
266.699981
20
82.550420
11
266.699981
21
88.900420
0
LINE
8
Layer 1
10
19.050000
20
88.900420
11
38.100000
21
88.900420
0
LINE
8
Layer 1
10
38.100000
20
88.900420
11
38.100000
21
82.550420
0
LINE
8
Layer 1
10
38.100000
20
82.550420
11
19.050000
21
82.550420
0
LINE
8
Layer 1
10
19.050000
20
82.550420
11
19.050000
21
88.900420
0
LINE
8
Layer 1
10
266.699981
20
158.750410
11
285.749981
21
158.750410
0
LINE
8
Layer 1
10
285.749981
20
158.750410
11
285.749981
21
152.400410
0
LINE
8
Layer 1
10
285.749981
20
152.400410
11
266.699981
21
152.400410
0
LINE
8
Layer 1
10
266.699981
20
152.400410
11
266.699981
21
158.750410
0
LINE
8
Layer 1
10
266.700011
20
177.800400
11
285.750011
21
177.800400
0
LINE
8
Layer 1
10
285.750011
20
177.800400
11
285.750011
21
171.450400
0
LINE
8
Layer 1
10
285.750011
20
171.450400
11
266.700011
21
171.450400
0
LINE
8
Layer 1
10
266.700011
20
171.450400
11
266.700011
21
177.800400
0
LINE
8
Layer 1
10
266.700011
20
298.450410
11
285.750011
21
298.450410
0
LINE
8
Layer 1
10
285.750011
20
298.450410
11
285.750011
21
292.100410
0
LINE
8
Layer 1
10
285.750011
20
292.100410
11
266.700011
21
292.100410
0
LINE
8
Layer 1
10
266.700011
20
292.100410
11
266.700011
21
298.450410
0
LINE
8
Layer 1
10
19.050000
20
298.450410
11
38.100000
21
298.450410
0
LINE
8
Layer 1
10
38.100000
20
298.450410
11
38.100000
21
292.100410
0
LINE
8
Layer 1
10
38.100000
20
292.100410
11
19.050000
21
292.100410
0
LINE
8
Layer 1
10
19.050000
20
292.100410
11
19.050000
21
298.450410
0
LINE
8
Layer 1
10
19.050000
20
177.800410
11
38.100000
21
177.800410
0
LINE
8
Layer 1
10
38.100000
20
177.800410
11
38.100000
21
171.450410
0
LINE
8
Layer 1
10
38.100000
20
171.450410
11
19.050000
21
171.450410
0
LINE
8
Layer 1
10
19.050000
20
171.450410
11
19.050000
21
177.800410
0
LINE
8
Layer 1
10
19.050000
20
158.750410
11
38.100000
21
158.750410
0
LINE
8
Layer 1
10
38.100000
20
158.750410
11
38.100000
21
152.400410
0
LINE
8
Layer 1
10
38.100000
20
152.400410
11
19.050000
21
152.400410
0
LINE
8
Layer 1
10
19.050000
20
152.400410
11
19.050000
21
158.750410
0
LINE
8
Layer 1
10
255.778001
20
28.575400
11
255.870888
21
27.653983
0
LINE
8
Layer 1
10
255.870888
20
27.653983
11
256.137291
21
26.795771
0
LINE
8
Layer 1
10
256.137291
20
26.795771
11
256.558827
21
26.019151
0
LINE
8
Layer 1
10
256.558827
20
26.019151
11
257.117109
21
25.342508
0
LINE
8
Layer 1
10
257.117109
20
25.342508
11
257.793752
21
24.784226
0
LINE
8
Layer 1
10
257.793752
20
24.784226
11
258.570372
21
24.362690
0
LINE
8
Layer 1
10
258.570372
20
24.362690
11
259.428584
21
24.096287
0
LINE
8
Layer 1
10
259.428584
20
24.096287
11
260.350001
21
24.003400
0
LINE
8
Layer 1
10
260.350001
20
24.003400
11
261.246119
21
24.092061
0
LINE
8
Layer 1
10
261.246119
20
24.092061
11
262.099630
21
24.351423
0
LINE
8
Layer 1
10
262.099630
20
24.351423
11
262.886549
21
24.771550
0
LINE
8
Layer 1
10
262.886549
20
24.771550
11
263.582893
21
25.342508
0
LINE
8
Layer 1
10
263.582893
20
25.342508
11
264.153851
21
26.038852
0
LINE
8
Layer 1
10
264.153851
20
26.038852
11
264.573978
21
26.825771
0
LINE
8
Layer 1
10
264.573978
20
26.825771
11
264.833340
21
27.679282
0
LINE
8
Layer 1
10
264.833340
20
27.679282
11
264.922001
21
28.575400
0
LINE
8
Layer 1
10
264.922001
20
28.575400
11
264.833340
21
29.471518
0
LINE
8
Layer 1
10
264.833340
20
29.471518
11
264.573978
21
30.325029
0
LINE
8
Layer 1
10
264.573978
20
30.325029
11
264.153851
21
31.111948
0
LINE
8
Layer 1
10
264.153851
20
31.111948
11
263.582893
21
31.808292
0
LINE
8
Layer 1
10
263.582893
20
31.808292
11
262.886549
21
32.379250
0
LINE
8
Layer 1
10
262.886549
20
32.379250
11
262.099630
21
32.799377
0
LINE
8
Layer 1
10
262.099630
20
32.799377
11
261.246119
21
33.058739
0
LINE
8
Layer 1
10
261.246119
20
33.058739
11
260.350001
21
33.147400
0
LINE
8
Layer 1
10
260.350001
20
33.147400
11
259.453883
21
33.058739
0
LINE
8
Layer 1
10
259.453883
20
33.058739
11
258.600372
21
32.799377
0
LINE
8
Layer 1
10
258.600372
20
32.799377
11
257.813453
21
32.379250
0
LINE
8
Layer 1
10
257.813453
20
32.379250
11
257.117109
21
31.808292
0
LINE
8
Layer 1
10
257.117109
20
31.808292
11
256.546151
21
31.111948
0
LINE
8
Layer 1
10
256.546151
20
31.111948
11
256.126024
21
30.325029
0
LINE
8
Layer 1
10
256.126024
20
30.325029
11
255.866662
21
29.471518
0
LINE
8
Layer 1
10
255.866662
20
29.471518
11
255.778001
21
28.575400
0
LINE
8
Layer 1
10
255.778001
20
28.575400
11
255.778001
21
28.575400
0
LINE
8
Layer 1
10
184.150001
20
28.575400
11
184.238662
21
27.679282
0
LINE
8
Layer 1
10
184.238662
20
27.679282
11
184.498024
21
26.825771
0
LINE
8
Layer 1
10
184.498024
20
26.825771
11
184.918151
21
26.038852
0
LINE
8
Layer 1
10
184.918151
20
26.038852
11
185.489109
21
25.342508
0
LINE
8
Layer 1
10
185.489109
20
25.342508
11
186.185453
21
24.771550
0
LINE
8
Layer 1
10
186.185453
20
24.771550
11
186.972372
21
24.351423
0
LINE
8
Layer 1
10
186.972372
20
24.351423
11
187.825883
21
24.092061
0
LINE
8
Layer 1
10
187.825883
20
24.092061
11
188.722001
21
24.003400
0
LINE
8
Layer 1
10
188.722001
20
24.003400
11
189.618119
21
24.092061
0
LINE
8
Layer 1
10
189.618119
20
24.092061
11
190.471630
21
24.351423
0
LINE
8
Layer 1
10
190.471630
20
24.351423
11
191.258549
21
24.771550
0
LINE
8
Layer 1
10
191.258549
20
24.771550
11
191.954893
21
25.342508
0
LINE
8
Layer 1
10
191.954893
20
25.342508
11
192.525851
21
26.038852
0
LINE
8
Layer 1
10
192.525851
20
26.038852
11
192.945978
21
26.825771
0
LINE
8
Layer 1
10
192.945978
20
26.825771
11
193.205340
21
27.679282
0
LINE
8
Layer 1
10
193.205340
20
27.679282
11
193.294001
21
28.575400
0
LINE
8
Layer 1
10
193.294001
20
28.575400
11
193.205340
21
29.471518
0
LINE
8
Layer 1
10
193.205340
20
29.471518
11
192.945978
21
30.325029
0
LINE
8
Layer 1
10
192.945978
20
30.325029
11
192.525851
21
31.111948
0
LINE
8
Layer 1
10
192.525851
20
31.111948
11
191.954893
21
31.808292
0
LINE
8
Layer 1
10
191.954893
20
31.808292
11
191.258549
21
32.379250
0
LINE
8
Layer 1
10
191.258549
20
32.379250
11
190.471630
21
32.799377
0
LINE
8
Layer 1
10
190.471630
20
32.799377
11
189.618119
21
33.058739
0
LINE
8
Layer 1
10
189.618119
20
33.058739
11
188.722001
21
33.147400
0
LINE
8
Layer 1
10
188.722001
20
33.147400
11
187.825883
21
33.058739
0
LINE
8
Layer 1
10
187.825883
20
33.058739
11
186.972372
21
32.799377
0
LINE
8
Layer 1
10
186.972372
20
32.799377
11
186.185453
21
32.379250
0
LINE
8
Layer 1
10
186.185453
20
32.379250
11
185.489109
21
31.808292
0
LINE
8
Layer 1
10
185.489109
20
31.808292
11
184.918151
21
31.111948
0
LINE
8
Layer 1
10
184.918151
20
31.111948
11
184.498024
21
30.325029
0
LINE
8
Layer 1
10
184.498024
20
30.325029
11
184.238662
21
29.471518
0
LINE
8
Layer 1
10
184.238662
20
29.471518
11
184.150001
21
28.575400
0
LINE
8
Layer 1
10
184.150001
20
28.575400
11
184.150001
21
28.575400
0
LINE
8
Layer 1
10
304.800001
20
38.100410
11
304.800001
21
19.050410
0
LINE
8
Layer 1
10
304.800001
20
19.050410
11
285.750001
21
19.050410
0
LINE
8
Layer 1
10
285.750001
20
19.050410
11
285.750001
21
6.350410
0
LINE
8
Layer 1
10
285.750001
20
6.350410
11
273.050001
21
6.350410
0
LINE
8
Layer 1
10
273.050001
20
6.350410
11
273.050001
21
0.000410
0
LINE
8
Layer 1
10
273.050001
20
0.000410
11
247.650001
21
0.000410
0
LINE
8
Layer 1
10
247.650001
20
0.000410
11
247.650001
21
6.350410
0
LINE
8
Layer 1
10
247.650001
20
6.350410
11
209.550001
21
6.350410
0
LINE
8
Layer 1
10
209.550001
20
6.350410
11
209.550001
21
0.000410
0
LINE
8
Layer 1
10
209.550001
20
0.000410
11
184.150001
21
0.000410
0
LINE
8
Layer 1
10
184.150001
20
0.000410
11
184.150001
21
6.350410
0
LINE
8
Layer 1
10
184.150001
20
6.350410
11
158.750001
21
6.350410
0
LINE
8
Layer 1
10
158.750001
20
6.350410
11
158.750001
21
19.050410
0
LINE
8
Layer 1
10
158.750001
20
19.050410
11
152.400001
21
19.050410
0
LINE
8
Layer 1
10
152.400001
20
19.050410
11
152.400001
21
38.100410
0
LINE
8
Layer 1
10
152.400001
20
38.100410
11
158.750001
21
38.100410
0
LINE
8
Layer 1
10
158.750001
20
38.100410
11
285.750001
21
38.100410
0
LINE
8
Layer 1
10
285.750001
20
38.100410
11
304.800001
21
38.100410
0
LINE
8
Layer 1
10
49.022000
20
28.575400
11
48.933339
21
27.679282
0
LINE
8
Layer 1
10
48.933339
20
27.679282
11
48.673977
21
26.825771
0
LINE
8
Layer 1
10
48.673977
20
26.825771
11
48.253850
21
26.038852
0
LINE
8
Layer 1
10
48.253850
20
26.038852
11
47.682892
21
25.342508
0
LINE
8
Layer 1
10
47.682892
20
25.342508
11
46.986548
21
24.771550
0
LINE
8
Layer 1
10
46.986548
20
24.771550
11
46.199629
21
24.351423
0
LINE
8
Layer 1
10
46.199629
20
24.351423
11
45.346118
21
24.092061
0
LINE
8
Layer 1
10
45.346118
20
24.092061
11
44.450000
21
24.003400
0
LINE
8
Layer 1
10
44.450000
20
24.003400
11
43.553882
21
24.092061
0
LINE
8
Layer 1
10
43.553882
20
24.092061
11
42.700371
21
24.351423
0
LINE
8
Layer 1
10
42.700371
20
24.351423
11
41.913452
21
24.771550
0
LINE
8
Layer 1
10
41.913452
20
24.771550
11
41.217108
21
25.342508
0
LINE
8
Layer 1
10
41.217108
20
25.342508
11
40.646150
21
26.038852
0
LINE
8
Layer 1
10
40.646150
20
26.038852
11
40.226023
21
26.825771
0
LINE
8
Layer 1
10
40.226023
20
26.825771
11
39.966661
21
27.679282
0
LINE
8
Layer 1
10
39.966661
20
27.679282
11
39.878000
21
28.575400
0
LINE
8
Layer 1
10
39.878000
20
28.575400
11
39.966661
21
29.471518
0
LINE
8
Layer 1
10
39.966661
20
29.471518
11
40.226023
21
30.325029
0
LINE
8
Layer 1
10
40.226023
20
30.325029
11
40.646150
21
31.111948
0
LINE
8
Layer 1
10
40.646150
20
31.111948
11
41.217108
21
31.808292
0
LINE
8
Layer 1
10
41.217108
20
31.808292
11
41.913452
21
32.379250
0
LINE
8
Layer 1
10
41.913452
20
32.379250
11
42.700371
21
32.799377
0
LINE
8
Layer 1
10
42.700371
20
32.799377
11
43.553882
21
33.058739
0
LINE
8
Layer 1
10
43.553882
20
33.058739
11
44.450000
21
33.147400
0
LINE
8
Layer 1
10
44.450000
20
33.147400
11
45.346118
21
33.058739
0
LINE
8
Layer 1
10
45.346118
20
33.058739
11
46.199629
21
32.799377
0
LINE
8
Layer 1
10
46.199629
20
32.799377
11
46.986548
21
32.379250
0
LINE
8
Layer 1
10
46.986548
20
32.379250
11
47.682892
21
31.808292
0
LINE
8
Layer 1
10
47.682892
20
31.808292
11
48.253850
21
31.111948
0
LINE
8
Layer 1
10
48.253850
20
31.111948
11
48.673977
21
30.325029
0
LINE
8
Layer 1
10
48.673977
20
30.325029
11
48.933339
21
29.471518
0
LINE
8
Layer 1
10
48.933339
20
29.471518
11
49.022000
21
28.575400
0
LINE
8
Layer 1
10
49.022000
20
28.575400
11
49.022000
21
28.575400
0
LINE
8
Layer 1
10
120.650001
20
28.575400
11
120.561340
21
27.679282
0
LINE
8
Layer 1
10
120.561340
20
27.679282
11
120.301978
21
26.825771
0
LINE
8
Layer 1
10
120.301978
20
26.825771
11
119.881851
21
26.038852
0
LINE
8
Layer 1
10
119.881851
20
26.038852
11
119.310893
21
25.342508
0
LINE
8
Layer 1
10
119.310893
20
25.342508
11
118.614549
21
24.771550
0
LINE
8
Layer 1
10
118.614549
20
24.771550
11
117.827630
21
24.351423
0
LINE
8
Layer 1
10
117.827630
20
24.351423
11
116.974119
21
24.092061
0
LINE
8
Layer 1
10
116.974119
20
24.092061
11
116.078001
21
24.003400
0
LINE
8
Layer 1
10
116.078001
20
24.003400
11
115.181883
21
24.092061
0
LINE
8
Layer 1
10
115.181883
20
24.092061
11
114.328372
21
24.351423
0
LINE
8
Layer 1
10
114.328372
20
24.351423
11
113.541453
21
24.771550
0
LINE
8
Layer 1
10
113.541453
20
24.771550
11
112.845109
21
25.342508
0
LINE
8
Layer 1
10
112.845109
20
25.342508
11
112.274151
21
26.038852
0
LINE
8
Layer 1
10
112.274151
20
26.038852
11
111.854024
21
26.825771
0
LINE
8
Layer 1
10
111.854024
20
26.825771
11
111.594662
21
27.679282
0
LINE
8
Layer 1
10
111.594662
20
27.679282
11
111.506001
21
28.575400
0
LINE
8
Layer 1
10
111.506001
20
28.575400
11
111.594662
21
29.471518
0
LINE
8
Layer 1
10
111.594662
20
29.471518
11
111.854024
21
30.325029
0
LINE
8
Layer 1
10
111.854024
20
30.325029
11
112.274151
21
31.111948
0
LINE
8
Layer 1
10
112.274151
20
31.111948
11
112.845109
21
31.808292
0
LINE
8
Layer 1
10
112.845109
20
31.808292
11
113.541453
21
32.379250
0
LINE
8
Layer 1
10
113.541453
20
32.379250
11
114.328372
21
32.799377
0
LINE
8
Layer 1
10
114.328372
20
32.799377
11
115.181883
21
33.058739
0
LINE
8
Layer 1
10
115.181883
20
33.058739
11
116.078001
21
33.147400
0
LINE
8
Layer 1
10
116.078001
20
33.147400
11
116.974119
21
33.058739
0
LINE
8
Layer 1
10
116.974119
20
33.058739
11
117.827630
21
32.799377
0
LINE
8
Layer 1
10
117.827630
20
32.799377
11
118.614549
21
32.379250
0
LINE
8
Layer 1
10
118.614549
20
32.379250
11
119.310893
21
31.808292
0
LINE
8
Layer 1
10
119.310893
20
31.808292
11
119.881851
21
31.111948
0
LINE
8
Layer 1
10
119.881851
20
31.111948
11
120.301978
21
30.325029
0
LINE
8
Layer 1
10
120.301978
20
30.325029
11
120.561340
21
29.471518
0
LINE
8
Layer 1
10
120.561340
20
29.471518
11
120.650001
21
28.575400
0
LINE
8
Layer 1
10
120.650001
20
28.575400
11
120.650001
21
28.575400
0
LINE
8
Layer 1
10
-0.000000
20
38.100410
11
-0.000000
21
19.050410
0
LINE
8
Layer 1
10
-0.000000
20
19.050410
11
19.050000
21
19.050410
0
LINE
8
Layer 1
10
19.050000
20
19.050410
11
19.050000
21
6.350410
0
LINE
8
Layer 1
10
19.050000
20
6.350410
11
31.750000
21
6.350410
0
LINE
8
Layer 1
10
31.750000
20
6.350410
11
31.750000
21
0.000410
0
LINE
8
Layer 1
10
31.750000
20
0.000410
11
57.150000
21
0.000410
0
LINE
8
Layer 1
10
57.150000
20
0.000410
11
57.150000
21
6.350410
0
LINE
8
Layer 1
10
57.150000
20
6.350410
11
95.250000
21
6.350410
0
LINE
8
Layer 1
10
95.250000
20
6.350410
11
95.250000
21
0.000410
0
LINE
8
Layer 1
10
95.250000
20
0.000410
11
120.650001
21
0.000410
0
LINE
8
Layer 1
10
120.650001
20
0.000410
11
120.650001
21
6.350410
0
LINE
8
Layer 1
10
120.650001
20
6.350410
11
146.050001
21
6.350410
0
LINE
8
Layer 1
10
146.050001
20
6.350410
11
146.050001
21
19.050410
0
LINE
8
Layer 1
10
146.050001
20
19.050410
11
152.400001
21
19.050410
0
LINE
8
Layer 1
10
152.400001
20
19.050410
11
152.400001
21
38.100410
0
LINE
8
Layer 1
10
152.400001
20
38.100410
11
146.050001
21
38.100410
0
LINE
8
Layer 1
10
146.050001
20
38.100410
11
19.050000
21
38.100410
0
LINE
8
Layer 1
10
19.050000
20
38.100410
11
-0.000000
21
38.100410
0
LINE
8
Layer 1
10
177.800001
20
50.319820
11
203.200001
21
50.319820
0
LINE
8
Layer 1
10
203.200001
20
50.319820
11
203.200001
21
43.969820
0
LINE
8
Layer 1
10
203.200001
20
43.969820
11
177.800001
21
43.969820
0
LINE
8
Layer 1
10
177.800001
20
43.969820
11
177.800001
21
50.319820
0
LINE
8
Layer 1
10
241.300001
20
50.319820
11
266.700001
21
50.319820
0
LINE
8
Layer 1
10
266.700001
20
50.319820
11
266.700001
21
43.969820
0
LINE
8
Layer 1
10
266.700001
20
43.969820
11
241.300001
21
43.969820
0
LINE
8
Layer 1
10
241.300001
20
43.969820
11
241.300001
21
50.319820
0
LINE
8
Layer 1
10
95.250000
20
50.319820
11
120.650001
21
50.319820
0
LINE
8
Layer 1
10
120.650001
20
50.319820
11
120.650001
21
43.969820
0
LINE
8
Layer 1
10
120.650001
20
43.969820
11
95.250000
21
43.969820
0
LINE
8
Layer 1
10
95.250000
20
43.969820
11
95.250000
21
50.319820
0
LINE
8
Layer 1
10
31.750000
20
50.319820
11
57.150000
21
50.319820
0
LINE
8
Layer 1
10
57.150000
20
50.319820
11
57.150000
21
43.969820
0
LINE
8
Layer 1
10
57.150000
20
43.969820
11
31.750000
21
43.969820
0
LINE
8
Layer 1
10
31.750000
20
43.969820
11
31.750000
21
50.319820
0
LINE
8
Layer 1
10
-0.000000
20
95.250410
11
-0.000000
21
146.050410
0
LINE
8
Layer 1
10
-0.000000
20
146.050410
11
6.350000
21
146.050410
0
LINE
8
Layer 1
10
6.350000
20
146.050410
11
6.350000
21
152.400410
0
LINE
8
Layer 1
10
6.350000
20
152.400410
11
6.350000
21
158.750410
0
LINE
8
Layer 1
10
6.350000
20
158.750410
11
6.350000
21
165.100410
0
LINE
8
Layer 1
10
6.350000
20
165.100410
11
98.425000
21
165.100410
0
LINE
8
Layer 1
10
98.425000
20
165.100410
11
98.425000
21
158.750410
0
LINE
8
Layer 1
10
98.425000
20
158.750410
11
98.425000
21
152.400410
0
LINE
8
Layer 1
10
98.425000
20
152.400410
11
98.425000
21
146.050410
0
LINE
8
Layer 1
10
98.425000
20
146.050410
11
104.775001
21
146.050410
0
LINE
8
Layer 1
10
104.775001
20
146.050410
11
104.775001
21
152.400410
0
LINE
8
Layer 1
10
104.775001
20
152.400410
11
104.775001
21
158.750410
0
LINE
8
Layer 1
10
104.775001
20
158.750410
11
104.775001
21
165.100410
0
LINE
8
Layer 1
10
104.775001
20
165.100410
11
200.025001
21
165.100410
0
LINE
8
Layer 1
10
200.025001
20
165.100410
11
200.025001
21
158.750410
0
LINE
8
Layer 1
10
200.025001
20
158.750410
11
200.025001
21
152.400410
0
LINE
8
Layer 1
10
200.025001
20
152.400410
11
200.025001
21
146.050410
0
LINE
8
Layer 1
10
200.025001
20
146.050410
11
206.375001
21
146.050410
0
LINE
8
Layer 1
10
206.375001
20
146.050410
11
206.375001
21
152.400410
0
LINE
8
Layer 1
10
206.375001
20
152.400410
11
206.375001
21
158.750410
0
LINE
8
Layer 1
10
206.375001
20
158.750410
11
206.375001
21
165.100410
0
LINE
8
Layer 1
10
206.375001
20
165.100410
11
298.450001
21
165.100410
0
LINE
8
Layer 1
10
298.450001
20
165.100410
11
298.450001
21
158.750410
0
LINE
8
Layer 1
10
298.450001
20
158.750410
11
298.450001
21
152.400410
0
LINE
8
Layer 1
10
298.450001
20
152.400410
11
298.450001
21
146.050410
0
LINE
8
Layer 1
10
298.450001
20
146.050410
11
304.800001
21
146.050410
0
LINE
8
Layer 1
10
304.800001
20
146.050410
11
304.800001
21
95.250410
0
LINE
8
Layer 1
10
304.800001
20
95.250410
11
-0.000000
21
95.250410
0
LINE
8
Layer 1
10
133.350001
20
146.050410
11
171.450001
21
146.050410
0
LINE
8
Layer 1
10
171.450001
20
146.050410
11
172.732875
21
146.178973
0
LINE
8
Layer 1
10
172.732875
20
146.178973
11
173.926303
21
146.547893
0
LINE
8
Layer 1
10
173.926303
20
146.547893
11
175.005133
21
147.132018
0
LINE
8
Layer 1
10
175.005133
20
147.132018
11
175.944213
21
147.906198
0
LINE
8
Layer 1
10
175.944213
20
147.906198
11
176.718393
21
148.845278
0
LINE
8
Layer 1
10
176.718393
20
148.845278
11
177.302518
21
149.924108
0
LINE
8
Layer 1
10
177.302518
20
149.924108
11
177.671438
21
151.117536
0
LINE
8
Layer 1
10
177.671438
20
151.117536
11
177.800001
21
152.400410
0
LINE
8
Layer 1
10
177.800001
20
152.400410
11
177.671438
21
153.683284
0
LINE
8
Layer 1
10
177.671438
20
153.683284
11
177.302518
21
154.876712
0
LINE
8
Layer 1
10
177.302518
20
154.876712
11
176.718393
21
155.955542
0
LINE
8
Layer 1
10
176.718393
20
155.955542
11
175.944213
21
156.894623
0
LINE
8
Layer 1
10
175.944213
20
156.894623
11
175.005133
21
157.668802
0
LINE
8
Layer 1
10
175.005133
20
157.668802
11
173.926303
21
158.252927
0
LINE
8
Layer 1
10
173.926303
20
158.252927
11
172.732875
21
158.621847
0
LINE
8
Layer 1
10
172.732875
20
158.621847
11
171.450001
21
158.750410
0
LINE
8
Layer 1
10
171.450001
20
158.750410
11
133.350001
21
158.750410
0
LINE
8
Layer 1
10
133.350001
20
158.750410
11
132.067127
21
158.621847
0
LINE
8
Layer 1
10
132.067127
20
158.621847
11
130.873699
21
158.252927
0
LINE
8
Layer 1
10
130.873699
20
158.252927
11
129.794869
21
157.668802
0
LINE
8
Layer 1
10
129.794869
20
157.668802
11
128.855788
21
156.894623
0
LINE
8
Layer 1
10
128.855788
20
156.894623
11
128.081609
21
155.955542
0
LINE
8
Layer 1
10
128.081609
20
155.955542
11
127.497484
21
154.876712
0
LINE
8
Layer 1
10
127.497484
20
154.876712
11
127.128564
21
153.683284
0
LINE
8
Layer 1
10
127.128564
20
153.683284
11
127.000001
21
152.400410
0
LINE
8
Layer 1
10
127.000001
20
152.400410
11
127.128564
21
151.117536
0
LINE
8
Layer 1
10
127.128564
20
151.117536
11
127.497484
21
149.924108
0
LINE
8
Layer 1
10
127.497484
20
149.924108
11
128.081609
21
148.845278
0
LINE
8
Layer 1
10
128.081609
20
148.845278
11
128.855788
21
147.906198
0
LINE
8
Layer 1
10
128.855788
20
147.906198
11
129.794869
21
147.132018
0
LINE
8
Layer 1
10
129.794869
20
147.132018
11
130.873699
21
146.547893
0
LINE
8
Layer 1
10
130.873699
20
146.547893
11
132.067127
21
146.178973
0
LINE
8
Layer 1
10
132.067127
20
146.178973
11
133.350001
21
146.050410
0
LINE
8
Layer 1
10
133.350001
20
146.050410
11
133.350001
21
146.050410
0
LINE
8
Layer 1
10
-0.000000
20
234.950410
11
-0.000000
21
184.150410
0
LINE
8
Layer 1
10
-0.000000
20
184.150410
11
6.350000
21
184.150410
0
LINE
8
Layer 1
10
6.350000
20
184.150410
11
6.350000
21
177.800410
0
LINE
8
Layer 1
10
6.350000
20
177.800410
11
6.350000
21
171.450410
0
LINE
8
Layer 1
10
6.350000
20
171.450410
11
6.350000
21
165.100410
0
LINE
8
Layer 1
10
6.350000
20
165.100410
11
98.425000
21
165.100410
0
LINE
8
Layer 1
10
98.425000
20
165.100410
11
98.425000
21
171.450410
0
LINE
8
Layer 1
10
98.425000
20
171.450410
11
98.425000
21
177.800410
0
LINE
8
Layer 1
10
98.425000
20
177.800410
11
98.425000
21
184.150410
0
LINE
8
Layer 1
10
98.425000
20
184.150410
11
104.775001
21
184.150410
0
LINE
8
Layer 1
10
104.775001
20
184.150410
11
104.775001
21
177.800410
0
LINE
8
Layer 1
10
104.775001
20
177.800410
11
104.775001
21
171.450410
0
LINE
8
Layer 1
10
104.775001
20
171.450410
11
104.775001
21
165.100410
0
LINE
8
Layer 1
10
104.775001
20
165.100410
11
200.025001
21
165.100410
0
LINE
8
Layer 1
10
200.025001
20
165.100410
11
200.025001
21
171.450410
0
LINE
8
Layer 1
10
200.025001
20
171.450410
11
200.025001
21
177.800410
0
LINE
8
Layer 1
10
200.025001
20
177.800410
11
200.025001
21
184.150410
0
LINE
8
Layer 1
10
200.025001
20
184.150410
11
206.375001
21
184.150410
0
LINE
8
Layer 1
10
206.375001
20
184.150410
11
206.375001
21
177.800410
0
LINE
8
Layer 1
10
206.375001
20
177.800410
11
206.375001
21
171.450410
0
LINE
8
Layer 1
10
206.375001
20
171.450410
11
206.375001
21
165.100410
0
LINE
8
Layer 1
10
206.375001
20
165.100410
11
298.450001
21
165.100410
0
LINE
8
Layer 1
10
298.450001
20
165.100410
11
298.450001
21
171.450410
0
LINE
8
Layer 1
10
298.450001
20
171.450410
11
298.450001
21
177.800410
0
LINE
8
Layer 1
10
298.450001
20
177.800410
11
298.450001
21
184.150410
0
LINE
8
Layer 1
10
298.450001
20
184.150410
11
304.800001
21
184.150410
0
LINE
8
Layer 1
10
304.800001
20
184.150410
11
304.800001
21
234.950410
0
LINE
8
Layer 1
10
304.800001
20
234.950410
11
-0.000000
21
234.950410
0
LINE
8
Layer 1
10
133.350001
20
184.150410
11
171.450001
21
184.150410
0
LINE
8
Layer 1
10
171.450001
20
184.150410
11
172.732875
21
184.021847
0
LINE
8
Layer 1
10
172.732875
20
184.021847
11
173.926303
21
183.652927
0
LINE
8
Layer 1
10
173.926303
20
183.652927
11
175.005133
21
183.068802
0
LINE
8
Layer 1
10
175.005133
20
183.068802
11
175.944213
21
182.294623
0
LINE
8
Layer 1
10
175.944213
20
182.294623
11
176.718393
21
181.355542
0
LINE
8
Layer 1
10
176.718393
20
181.355542
11
177.302518
21
180.276712
0
LINE
8
Layer 1
10
177.302518
20
180.276712
11
177.671438
21
179.083284
0
LINE
8
Layer 1
10
177.671438
20
179.083284
11
177.800001
21
177.800410
0
LINE
8
Layer 1
10
177.800001
20
177.800410
11
177.671438
21
176.517536
0
LINE
8
Layer 1
10
177.671438
20
176.517536
11
177.302518
21
175.324108
0
LINE
8
Layer 1
10
177.302518
20
175.324108
11
176.718393
21
174.245278
0
LINE
8
Layer 1
10
176.718393
20
174.245278
11
175.944213
21
173.306197
0
LINE
8
Layer 1
10
175.944213
20
173.306197
11
175.005133
21
172.532018
0
LINE
8
Layer 1
10
175.005133
20
172.532018
11
173.926303
21
171.947893
0
LINE
8
Layer 1
10
173.926303
20
171.947893
11
172.732875
21
171.578973
0
LINE
8
Layer 1
10
172.732875
20
171.578973
11
171.450001
21
171.450410
0
LINE
8
Layer 1
10
171.450001
20
171.450410
11
133.350001
21
171.450410
0
LINE
8
Layer 1
10
133.350001
20
171.450410
11
132.067127
21
171.578973
0
LINE
8
Layer 1
10
132.067127
20
171.578973
11
130.873699
21
171.947893
0
LINE
8
Layer 1
10
130.873699
20
171.947893
11
129.794869
21
172.532018
0
LINE
8
Layer 1
10
129.794869
20
172.532018
11
128.855788
21
173.306197
0
LINE
8
Layer 1
10
128.855788
20
173.306197
11
128.081609
21
174.245278
0
LINE
8
Layer 1
10
128.081609
20
174.245278
11
127.497484
21
175.324108
0
LINE
8
Layer 1
10
127.497484
20
175.324108
11
127.128564
21
176.517536
0
LINE
8
Layer 1
10
127.128564
20
176.517536
11
127.000001
21
177.800410
0
LINE
8
Layer 1
10
127.000001
20
177.800410
11
127.128564
21
179.083284
0
LINE
8
Layer 1
10
127.128564
20
179.083284
11
127.497484
21
180.276712
0
LINE
8
Layer 1
10
127.497484
20
180.276712
11
128.081609
21
181.355542
0
LINE
8
Layer 1
10
128.081609
20
181.355542
11
128.855788
21
182.294623
0
LINE
8
Layer 1
10
128.855788
20
182.294623
11
129.794869
21
183.068802
0
LINE
8
Layer 1
10
129.794869
20
183.068802
11
130.873699
21
183.652927
0
LINE
8
Layer 1
10
130.873699
20
183.652927
11
132.067127
21
184.021847
0
LINE
8
Layer 1
10
132.067127
20
184.021847
11
133.350001
21
184.150410
0
LINE
8
Layer 1
10
133.350001
20
184.150410
11
133.350001
21
184.150410
0
LINE
8
Layer 1
10
304.800001
20
234.950410
11
304.800001
21
292.100410
0
LINE
8
Layer 1
10
304.800001
20
292.100410
11
298.450001
21
292.100410
0
LINE
8
Layer 1
10
298.450001
20
292.100410
11
298.450001
21
298.450410
0
LINE
8
Layer 1
10
298.450001
20
298.450410
11
304.800001
21
298.450410
0
LINE
8
Layer 1
10
304.800001
20
298.450410
11
304.800001
21
304.800410
0
LINE
8
Layer 1
10
304.800001
20
304.800410
11
206.375001
21
304.800410
0
LINE
8
Layer 1
10
206.375001
20
304.800410
11
206.375001
21
298.450410
0
LINE
8
Layer 1
10
206.375001
20
298.450410
11
200.025001
21
298.450410
0
LINE
8
Layer 1
10
200.025001
20
298.450410
11
200.025001
21
304.800410
0
LINE
8
Layer 1
10
200.025001
20
304.800410
11
104.775001
21
304.800410
0
LINE
8
Layer 1
10
104.775001
20
304.800410
11
104.775001
21
298.450410
0
LINE
8
Layer 1
10
104.775001
20
298.450410
11
98.425000
21
298.450410
0
LINE
8
Layer 1
10
98.425000
20
298.450410
11
98.425000
21
304.800410
0
LINE
8
Layer 1
10
98.425000
20
304.800410
11
-0.000000
21
304.800410
0
LINE
8
Layer 1
10
-0.000000
20
304.800410
11
-0.000000
21
298.450410
0
LINE
8
Layer 1
10
-0.000000
20
298.450410
11
6.350000
21
298.450410
0
LINE
8
Layer 1
10
6.350000
20
298.450410
11
6.350000
21
292.100410
0
LINE
8
Layer 1
10
6.350000
20
292.100410
11
-0.000000
21
292.100410
0
LINE
8
Layer 1
10
-0.000000
20
292.100410
11
-0.000000
21
234.950410
0
LINE
8
Layer 1
10
-0.000000
20
234.950410
11
304.800001
21
234.950410
0
LINE
8
Layer 1
10
206.375001
20
285.750410
11
200.025001
21
285.750410
0
LINE
8
Layer 1
10
200.025001
20
285.750410
11
200.025001
21
292.100410
0
LINE
8
Layer 1
10
200.025001
20
292.100410
11
206.375001
21
292.100410
0
LINE
8
Layer 1
10
206.375001
20
292.100410
11
206.375001
21
285.750410
0
LINE
8
Layer 1
10
171.450001
20
285.750410
11
133.350001
21
285.750410
0
LINE
8
Layer 1
10
133.350001
20
285.750410
11
132.067127
21
285.878973
0
LINE
8
Layer 1
10
132.067127
20
285.878973
11
130.873699
21
286.247893
0
LINE
8
Layer 1
10
130.873699
20
286.247893
11
129.794869
21
286.832018
0
LINE
8
Layer 1
10
129.794869
20
286.832018
11
128.855788
21
287.606198
0
LINE
8
Layer 1
10
128.855788
20
287.606198
11
128.081609
21
288.545278
0
LINE
8
Layer 1
10
128.081609
20
288.545278
11
127.497484
21
289.624108
0
LINE
8
Layer 1
10
127.497484
20
289.624108
11
127.128564
21
290.817536
0
LINE
8
Layer 1
10
127.128564
20
290.817536
11
127.000001
21
292.100410
0
LINE
8
Layer 1
10
127.000001
20
292.100410
11
127.128564
21
293.383284
0
LINE
8
Layer 1
10
127.128564
20
293.383284
11
127.497484
21
294.576712
0
LINE
8
Layer 1
10
127.497484
20
294.576712
11
128.081609
21
295.655542
0
LINE
8
Layer 1
10
128.081609
20
295.655542
11
128.855788
21
296.594623
0
LINE
8
Layer 1
10
128.855788
20
296.594623
11
129.794869
21
297.368802
0
LINE
8
Layer 1
10
129.794869
20
297.368802
11
130.873699
21
297.952927
0
LINE
8
Layer 1
10
130.873699
20
297.952927
11
132.067127
21
298.321847
0
LINE
8
Layer 1
10
132.067127
20
298.321847
11
133.350001
21
298.450410
0
LINE
8
Layer 1
10
133.350001
20
298.450410
11
171.450001
21
298.450410
0
LINE
8
Layer 1
10
171.450001
20
298.450410
11
172.732875
21
298.321847
0
LINE
8
Layer 1
10
172.732875
20
298.321847
11
173.926303
21
297.952927
0
LINE
8
Layer 1
10
173.926303
20
297.952927
11
175.005133
21
297.368802
0
LINE
8
Layer 1
10
175.005133
20
297.368802
11
175.944213
21
296.594623
0
LINE
8
Layer 1
10
175.944213
20
296.594623
11
176.718393
21
295.655542
0
LINE
8
Layer 1
10
176.718393
20
295.655542
11
177.302518
21
294.576712
0
LINE
8
Layer 1
10
177.302518
20
294.576712
11
177.671438
21
293.383284
0
LINE
8
Layer 1
10
177.671438
20
293.383284
11
177.800001
21
292.100410
0
LINE
8
Layer 1
10
177.800001
20
292.100410
11
177.671438
21
290.817536
0
LINE
8
Layer 1
10
177.671438
20
290.817536
11
177.302518
21
289.624108
0
LINE
8
Layer 1
10
177.302518
20
289.624108
11
176.718393
21
288.545278
0
LINE
8
Layer 1
10
176.718393
20
288.545278
11
175.944213
21
287.606198
0
LINE
8
Layer 1
10
175.944213
20
287.606198
11
175.005133
21
286.832018
0
LINE
8
Layer 1
10
175.005133
20
286.832018
11
173.926303
21
286.247893
0
LINE
8
Layer 1
10
173.926303
20
286.247893
11
172.732875
21
285.878973
0
LINE
8
Layer 1
10
172.732875
20
285.878973
11
171.450001
21
285.750410
0
LINE
8
Layer 1
10
171.450001
20
285.750410
11
171.450001
21
285.750410
0
LINE
8
Layer 1
10
104.775001
20
285.750410
11
98.425000
21
285.750410
0
LINE
8
Layer 1
10
98.425000
20
285.750410
11
98.425000
21
292.100410
0
LINE
8
Layer 1
10
98.425000
20
292.100410
11
104.775001
21
292.100410
0
LINE
8
Layer 1
10
104.775001
20
292.100410
11
104.775001
21
285.750410
0
LINE
8
Layer 1
10
152.400001
20
57.150410
11
152.400001
21
50.800410
0
LINE
8
Layer 1
10
152.400001
20
50.800410
11
146.050001
21
50.800410
0
LINE
8
Layer 1
10
146.050001
20
50.800410
11
146.050001
21
44.450410
0
LINE
8
Layer 1
10
146.050001
20
44.450410
11
152.400001
21
44.450410
0
LINE
8
Layer 1
10
152.400001
20
44.450410
11
152.400001
21
38.100410
0
LINE
8
Layer 1
10
152.400001
20
38.100410
11
298.450001
21
38.100410
0
LINE
8
Layer 1
10
298.450001
20
38.100410
11
298.450001
21
44.450410
0
LINE
8
Layer 1
10
298.450001
20
44.450410
11
292.100001
21
44.450410
0
LINE
8
Layer 1
10
292.100001
20
44.450410
11
292.100001
21
50.800410
0
LINE
8
Layer 1
10
292.100001
20
50.800410
11
298.450001
21
50.800410
0
LINE
8
Layer 1
10
298.450001
20
50.800410
11
298.450001
21
57.150410
0
LINE
8
Layer 1
10
298.450001
20
57.150410
11
152.400001
21
57.150410
0
LINE
8
Layer 1
10
6.350000
20
57.150410
11
6.350000
21
50.800410
0
LINE
8
Layer 1
10
6.350000
20
50.800410
11
-0.000000
21
50.800410
0
LINE
8
Layer 1
10
-0.000000
20
50.800410
11
-0.000000
21
44.450410
0
LINE
8
Layer 1
10
-0.000000
20
44.450410
11
6.350000
21
44.450410
0
LINE
8
Layer 1
10
6.350000
20
44.450410
11
6.350000
21
38.100410
0
LINE
8
Layer 1
10
6.350000
20
38.100410
11
152.400001
21
38.100410
0
LINE
8
Layer 1
10
152.400001
20
38.100410
11
152.400001
21
44.450410
0
LINE
8
Layer 1
10
152.400001
20
44.450410
11
146.050001
21
44.450410
0
LINE
8
Layer 1
10
146.050001
20
44.450410
11
146.050001
21
50.800410
0
LINE
8
Layer 1
10
146.050001
20
50.800410
11
152.400001
21
50.800410
0
LINE
8
Layer 1
10
152.400001
20
50.800410
11
152.400001
21
57.150410
0
LINE
8
Layer 1
10
152.400001
20
57.150410
11
6.350000
21
57.150410
0
LINE
8
Layer 1
10
6.350000
20
95.250410
11
6.350000
21
88.900410
0
LINE
8
Layer 1
10
6.350000
20
88.900410
11
-0.000000
21
88.900410
0
LINE
8
Layer 1
10
-0.000000
20
88.900410
11
-0.000000
21
82.550410
0
LINE
8
Layer 1
10
-0.000000
20
82.550410
11
6.350000
21
82.550410
0
LINE
8
Layer 1
10
6.350000
20
82.550410
11
6.350000
21
76.200410
0
LINE
8
Layer 1
10
6.350000
20
76.200410
11
298.450001
21
76.200410
0
LINE
8
Layer 1
10
298.450001
20
76.200410
11
298.450001
21
82.550410
0
LINE
8
Layer 1
10
298.450001
20
82.550410
11
304.800001
21
82.550410
0
LINE
8
Layer 1
10
304.800001
20
82.550410
11
304.800001
21
88.900410
0
LINE
8
Layer 1
10
304.800001
20
88.900410
11
298.450001
21
88.900410
0
LINE
8
Layer 1
10
298.450001
20
88.900410
11
298.450001
21
95.250410
0
LINE
8
Layer 1
10
298.450001
20
95.250410
11
6.350000
21
95.250410
0
LINE
8
Layer 1
10
98.425000
20
88.900410
11
104.775001
21
88.900410
0
LINE
8
Layer 1
10
104.775001
20
88.900410
11
104.775001
21
82.550410
0
LINE
8
Layer 1
10
104.775001
20
82.550410
11
98.425000
21
82.550410
0
LINE
8
Layer 1
10
98.425000
20
82.550410
11
98.425000
21
88.900410
0
LINE
8
Layer 1
10
200.025001
20
88.900410
11
206.375001
21
88.900410
0
LINE
8
Layer 1
10
206.375001
20
88.900410
11
206.375001
21
82.550410
0
LINE
8
Layer 1
10
206.375001
20
82.550410
11
200.025001
21
82.550410
0
LINE
8
Layer 1
10
200.025001
20
82.550410
11
200.025001
21
88.900410
0
LINE
8
Layer 1
10
152.400001
20
76.200410
11
152.400001
21
69.850410
0
LINE
8
Layer 1
10
152.400001
20
69.850410
11
146.050001
21
69.850410
0
LINE
8
Layer 1
10
146.050001
20
69.850410
11
146.050001
21
63.500410
0
LINE
8
Layer 1
10
146.050001
20
63.500410
11
152.400001
21
63.500410
0
LINE
8
Layer 1
10
152.400001
20
63.500410
11
152.400001
21
57.150410
0
LINE
8
Layer 1
10
152.400001
20
57.150410
11
298.450001
21
57.150410
0
LINE
8
Layer 1
10
298.450001
20
57.150410
11
298.450001
21
63.500410
0
LINE
8
Layer 1
10
298.450001
20
63.500410
11
292.100001
21
63.500410
0
LINE
8
Layer 1
10
292.100001
20
63.500410
11
292.100001
21
69.850410
0
LINE
8
Layer 1
10
292.100001
20
69.850410
11
298.450001
21
69.850410
0
LINE
8
Layer 1
10
298.450001
20
69.850410
11
298.450001
21
76.200410
0
LINE
8
Layer 1
10
298.450001
20
76.200410
11
152.400001
21
76.200410
0
LINE
8
Layer 1
10
6.350000
20
76.200410
11
6.350000
21
69.850410
0
LINE
8
Layer 1
10
6.350000
20
69.850410
11
-0.000000
21
69.850410
0
LINE
8
Layer 1
10
-0.000000
20
69.850410
11
-0.000000
21
63.500410
0
LINE
8
Layer 1
10
-0.000000
20
63.500410
11
6.350000
21
63.500410
0
LINE
8
Layer 1
10
6.350000
20
63.500410
11
6.350000
21
57.150410
0
LINE
8
Layer 1
10
6.350000
20
57.150410
11
152.400001
21
57.150410
0
LINE
8
Layer 1
10
152.400001
20
57.150410
11
152.400001
21
63.500410
0
LINE
8
Layer 1
10
152.400001
20
63.500410
11
146.050001
21
63.500410
0
LINE
8
Layer 1
10
146.050001
20
63.500410
11
146.050001
21
69.850410
0
LINE
8
Layer 1
10
146.050001
20
69.850410
11
152.400001
21
69.850410
0
LINE
8
Layer 1
10
152.400001
20
69.850410
11
152.400001
21
76.200410
0
LINE
8
Layer 1
10
152.400001
20
76.200410
11
6.350000
21
76.200410
 0 
ENDSEC
 0 
EOF